<mxfile host="app.diagrams.net" modified="2022-09-17T11:16:14.227Z" agent="5.0 (Macintosh)" etag="YRAK5lJFYHF9G04mQgHw" version="20.3.2" type="github">
  <diagram id="R2lEEEUBdFMjLlhIrx00" name="Page-1">
    <mxGraphModel dx="1426" dy="695" grid="1" gridSize="10" guides="1" tooltips="1" connect="1" arrows="1" fold="1" page="1" pageScale="1" pageWidth="850" pageHeight="1100" math="0" shadow="0" extFonts="Permanent Marker^https://fonts.googleapis.com/css?family=Permanent+Marker">
      <root>
        <mxCell id="0" />
        <mxCell id="1" parent="0" />
        <mxCell id="eav3ZWFYyCnUY4NynaWJ-21" value="" style="rounded=0;whiteSpace=wrap;html=1;fontStyle=0" parent="1" vertex="1">
          <mxGeometry x="40" y="190" width="250" height="30" as="geometry" />
        </mxCell>
        <mxCell id="eav3ZWFYyCnUY4NynaWJ-15" value="" style="rounded=0;whiteSpace=wrap;html=1;fontStyle=0" parent="1" vertex="1">
          <mxGeometry x="40" y="160" width="250" height="30" as="geometry" />
        </mxCell>
        <mxCell id="eav3ZWFYyCnUY4NynaWJ-14" value="" style="rounded=0;whiteSpace=wrap;html=1;fontStyle=0" parent="1" vertex="1">
          <mxGeometry x="40" y="130" width="250" height="30" as="geometry" />
        </mxCell>
        <mxCell id="eav3ZWFYyCnUY4NynaWJ-3" value="" style="rounded=0;whiteSpace=wrap;html=1;fontStyle=0" parent="1" vertex="1">
          <mxGeometry x="40" y="100" width="250" height="30" as="geometry" />
        </mxCell>
        <mxCell id="eav3ZWFYyCnUY4NynaWJ-1" value="Title" style="shape=partialRectangle;overflow=hidden;connectable=0;fillColor=none;top=0;left=0;bottom=0;right=0;align=left;spacingLeft=6;fontStyle=1;" parent="1" vertex="1">
          <mxGeometry x="90" y="100" width="220" height="30" as="geometry">
            <mxRectangle width="220" height="30" as="alternateBounds" />
          </mxGeometry>
        </mxCell>
        <mxCell id="eav3ZWFYyCnUY4NynaWJ-12" value="Description" style="shape=partialRectangle;overflow=hidden;connectable=0;fillColor=none;top=0;left=0;bottom=0;right=0;align=left;spacingLeft=6;fontStyle=1;" parent="1" vertex="1">
          <mxGeometry x="90" y="130" width="220" height="30" as="geometry">
            <mxRectangle width="220" height="30" as="alternateBounds" />
          </mxGeometry>
        </mxCell>
        <mxCell id="eav3ZWFYyCnUY4NynaWJ-16" value="Year" style="shape=partialRectangle;overflow=hidden;connectable=0;fillColor=none;top=0;left=0;bottom=0;right=0;align=left;spacingLeft=6;fontStyle=1;" parent="1" vertex="1">
          <mxGeometry x="90" y="160" width="220" height="30" as="geometry">
            <mxRectangle width="220" height="30" as="alternateBounds" />
          </mxGeometry>
        </mxCell>
        <mxCell id="eav3ZWFYyCnUY4NynaWJ-17" value="Genre" style="shape=partialRectangle;overflow=hidden;connectable=0;fillColor=none;top=0;left=0;bottom=0;right=0;align=left;spacingLeft=6;fontStyle=1;" parent="1" vertex="1">
          <mxGeometry x="90" y="190" width="220" height="30" as="geometry">
            <mxRectangle width="220" height="30" as="alternateBounds" />
          </mxGeometry>
        </mxCell>
        <mxCell id="eav3ZWFYyCnUY4NynaWJ-18" value="Id" style="shape=partialRectangle;overflow=hidden;connectable=0;fillColor=none;top=0;left=0;bottom=0;right=0;align=left;spacingLeft=6;fontStyle=1;" parent="1" vertex="1">
          <mxGeometry x="70" y="70" width="220" height="30" as="geometry">
            <mxRectangle width="220" height="30" as="alternateBounds" />
          </mxGeometry>
        </mxCell>
        <mxCell id="eav3ZWFYyCnUY4NynaWJ-19" value="" style="rounded=0;whiteSpace=wrap;html=1;fontStyle=0" parent="1" vertex="1">
          <mxGeometry x="40" y="70" width="250" height="30" as="geometry" />
        </mxCell>
        <mxCell id="eav3ZWFYyCnUY4NynaWJ-22" value="Id" style="shape=partialRectangle;overflow=hidden;connectable=0;fillColor=none;top=0;left=0;bottom=0;right=0;align=left;spacingLeft=6;fontStyle=1;" parent="1" vertex="1">
          <mxGeometry x="90" y="70" width="220" height="30" as="geometry">
            <mxRectangle width="220" height="30" as="alternateBounds" />
          </mxGeometry>
        </mxCell>
        <mxCell id="eav3ZWFYyCnUY4NynaWJ-23" value="" style="rounded=0;whiteSpace=wrap;html=1;fontStyle=0" parent="1" vertex="1">
          <mxGeometry x="40" y="40" width="250" height="30" as="geometry" />
        </mxCell>
        <mxCell id="eav3ZWFYyCnUY4NynaWJ-24" value="MOVIES" style="shape=partialRectangle;overflow=hidden;connectable=0;fillColor=none;top=0;left=0;bottom=0;right=0;align=left;spacingLeft=6;fontStyle=1;" parent="1" vertex="1">
          <mxGeometry x="40" y="40" width="240" height="30" as="geometry">
            <mxRectangle width="220" height="30" as="alternateBounds" />
          </mxGeometry>
        </mxCell>
        <mxCell id="napEq-aZ0CJWpfiJu7AP-1" value="" style="endArrow=none;html=1;rounded=0;fontStyle=0" edge="1" parent="1">
          <mxGeometry width="50" height="50" relative="1" as="geometry">
            <mxPoint x="180" y="220" as="sourcePoint" />
            <mxPoint x="179.5" y="70" as="targetPoint" />
          </mxGeometry>
        </mxCell>
        <mxCell id="napEq-aZ0CJWpfiJu7AP-2" value="int" style="shape=partialRectangle;overflow=hidden;connectable=0;fillColor=none;top=0;left=0;bottom=0;right=0;align=left;spacingLeft=6;fontStyle=1;" vertex="1" parent="1">
          <mxGeometry x="190" y="70" width="220" height="30" as="geometry">
            <mxRectangle width="220" height="30" as="alternateBounds" />
          </mxGeometry>
        </mxCell>
        <mxCell id="napEq-aZ0CJWpfiJu7AP-3" value="string" style="shape=partialRectangle;overflow=hidden;connectable=0;fillColor=none;top=0;left=0;bottom=0;right=0;align=left;spacingLeft=6;fontStyle=1;" vertex="1" parent="1">
          <mxGeometry x="190" y="100" width="220" height="30" as="geometry">
            <mxRectangle width="220" height="30" as="alternateBounds" />
          </mxGeometry>
        </mxCell>
        <mxCell id="napEq-aZ0CJWpfiJu7AP-4" value="string" style="shape=partialRectangle;overflow=hidden;connectable=0;fillColor=none;top=0;left=0;bottom=0;right=0;align=left;spacingLeft=6;fontStyle=1;" vertex="1" parent="1">
          <mxGeometry x="190" y="130" width="220" height="30" as="geometry">
            <mxRectangle width="220" height="30" as="alternateBounds" />
          </mxGeometry>
        </mxCell>
        <mxCell id="napEq-aZ0CJWpfiJu7AP-5" value="number" style="shape=partialRectangle;overflow=hidden;connectable=0;fillColor=none;top=0;left=0;bottom=0;right=0;align=left;spacingLeft=6;fontStyle=1;" vertex="1" parent="1">
          <mxGeometry x="190" y="160" width="220" height="30" as="geometry">
            <mxRectangle width="220" height="30" as="alternateBounds" />
          </mxGeometry>
        </mxCell>
        <mxCell id="napEq-aZ0CJWpfiJu7AP-6" value="string" style="shape=partialRectangle;overflow=hidden;connectable=0;fillColor=none;top=0;left=0;bottom=0;right=0;align=left;spacingLeft=6;fontStyle=1;" vertex="1" parent="1">
          <mxGeometry x="190" y="190" width="220" height="30" as="geometry">
            <mxRectangle width="220" height="30" as="alternateBounds" />
          </mxGeometry>
        </mxCell>
        <mxCell id="napEq-aZ0CJWpfiJu7AP-7" value="DUVIDA!!!! Colocar aqui essa opção?" style="shape=partialRectangle;overflow=hidden;connectable=0;fillColor=none;top=0;left=0;bottom=0;right=0;align=left;spacingLeft=6;fontStyle=1;" vertex="1" parent="1">
          <mxGeometry x="40" y="280" width="230" height="30" as="geometry">
            <mxRectangle width="220" height="30" as="alternateBounds" />
          </mxGeometry>
        </mxCell>
        <mxCell id="napEq-aZ0CJWpfiJu7AP-10" value="" style="rounded=0;whiteSpace=wrap;html=1;fontStyle=0" vertex="1" parent="1">
          <mxGeometry x="425" y="130" width="250" height="30" as="geometry" />
        </mxCell>
        <mxCell id="napEq-aZ0CJWpfiJu7AP-11" value="" style="rounded=0;whiteSpace=wrap;html=1;fontStyle=0" vertex="1" parent="1">
          <mxGeometry x="425" y="100" width="250" height="30" as="geometry" />
        </mxCell>
        <mxCell id="napEq-aZ0CJWpfiJu7AP-12" value="Email" style="shape=partialRectangle;overflow=hidden;connectable=0;fillColor=none;top=0;left=0;bottom=0;right=0;align=left;spacingLeft=6;fontStyle=1;" vertex="1" parent="1">
          <mxGeometry x="475" y="100" width="220" height="30" as="geometry">
            <mxRectangle width="220" height="30" as="alternateBounds" />
          </mxGeometry>
        </mxCell>
        <mxCell id="napEq-aZ0CJWpfiJu7AP-13" value="Aluguel" style="shape=partialRectangle;overflow=hidden;connectable=0;fillColor=none;top=0;left=0;bottom=0;right=0;align=left;spacingLeft=6;fontStyle=1;" vertex="1" parent="1">
          <mxGeometry x="475" y="130" width="220" height="30" as="geometry">
            <mxRectangle width="220" height="30" as="alternateBounds" />
          </mxGeometry>
        </mxCell>
        <mxCell id="napEq-aZ0CJWpfiJu7AP-16" value="Id" style="shape=partialRectangle;overflow=hidden;connectable=0;fillColor=none;top=0;left=0;bottom=0;right=0;align=left;spacingLeft=6;fontStyle=1;" vertex="1" parent="1">
          <mxGeometry x="455" y="70" width="220" height="30" as="geometry">
            <mxRectangle width="220" height="30" as="alternateBounds" />
          </mxGeometry>
        </mxCell>
        <mxCell id="napEq-aZ0CJWpfiJu7AP-17" value="" style="rounded=0;whiteSpace=wrap;html=1;fontStyle=0" vertex="1" parent="1">
          <mxGeometry x="425" y="70" width="250" height="30" as="geometry" />
        </mxCell>
        <mxCell id="napEq-aZ0CJWpfiJu7AP-18" value="Nome" style="shape=partialRectangle;overflow=hidden;connectable=0;fillColor=none;top=0;left=0;bottom=0;right=0;align=left;spacingLeft=6;fontStyle=1;" vertex="1" parent="1">
          <mxGeometry x="475" y="70" width="220" height="30" as="geometry">
            <mxRectangle width="220" height="30" as="alternateBounds" />
          </mxGeometry>
        </mxCell>
        <mxCell id="napEq-aZ0CJWpfiJu7AP-19" value="" style="rounded=0;whiteSpace=wrap;html=1;fontStyle=0" vertex="1" parent="1">
          <mxGeometry x="425" y="40" width="250" height="30" as="geometry" />
        </mxCell>
        <mxCell id="napEq-aZ0CJWpfiJu7AP-20" value="CLIENTS" style="shape=partialRectangle;overflow=hidden;connectable=0;fillColor=none;top=0;left=0;bottom=0;right=0;align=left;spacingLeft=6;fontStyle=1;" vertex="1" parent="1">
          <mxGeometry x="425" y="40" width="240" height="30" as="geometry">
            <mxRectangle width="220" height="30" as="alternateBounds" />
          </mxGeometry>
        </mxCell>
        <mxCell id="napEq-aZ0CJWpfiJu7AP-21" value="" style="endArrow=none;html=1;rounded=0;fontStyle=0" edge="1" parent="1">
          <mxGeometry width="50" height="50" relative="1" as="geometry">
            <mxPoint x="565" y="160" as="sourcePoint" />
            <mxPoint x="564.5" y="70" as="targetPoint" />
          </mxGeometry>
        </mxCell>
        <mxCell id="napEq-aZ0CJWpfiJu7AP-22" value="int" style="shape=partialRectangle;overflow=hidden;connectable=0;fillColor=none;top=0;left=0;bottom=0;right=0;align=left;spacingLeft=6;fontStyle=1;" vertex="1" parent="1">
          <mxGeometry x="580" y="70" width="220" height="30" as="geometry">
            <mxRectangle width="220" height="30" as="alternateBounds" />
          </mxGeometry>
        </mxCell>
        <mxCell id="napEq-aZ0CJWpfiJu7AP-23" value="int" style="shape=partialRectangle;overflow=hidden;connectable=0;fillColor=none;top=0;left=0;bottom=0;right=0;align=left;spacingLeft=6;fontStyle=1;" vertex="1" parent="1">
          <mxGeometry x="580" y="100" width="220" height="30" as="geometry">
            <mxRectangle width="220" height="30" as="alternateBounds" />
          </mxGeometry>
        </mxCell>
        <mxCell id="napEq-aZ0CJWpfiJu7AP-24" value="int" style="shape=partialRectangle;overflow=hidden;connectable=0;fillColor=none;top=0;left=0;bottom=0;right=0;align=left;spacingLeft=6;fontStyle=1;" vertex="1" parent="1">
          <mxGeometry x="580" y="130" width="220" height="30" as="geometry">
            <mxRectangle width="220" height="30" as="alternateBounds" />
          </mxGeometry>
        </mxCell>
        <mxCell id="napEq-aZ0CJWpfiJu7AP-35" value="PK" style="shape=partialRectangle;overflow=hidden;connectable=0;fillColor=none;top=0;left=0;bottom=0;right=0;align=left;spacingLeft=6;fontStyle=1;" vertex="1" parent="1">
          <mxGeometry x="40" y="70" width="220" height="30" as="geometry">
            <mxRectangle width="220" height="30" as="alternateBounds" />
          </mxGeometry>
        </mxCell>
        <mxCell id="napEq-aZ0CJWpfiJu7AP-36" value="PK" style="shape=partialRectangle;overflow=hidden;connectable=0;fillColor=none;top=0;left=0;bottom=0;right=0;align=left;spacingLeft=6;fontStyle=1;" vertex="1" parent="1">
          <mxGeometry x="425" y="70" width="220" height="30" as="geometry">
            <mxRectangle width="220" height="30" as="alternateBounds" />
          </mxGeometry>
        </mxCell>
        <mxCell id="napEq-aZ0CJWpfiJu7AP-50" value="" style="rounded=0;whiteSpace=wrap;html=1;fontStyle=0" vertex="1" parent="1">
          <mxGeometry x="425" y="290" width="250" height="30" as="geometry" />
        </mxCell>
        <mxCell id="napEq-aZ0CJWpfiJu7AP-51" value="" style="rounded=0;whiteSpace=wrap;html=1;fontStyle=0" vertex="1" parent="1">
          <mxGeometry x="425" y="260" width="250" height="30" as="geometry" />
        </mxCell>
        <mxCell id="napEq-aZ0CJWpfiJu7AP-52" value="Email" style="shape=partialRectangle;overflow=hidden;connectable=0;fillColor=none;top=0;left=0;bottom=0;right=0;align=left;spacingLeft=6;fontStyle=1;" vertex="1" parent="1">
          <mxGeometry x="475" y="260" width="220" height="30" as="geometry">
            <mxRectangle width="220" height="30" as="alternateBounds" />
          </mxGeometry>
        </mxCell>
        <mxCell id="napEq-aZ0CJWpfiJu7AP-53" value="Aluguel" style="shape=partialRectangle;overflow=hidden;connectable=0;fillColor=none;top=0;left=0;bottom=0;right=0;align=left;spacingLeft=6;fontStyle=1;" vertex="1" parent="1">
          <mxGeometry x="475" y="290" width="220" height="30" as="geometry">
            <mxRectangle width="220" height="30" as="alternateBounds" />
          </mxGeometry>
        </mxCell>
        <mxCell id="napEq-aZ0CJWpfiJu7AP-54" value="Id" style="shape=partialRectangle;overflow=hidden;connectable=0;fillColor=none;top=0;left=0;bottom=0;right=0;align=left;spacingLeft=6;fontStyle=1;" vertex="1" parent="1">
          <mxGeometry x="455" y="230" width="220" height="30" as="geometry">
            <mxRectangle width="220" height="30" as="alternateBounds" />
          </mxGeometry>
        </mxCell>
        <mxCell id="napEq-aZ0CJWpfiJu7AP-55" value="" style="rounded=0;whiteSpace=wrap;html=1;fontStyle=0" vertex="1" parent="1">
          <mxGeometry x="425" y="230" width="250" height="30" as="geometry" />
        </mxCell>
        <mxCell id="napEq-aZ0CJWpfiJu7AP-56" value="Nome" style="shape=partialRectangle;overflow=hidden;connectable=0;fillColor=none;top=0;left=0;bottom=0;right=0;align=left;spacingLeft=6;fontStyle=1;" vertex="1" parent="1">
          <mxGeometry x="475" y="230" width="220" height="30" as="geometry">
            <mxRectangle width="220" height="30" as="alternateBounds" />
          </mxGeometry>
        </mxCell>
        <mxCell id="napEq-aZ0CJWpfiJu7AP-57" value="" style="rounded=0;whiteSpace=wrap;html=1;fontStyle=0" vertex="1" parent="1">
          <mxGeometry x="425" y="200" width="250" height="30" as="geometry" />
        </mxCell>
        <mxCell id="napEq-aZ0CJWpfiJu7AP-58" value="RENTS" style="shape=partialRectangle;overflow=hidden;connectable=0;fillColor=none;top=0;left=0;bottom=0;right=0;align=left;spacingLeft=6;fontStyle=1;" vertex="1" parent="1">
          <mxGeometry x="425" y="200" width="240" height="30" as="geometry">
            <mxRectangle width="220" height="30" as="alternateBounds" />
          </mxGeometry>
        </mxCell>
        <mxCell id="napEq-aZ0CJWpfiJu7AP-59" value="" style="endArrow=none;html=1;rounded=0;fontStyle=0" edge="1" parent="1">
          <mxGeometry width="50" height="50" relative="1" as="geometry">
            <mxPoint x="565" y="320" as="sourcePoint" />
            <mxPoint x="564.5" y="230" as="targetPoint" />
          </mxGeometry>
        </mxCell>
        <mxCell id="napEq-aZ0CJWpfiJu7AP-60" value="int" style="shape=partialRectangle;overflow=hidden;connectable=0;fillColor=none;top=0;left=0;bottom=0;right=0;align=left;spacingLeft=6;fontStyle=5;" vertex="1" parent="1">
          <mxGeometry x="580" y="230" width="220" height="30" as="geometry">
            <mxRectangle width="220" height="30" as="alternateBounds" />
          </mxGeometry>
        </mxCell>
        <mxCell id="napEq-aZ0CJWpfiJu7AP-61" value="int" style="shape=partialRectangle;overflow=hidden;connectable=0;fillColor=none;top=0;left=0;bottom=0;right=0;align=left;spacingLeft=6;fontStyle=1;" vertex="1" parent="1">
          <mxGeometry x="580" y="260" width="220" height="30" as="geometry">
            <mxRectangle width="220" height="30" as="alternateBounds" />
          </mxGeometry>
        </mxCell>
        <mxCell id="napEq-aZ0CJWpfiJu7AP-62" value="int" style="shape=partialRectangle;overflow=hidden;connectable=0;fillColor=none;top=0;left=0;bottom=0;right=0;align=left;spacingLeft=6;fontStyle=1;" vertex="1" parent="1">
          <mxGeometry x="580" y="290" width="220" height="30" as="geometry">
            <mxRectangle width="220" height="30" as="alternateBounds" />
          </mxGeometry>
        </mxCell>
        <mxCell id="napEq-aZ0CJWpfiJu7AP-63" value="PK" style="shape=partialRectangle;overflow=hidden;connectable=0;fillColor=none;top=0;left=0;bottom=0;right=0;align=left;spacingLeft=6;fontStyle=1;" vertex="1" parent="1">
          <mxGeometry x="425" y="230" width="220" height="30" as="geometry">
            <mxRectangle width="220" height="30" as="alternateBounds" />
          </mxGeometry>
        </mxCell>
        <mxCell id="napEq-aZ0CJWpfiJu7AP-64" value="" style="rounded=0;whiteSpace=wrap;html=1;fontStyle=0" vertex="1" parent="1">
          <mxGeometry x="40" y="310" width="250" height="30" as="geometry" />
        </mxCell>
        <mxCell id="napEq-aZ0CJWpfiJu7AP-65" value="Rent" style="shape=partialRectangle;overflow=hidden;connectable=0;fillColor=none;top=0;left=0;bottom=0;right=0;align=left;spacingLeft=6;fontStyle=1;" vertex="1" parent="1">
          <mxGeometry x="70" y="310" width="220" height="30" as="geometry">
            <mxRectangle width="220" height="30" as="alternateBounds" />
          </mxGeometry>
        </mxCell>
        <mxCell id="napEq-aZ0CJWpfiJu7AP-66" value="bool" style="shape=partialRectangle;overflow=hidden;connectable=0;fillColor=none;top=0;left=0;bottom=0;right=0;align=left;spacingLeft=6;fontStyle=1;" vertex="1" parent="1">
          <mxGeometry x="190" y="310" width="220" height="30" as="geometry">
            <mxRectangle width="220" height="30" as="alternateBounds" />
          </mxGeometry>
        </mxCell>
        <mxCell id="napEq-aZ0CJWpfiJu7AP-67" value="" style="shape=image;verticalLabelPosition=bottom;labelBackgroundColor=default;verticalAlign=top;aspect=fixed;imageAspect=0;image=data:image/png,iVBORw0KGgoAAAANSUhEUgAABKEAAAFuCAYAAABZQQvhAAABVmlDQ1BJQ0MgUHJvZmlsZQAAGJVjYGBiSCwoyGFhYGDIzSspCnJ3UoiIjFJgf8bAySDIwMWgwmCZmFxc4BgQ4ANUwgCjUcG3awyMIPqyLsisLXz154xevVnUklItpjD33hlM9SiAKyW1OBlI/wFijeSCohIGBkYVIDugvKQAxAZiBpEioKOA7A4QOx3CngNiJ0HYG8BqQoKcgewjQLZAckZiCpB9BcjWSUIST0di5+aUJkPdAHI9T2peaDCIBmIZBh8GdwYFBjcGDwYXHOpMwOqcGfIZChgqGYoYMhnSGTIYSoC6HIEiBQw5DKlAtidDHkMygx6DDpBtxGAAxEag8EUPN4RYIdA/Vp4MDEy5CLGEAAaGHR9A3kKIqeoAnXKcgeFAbEFiUSI8NBm/sRSnGRtB2NzbGRhYp/3//zmcgYFdk4Hh7/X//39v////7zIGBuZbQL3fAPJUYkZ1fj22AAAAVmVYSWZNTQAqAAAACAABh2kABAAAAAEAAAAaAAAAAAADkoYABwAAABIAAABEoAIABAAAAAEAAAShoAMABAAAAAEAAAFuAAAAAEFTQ0lJAAAAU2NyZWVuc2hvdGiDPGcAAAHXaVRYdFhNTDpjb20uYWRvYmUueG1wAAAAAAA8eDp4bXBtZXRhIHhtbG5zOng9ImFkb2JlOm5zOm1ldGEvIiB4OnhtcHRrPSJYTVAgQ29yZSA2LjAuMCI+CiAgIDxyZGY6UkRGIHhtbG5zOnJkZj0iaHR0cDovL3d3dy53My5vcmcvMTk5OS8wMi8yMi1yZGYtc3ludGF4LW5zIyI+CiAgICAgIDxyZGY6RGVzY3JpcHRpb24gcmRmOmFib3V0PSIiCiAgICAgICAgICAgIHhtbG5zOmV4aWY9Imh0dHA6Ly9ucy5hZG9iZS5jb20vZXhpZi8xLjAvIj4KICAgICAgICAgPGV4aWY6UGl4ZWxZRGltZW5zaW9uPjM2NjwvZXhpZjpQaXhlbFlEaW1lbnNpb24+CiAgICAgICAgIDxleGlmOlBpeGVsWERpbWVuc2lvbj4xMTg1PC9leGlmOlBpeGVsWERpbWVuc2lvbj4KICAgICAgICAgPGV4aWY6VXNlckNvbW1lbnQ+U2NyZWVuc2hvdDwvZXhpZjpVc2VyQ29tbWVudD4KICAgICAgPC9yZGY6RGVzY3JpcHRpb24+CiAgIDwvcmRmOlJERj4KPC94OnhtcG1ldGE+CrCUDisAAEAASURBVHgB7J0HYBRFF8f/yaX3EAIh9N57R7qAIorKJwoqdkWQYu8FURRUrCgKKiBiL9gLIhZEQaRKlya9hvR++d6buz2OmJBCAknuP5DbNjs7+7ub3Zk3r3jl2HNywEQCJEACJEACJEACJEACJEACJEACJEACJEACpUjAuxTLZtEkQAIkQAIkQAIkQAIkQAIkQAIkQAIkQAIkYAhQCMUfAgmQAAmQAAmQAAmQAAmQAAmQAAmQAAmQQKkToBCq1BHzAiRAAiRAAiRAAiRAAiRAAiRAAiRAAiRAAhRC8TdAAiRAAiRAAiRAAiRAAiRAAiRAAiRAAiRQ6gQohCp1xLwACZAACZAACZAACZAACZAACZAACZAACZAAhVD8DZAACZAACZAACZAACZAACZAACZAACZAACZQ6AQqhSh0xL0ACJEACJEACJEACJEACJEACJEACJEACJEAhFH8DJEACJEACJEACJEACJEACJEACJEACJEACpU6AQqhSR8wLkAAJkAAJkAAJkAAJkAAJkAAJkAAJkAAJUAjF3wAJkAAJkAAJkAAJkAAJkAAJkAAJkAAJkECpE6AQqtQR8wIkQAIkQAIkQAIkQAIkQAIkQAIkQAIkQAIUQvE3QAIkQAIkQAIkQAIkQAIkQAIkQAIkQAIkUOoEKIQqdcS8AAmQAAmQAAmQAAmQAAmQAAmQAAmQAAmQAIVQ/A2QAAmQAAmQAAmQAAmQAAmQQBkgcOfdDyI1NbUM1IRVIAESIIHSIUAhVOlwZakkQAIkQAIkQAIkQAIkQAIkUCQCi39dgl8X/16kc5iZBEiABMoTAZ/yVFnWlQRIgARIgARIgARIgARIgAQqKoFLL70Yb745FzabDb17ngWbD4drFfW75n2RgKcSoCaUp37zvG8SIAESIAESIAESIAESIIEyR+C992bh8y++xpdff4f09PQyVz9WiARIgAROhQCFUKdCj+eSAAmQAAmQAAmQAAmQAAmQQAkTeGzig1i+fCUW/LAIOTk5JVw6iyMBEiCBM0eAQqgzx55XJgESIAESIAESIAESIAESIIH/EAgLC8UDD9yFzz77Eot/++M/x7mDBEiABMorARoZl9dvjvUmARIgARIgARIgARIgARKosAQCAvwxc+Y0DBt2LZKSktC3T0/4+/tX2PvljZEACXgGAWpCecb3zLskARIgARIgARIgARIgARIohwTmzXsDPy76Bd9+uwAZGRnl8A5YZRIgARI4ToBCqOMsuEYCJEACJEACJEACJEACJEACZYqAzeaN228bg59+WYxFP/1apurGypAACZBAUQlQCFVUYsxPAiRAAiRAAiRAAiRAAiRAAqeJQHx8PAIDAzBu7Ci8NO3V03RVXoYESIAESocAfUKVDleWSgIkQAIkQAIkQAIkQAIkQALFInDk6DH8uewv9Op1Fs4ffCmaNGqIqKgItGjeuFjl8SQSIAESKCsEKIQqK98E60ECJEACJEACJEACJEACJODxBNLTMzF69K0ICAhAcHAghlw0GPHH4jBhwoMez4YASIAEyj8BmuOV/++Qd0ACJEACJEACJEACJEACJFABCGRkZon20zm45uorMaB/HyxdugJjxtyEf7btxD///FMB7pC3QAIk4OkEKITy9F8A758ESIAESIAESIAESIAESKBMEPju2+/x0EP3YOC5/dC/Xx8s+/NPpKam4ey+vfD9goVloo6sBAmQAAmcCgGvHHtOzqkUwHNJgARIgARIgARIgARIgARIgARKnsAHH36CZeIbKiIiAp06tRXtqH4lfxGWSAIkQAKnkQCFUKcRNi9FAiRAAiRAAiRAAiRAAiRAAoUlkJGRgd9//x0xMTGoU6cO/P39C3sq85EACZBAmSRAIVSZ/FpYKRIgARIgARIgARIgARIgARIgARIgARKoWAToE6pifZ+8GxIgARIgARIgARIgARIgARIgARIgARIokwQohCqTXwsrRQIkQAIkQAIkQAIkQAIkQAIkQAIkQAIViwCFUBXr++TdkAAJkAAJkAAJkAAJkAAJkAAJkAAJkECZJEAhVJn8WlgpEiABEiABEiABEiABEiABEiABEiABEqhYBCiEqljfJ++GBEiABEiABEiABEiABEiABEiABEiABMokAZ8yWauyVCkvqYy9LFWIdSEBEiABEiCB00xAp6xyTvM1eTkSIAESIAESIAESIIEKR8CzNaFUwKR/TCRAAiRAAiRAAiVDgO/WkuHIUkiABEiABEiABEigAhLwTE2o3IKn3Nu5v+iCjufOz20SIAESIAESqGgECnoXqqaUlUc1iK31isaB90MCJEACJEACJEACJFBsAp4nhNJOsXtHuTDo2JEuDCXmIQESIAES8GQCbu9Ke7Yd3j6erWztyT8F3jsJkAAJkAAJkAAJ5EfA44RQ9kw7Xp3xKlJT0xAZGYHMjMz82Lj25+TQEYYLBldIgARIgARIIBcBfUvabDYkJMSjb9+z0bZtm1w5uEkCJEACJEACJEACJEACgMcJoY7EHcGbb76J1StXw+ZrQ449B/YcsRvIz/m4TOTqjC4TCZAACZAACZBA3gR8fHyMECo9PR0TH5uItm1ECOWmGZX3WdxLAiRAAiRAAiRAAiTgaQQ8Tgjl6+uH3Xt24+dff0G3s7p62vfN+yUBEiABEiCBUiPg5+OHKlWqiACKEqhSg8yCSYAESIAESIAESKAcE/A4IZQ6hLJ5eRuTgUJ/b7TGKzQqZiQBEiABEvBQAip3kj81YacMykN/A7xtEiABEiABEiABEiiAAL2GFgCIh0mABEiABEiABIpCgFpQRaHFvCRAAiRAAiRAAiTgSQQ8UAjFzrEn/cB5ryRAAiRAAiRAAiRAAiRAAiRAAiRAAmWDgMcJoYwISuwEvGgrUDZ+gaxFxSBQHNlubjNXLaM45VQMgrwLEiABEiABEiABEiABEiABEqjwBDxOCKWDXBVAUQhV4X/bvMHTTcASIFnCJGup9XA/ptuWAEr3W+u6X5N1nvvSccTxqfmt8tz3c50ESIAESIAESIAESIAESIAESKBME/A4IZQlgPIW5+Qm6YC2oL8y/RWyciRwhgk4BUI7t+80wqEdstyyeQtSklLw785/zb601HRTyRw7YLfnwC6OizWlpzn2mw23D3t2DrIzso7vyU8gZeWwjlvb+S2tfO7L/PJyPwmQAAmQAAmQAAmQAAmQAAmQQIkS8MDoeA5+jiFwibJkYSTgOQRUiJMrBQYGGg3DenXrwT/A3wiY2rdrj75n98VVI642udUKNjMzE+np6QgNCzX59EBmRqYRBuc41aL8/P0Am/PxJI1Vo21p8vKWAtxE52kixPKWQv0CJL/J4FjYs+3mOrqlAmdfP1/HAfnUa3k7ValsvnINvRct3ronx6Vc+blCAiRAAiRAAiRAAiRAAiRAAiRQMgQ8UAglpnj6zxpwlgxHlkICHk0gIz0D+/btMwzmzZuH2Njq8BdB0i+//IKXXnoJKpgacO4Ac3zPnr1Yu3YNWrZshYiIcERWikRCfIIRNK37+2+VGqFKdBU0bd4UifGJ8Pb2xoIFCxAZEYFq1WPRqFEjh8BI2vCqVSuRmpKKJo0bIyY2VoRUcgkRIu3duw8bN24wZcbGxKJ5i+bmHBVOrVm9BmlpaUag1b59e/j5+sHL5vZA0FUKosx3xQ8SIAESIAESIAESIAESIAESKEkCbjoFJVls2S3LDDXlQwVRTCRAAiVDwCaComy7HX4+fqhUqRJq1a6JqjFV0a9vP1StGoMDBw5ABUBPTHoCt912K7Zs2YJ69eviiSeeMBVYv349WrZqhdVr1mDRokVo1qIZNm/ajLi4OLRu3VqESnuwfMVf6NWrFxb9uMiY+j095Wl07dYVX331FQaccw4efvgh7N21xwib7rjjdrz//gf45ptvMXDQQLzzzjtm/5/L/sRdd9+FrVu3YsmSJWjXvh22bdt6IgQKoE7kwS0SIAESIAESIAESIAESIAESKCECHqgJVULkWAwJkMBxAkZw45De2Gw2bNu6zWgYLVy4EIcOHUK9evXgbfPG1KlT8d5776Ffv/4YPmwY+g0YIOv9UDmqMlKTUzDkf0NQo2YNXHDBYGSmZ+Lw4SPYun0rzjn3XNRvUB+dOnZCnbp1kJySjE/nf4q/1/5ttJzG/zselw+/HA/c/wB+/+13ZGVliYBrEqKrRItQLBI/LPwBg84/H7v37IaPjw8uvewyU/dqMdWQIeaB2ZlZMKZ5x++IayRAAiRAAiRAAiRAAiRAAiRAAiVMgEKoEgbK4kjAUwmo76WMrAwMHz4coaFhxuQtwN8ft4wejbO6n4U//1hmBEB//LFUtI+2wdfHF9WrxcLfzx+169RB46aNMW7cOGNud/FFF6N5h3Y4eOAQBoig6uGHHzaCrO7duyO6cjSWL1+OGjVqoF6derBn2k1ZicmJWPrHH+jctStGjBiB+fPniymfDQcPHsLi3xZDtbU6deqEN994E6Nuvhnt2rVD3z59Ub9+fSSLACwsIoxmeJ764+V9kwAJkAAJkAAJkAAJkAAJFI2AZVxWREsSCqGKhpm5SYAE8iGgEe9UEPXC8y8YAZEKfbxEK6patRhzxrGEBNFQykbD+g1QJaYKYmJi0LlTZzRqIj6exDx21qxZ2Cv+on7+5WfRiLoYs2fNQf9z+uPtt97Gps2b8PHHH+POO+7E7DlzkC2aTuo3Ki7uKCIiK0GdoqtvqKCgIGPO9/RTTxvtqQsHD8aRw4eNoCvuWBxq1qqJV6ZPx+Jff8WKlSsw5JIh+OCDD9CkSRPHXemDtIgPUceJ/CQBEiABEiiTBOS5ninRVn392OUtk98PK0UCJEACJFD+Cej4yRJIFeJu+EYuBCRmIQESKCQBeQDVqFkTNcWkLjvLDpuY4FkPpOriVDw8PAytWrcyPp/U6fivixcjICjARMtTP22du3RGr9698ewzz+LfXf8as77du3YbrSXVgqpVu5Zxan7B+RdgzNixeEj8QAWFBGLlio1yLZsItJrg2NKlRgtr5MiR4peqCh6ZMAGbN29G9eo1sOD7H9CyRQsx97sAlwy9BN9+9y3WrlmL1m1aIyc7x0T3s+pbyDtmNhIgARIggbJKQDrEX3/1NXwk2mp2djbsOXbjn9CKuJq72t4agVXjpzo9pnqZlZPNTHhJAAy7oxhZaPlMJEACJEACJOAJBNIz0tG6VWs0bNzQNd4r7H1TCFVYUsxHAiSQLwHtqB+POOnosDs6845TEhMS0ax5M1x66aV47LHHjK8m9RWlf6oBtWP7DtwuzsQHiy+oxKREMc+rjR49euLA/gN4ZuozaNOmrZjc+aBWzVpo2rQpoqKjjNnfhAmPIiAgwDguP1f8RqmQKzo6WgRTwbju2mtN3iriF6pydGU888zTxsn54IsG45Ihl+CgXFudqKvgS5OX3kARJPiOO+MnCZAACZBAWSYw6PxBaNqkqZiD+yItNcVR1eMvrBOrbl4Dx18Eqt17chGUCp40hyNXzklzn3gpbpEACZAACZBAeSTgbSZrvPHvvzsxceJEjKszDr7+vtarsFC3RCFUoTAxEwmQwMkIeMnssfpomjJlCiqJeZxJ2o/XP+mb+/n5mV0PPfigaDjtws8//Yxa59ZCt67dEFEpQoRHEXjrrblYtmyp+HA6iC8+/xzVpbxGIll/+ulnJCLej0ZI9OILL6Jly5bGafn48eNwQPJ++eWXuEKckrds1dJcr027Npj02ONibrcSDRs2QK+evXDLLWOwZ/du419KTfb+/vtvmb3OwTvz3pXofVVM3SiAcmDgJwmQAAlUJALeXj54VCYsLrzoQthEqGQ/qaDI+dLSF4IKl3SzgOTSqpLsrvUCzuFhEiABEiABEijPBHTsN2jQIGRKcKeiCqD0vr1yHFM45ZlBkequGhnNWzTHrDdn4ez+ZxdJYlekCzEzCXg6AZ0YVpMGXTKRAAlUfAIyYPfz9cO0aS/jppturPj3yzss+wTkN6larp9+Mh8XXXxh6dXXes9Zy9K7EksmgYpLQIW+xW1Dcq4KgdW1AxMJkMBpICBjvIHnnoeePXvgnnvuMX6BizLuoybUafiOeAkS8EgCFEB55NfOmyYBEiCBskbAOz/zu7JWUdaHBEig+ARUgKUyKKdPN1MQ3bQVnyfPJIECCUijk/9qul7URCFUUYkxPwmQQOEIFHc2q3ClMxcJkAAJkAAJFI5AaSpHuL/rSvM6hbtT5iKB8ktA2o9qM9kliIBNggkUKWnbU2Fz7glQtskiYWRmEigaAbcGpqvu78MCCiq62KqAAnmYBEiABEiABEiABEiABMoKgWKZ6GhnujB/ZeUmWQ8SON0E3Mafrkvntc918CQrzvMyMjJg8y2CAErPc577n0u7Hcv3ylae/5yc7xk8QAIk4CRglIwtTeMitiEKofgzIgESIAESIAESIAESIAGLQBFmc61TuCQBjyFgDTZztxPdn3tfYaA4z9m/7wD8A/xPPENGqvYcuzMKpdsh2W8CAci52VlOmzvZl5KU6hBKudfRWnc73azqfj3V+st9nNskQAKlRoBCqFJDy4JJgARIgARIgARIgATONAFvG7u7Z/o74PXLLwG73Y6dO3Zi9arVIvDJct2ICoHij8Vj1apV2CWRj13JEvroUv6MsEiWyUlJjm27SI6sY7Juz7ZjyEVDMHfuW6YIe6YKnUQypHkk5chxh8aFY9vy+aRme1q2zdcbbdq0xfI/lyMoJNCRySnYkgBcjm3n9VTTylWuXluvo8l5LccGP0mABEqbAN/KpU2Y5ZMACZAACZAACZAACZAACZBAOSSQnJSMBx96CGf3OxurVq9xaTtlZmTi3ffeRcf2HfHUlKfMnanQR4VI7klDuWdmZGHSE08iPTVdBD4i8bFkQzY5lp2FK668Aj169DCn6bYKjlOSU8y2zc8H6Wl6nmy6jVy9xBmyl5yvafPGTUhOTkJqSprZTk/PMMItPZ4h69b1fH18zXEtS+ulWlAqBDOCMj3irJcjEz9JgARKi0ARjG5LqwqnuVx53rik4qf50rwcCZAACZAACZAACZAACZAACZQXAiqX8fX1RaXISHz99deoV68uIiIikZiYiK1btyIrJws2HxuyM2Up/pxUK2r16tUIDApEp06dRMADbNy4EZ9++gmqVInGlVdcicysTOz+d5doLgUjWzSaunXpKoInm0HiJ9dSzSvVssq2Z6Ntu7YICArApo2bESDmejFVY+Af6I/t27fBz98fNWvXlMFdjsiVvOHt7Y39e/fL9Tbg0KHDaNO2LSpXjkJWZjb8Je++/fuwYcMGhAQHo3atWoitWd3xNajcjAIoBwt+ksBpIOAmTz4NVysDl1DnlKLkKUJ4h+TcSNV1taz9lQFWrAIJVEgCzqZv7q2stXvWp+w9i/mdFP470UbFTnyFfGzypkiABDyXQEJ8PGwi3OnW7SzEy7oKn1Tok5CQgMCAQLRr085M8KsA6rXpr6FT547YtHkzHp3wKK677jqER4Rh/fp1RmClGk1L/1iKCXLsf5degoHnDcTL017GpcOHyb4J4tMpBZ/On2+EV7Nnz0bvnr0wTY6rttKM117D8889bwRQaaJR9e777+ONN990fTFeUkf/AD+MGXMLRo8Zg3Vyzd59eovg7Btjprfsz6Vo27YN/t25Ex99/BEmPfkk1q1Z5zqfKyRAAqePgMdpQqm6pQqiDh0+jCWLlxh1z9OHu4ArOTvvOtuQmpoqffkc+EiIUl06/xdQAA+TAAmcjIDKnlUVWztQwTL7Rq3Ik9HiMRIoGgFtU5nZmWZWW/2G2Hw8rotRNGDMTQIkQALlgEBYeDh27d6FBx98EDNnzkRKSooxg5v28jQ0bdIUNWvWNOZsqrkUU60afvrpZ9GWqo9BgwbJ33n4+quv0bfv2YiOjsZll12GqKgovPfB+6geWx1ffvEloqKj0LlTF1SvUV2ERUF4bcarePHFFzF06FD07t0bf634C7t370FGppjYibmfmtcFiCZUlrxn1C+UptSMNAQHBSHhWALq12+AV16ZLu8gX1PX77//DpdfPhyLflyEyEqVcP2N1xuh1oIFP6B5q+ZIExO+gICAcvBNsIokUHEIeFwPUYU6qo45avQohIeGISXVYW9cVr5SVVlVVdPMzEyEhoVCZx/EH6AkTi+Xle+I9SifBCzHmOKFEjZR+VYV7qREh5PM8nlHrDUJlC0CMdViTIVCRBhlQmwX9bWlWmfuqajnu5/LdRIgARIggRIhoGMnFSAFBgYiXARS33//PSpHVRahTzBat26Dzz77zJjjhUeEi0CqBq65+hr4iFZUakoqtu/YLuOaQBEYZRpBVbo4Bs8Ssz2dFLx55M0ICg4ydVQTPNV2SohPRKOGjYwmlPqFGnDOAAy+aLDJc/RoHCIjIlzWLPrKMBP1zrvUa4aFhYmpYASuHHGl8fl0YP8BVBPBmKYLL7oQb78zD61athKNqHYYN26sCLQyjakfh1lOiFyQwGki4HFCKH1YJScn49dffkVMTFUEi01wWUsqja8UWQnTp7+Kiy6+sKxVj/UhgfJLQAS6f0r0lOtvuA7fffOtzL5FizaUkfK6+h+5x8Hl92ZZcxI4vQTUR4eauh86eAipEiY7MNgZpai41bAaI4VRxSXI80iABEjglAkcjTsKjSqXEJ+AwYMH44MPPsSOnTvw25Lf8IBoR+kkn5+fHw7uP4jbb78DtWrXwgcffoC9u/agRauW8FaJk86yy39dV7coaud96PAh+Pv6I1kmBP1l7KP+n9S5+NGjR3FY3iO1atSUiHrJEh1PJg/F55QKoMyEovOdoBOKqh2lyc/HD4fFB9Tyv5bj/gfvx5uvv2k0qaa/Oh3r1q3HkcNH0LxFc6xeuQqr16w2Zn2DLxyM35f8jqrqY0rM+PJMfP/kiYU7SeBUCXicECpL1DbVaZ3aNDdv0cxERThViCV5vpHoy7M6OSXZaETRXKgk6bIsEoDMugXi4KGDMvMVKNpQEiVFOxjWYDc3IHY+chPhNgkUSCAkJMQ4pC0wo3sGtkF3GlwnARIggTJDoJIIf9QErkaNGqjfoD5uuWWMsdhQTSYV3iSJ4ChbtJhUILRu3d94/LFPTTS72XPmmHfB0qVL0bhJY0RERmDLP1twXsPzzIRFw4YN4e3rjSBbsGhNpZgJ+PCwCFPWlq3/oHnz5ti0aRNWrVopvqWuF99S4VDNpkwRiP3999/4+puv0f2s7oZTllxfx3hr16w12//73/8QdywO8+bNM+O+vfv2YvOWLahRvTo6dOyA5194Hg0aNECcaFep0Czf5P5uYp8wX0w8QAJFJeBxQiiVxBu/UO4PlaJSOw35jeN0edip/6piJz2VD8xi4+OJFY+A1Ry8JayvmYjTW3S2E3uW3eEjzj1cA9tQxfsR8I5KnYC+Y/XfKb2/rFqyDVokuCQBEiCBM0LAW7SQ1Gxu85bNaNi4IcaLGdsr06fjrrvuNPWJjY01mlChoaG44PwL8MKLL6ClmLyp6d7g8wdj6bKlGCJCofPPPx8LF/6I2GqxCBCXCO4pLDzM+OsNCgnEVVeNwLfffou//vrLjGOqVq1qTOZatmhpouxNe+UVtBABlfqiipZoe5rsEqEvXMqIiemAjh074b7770f16rG4++578dpr0/Hbb78ZYdRnn81HUlKSeT+pAEt9WDGRAAmcfgIeJ4TSQajpHluj0ZMwP55F16Q77T44tc5zHBKTHslhHXfuMwIg7UA7k8ljbRRn6SxftaO8vN0KditLVVbV0Fo1X3Vwrdqveed0O4mrJODpBKSRpGemwyvTy+EbQHlY7di9AVn7rOOezo33TwInI5C77Zwsrxz7+KOP0aFDR9Suc5JZ6QLK4GESIAESIIGSJaCmbjfecKPRgtKSb7zpJrRv3wF1atcxF7r6qqtRp04do6mkwqmlv/+OTHEarhpHan2ybds2iaIXgEmPT8JPP/8sTsUDcdvtt+PAgX3mfJ2wuPXWWxEeFm62z+k/AD169MBvi3+T90FtVImuItpPmRh2+TA0bdbUROVr0ayF0cxSM0D1JfX6zNdRs3oNVKocZRyhL1q0CO3btUU1EZD16dPLBMxQP1aqCb9y5Ur4ePugQ6eOUrZDiGUuzA8SIIHTRsDjhFBGKiMDyRyVCGly7yQ79jg+Zf/xQ461oZcMxU4J66lqm36+fkaS/+BDD0kEOxtCwkLw/XcLMHXq0/joo0/EqXiI8Yux4IeFWPLbYkx7ZZpDSOW8rPulCrt+2dDL0KZtG5Hu32dCio4ZOwZR8rDVWedzzzkXXbp0QcvWLU1xieLYLzQ81CGMKuwFmI8EKjiB4236+I0mJiRi+7bt6NW7l3SIDpgoKYlJiWZ2TaOsaCMKkyAB2eJI0+bngw3rNqBp86aOB4QKpZhIgAT+Q8BMgFjvu7wa3n/OAN544w18JVGU3pz1xvGjJ2tjhSz3eGEVaO1kXCrQbZ6xW/Hk39YZg84Ll1UCajLXu29vV/V8/XzRuWtn1/Y5A89xrWvUul59e7u2dUXHLlbqP6CftYomTRs71qW9nXPu8TK0rxXqF4pzzzvXlddaad2mtbWKyMqRrvXrb7jeMXkoe9S37tBLL3Eck2dloLhfsFKtWrWOm99Zz1Fd5tfmrTxWAVySAAmUCAFLd6dECisPhTi0oORTtIlOmvSwdKA1X3pqOg4dOIR9+/aZiAttW7c1kRUOHDyIdiJlnz17linqwIH92LVrt6vYN2fNwvPPP4trr73W7NMBrRZbwJVd5+deiU+Ix8EDB53RJraJWuwmdJCZiCaNm+CXX38RVdchuOG6G7BeHPCpACozIyt3EdwmARKwCMjTL1OiomgUyoaNGmLv7r0mYos6x9TwwapVGBYRZqLBaOdEO0XPPP0MlixZYpXAJQmQQD4E8uvP55Pd7LZ528ykzsny8BgJkAAJkEAFI1CcF0ZuBLkHV+4DLmvdymNtu5dhHXPfx3USIIFSI+CBmlCqBaV/hXjayENRVUQ14o9Pqg8SExMxaND5GD92LLJFk0oHr/fdex8+nT8fo0fdgri4OKSlpcEmmhNjbxmLn3/5GdOmvYxmYresA1r/AH9zcb2y8flUxK81PS0dGtpUJfo2CZeaJtv33n+vUVH1lnpu+ecfiVLxgAjFZuPJSU/A7oz65ZJ6qcixELddxGoxOwmUTwIiZPYVx+QqZD4oAuWHHnwIM1+fiScmTTKzZOrjQM2D9otw+aMPPsIXX34hfgVeQ7169cwsmzq9DAgMKJ/3zlqTQCkT0AkfV8pxmoi7duS9YiaJnIfMRJEUkdeEkTFH10GLlFvYl5q+y/W/KU9PK0SyfDOecC8nOe+UriF9Etd9neQaPEQCJEACJFBKBNxeW6V0BRZLAiTgJOBxmlBF+ua1o+rsrPr7+UvUhSwEiQAoKDTYCKC0rCyxeVbTvMNHD6NRw0bYv3cfnpw8GYvFBE8HsE2bNjWd3szMTJOvSNfPlVk7wjaxrdbk4+ODdIlUoUnVYlVLo0mzJrjooouxfft2HD12zBzjBwmQQP4EjHBYhMxxccfwyaefiI8AG7759huMHn0L1Ezv/AsuQEhwCMbdOg7tO7Q3jje7du0m/gX6wD+XU838r8IjJOB5BLxtMjUivgsdf3L/1vs0v6UTkXFWq8Inmbixiyayjgn+8yf77XI8R/yA6EFd/2+mE0+0y8RRtgQf0GQcp/+n0BPza3maX887LdfQy8t9mfvQSjKRAAmQAAmQAAmQQAUl4HmaUKfwRfqI9tE333yDhPgEY5ang9Bnpj6D9999H2GhYabk1Iw0vDz9FVQWcx6N2KDhSDWsaXE0n3JXVZW3su3Zjt1GOKa96BOTOv7LEt812SIw81bn5f/NcuIJ3CIBTyUg8lwd9HnZTGNyaEdKdIGM9HRcfPHFuGjIRYbMjwsX4qOPP8Jzzz6HSpUqoX79+oitEesYMHoqO943CRRAQAVDRXnvaWAPHx9fI6w6cuSI+GGTd6rKZPLRWjZaQ1oH5yvRejXmVy3VFtb/WVlSqKPJ55fVsV+y6Ts0R8rPdr5IS/Uacp/mnS0yLy84Jpu8VJBn1dVanrzWPEoCJEACJEACJEACZZ4AhVBF+Iq0D7hr9y7EHYvDnj17JAxoDFavXC1hQltAnfapz6iYqtXwwQfvY/KTkzFmzBjjQyZaojqogyntNGt/2iufTnVBVdE5YY0yYSUz+2ttOJdqgqcdWe38m9leOceYCOTKx00S8HgCOthzCqDMYFO2vWVbm2dwcLALT4sWLTD1uanGdE+jswRKVBdNRRlguwrjCgl4CIENG9Zj06ZNhb7bwIBACfyxQ7SPsrB06TKkpKQUeK4KaCrS+021rvT5YwVOCQ4MxsBBA+W5pBJzwUFBVIG/CWYgARIgARIgARIo+wQohCroO5KBqU5KJiQmIEEiZg2/bDgeevgh4wsmIy3DmMJZg9GgoCAxH8hG2zZtMXPGDFx97TUYN24cXn/jDYSJo3DtRGqnWcVCxUkancu6lna8deZ4/779iKkW4yhOyv/2u+/EqXJlVI2pCnWE7phZpiCqOLx5TsUnYLUnm5dNGqY0dh0Ayj+jkSC3r5pS27ZvQ2RkJXMsLDzM5WtNB8s2MYtlIgES+C+Br7/+GrPenGUEJ9rOrLZmLXOf4S0vtD1792D7jh04Fn/M+GDU9mdNpuTOr9tGAFW812lexZ3hfdo5yDH+JjXirmqCaVjzrf9sRUBQwAlam2e4orw8CZAACZAACZAACZwSAY6gToZPBqQqgIo7Gme0njTkZ0hoCHzFLE+Tr6+voxNstkQgJA6M/fz8jAPy2LDqePjhR3DbrbdKhLznMHToUOMfSge5xe0zW06Q1VeGZaIQVSnKhJRfL7POd95xp3GGvvT3pcbZskb20gh/TCRAAvkQcDZG1TRQU1rVVlTfb3v37DUyKd2uU7uO+IdKMA03tlos1qxZjUYSTc+EHNZnBBMJkMB/CNx111246+67/rP/ZDt69+qNLp27YPJTk0+WzSOOffThx7hb+GWKsFvDH+gElwYkYSIBEiABEiABEiCB8k6APZpCfIMqfEpOSjKD0Wox1YwTcCNMctgCOEqQwage6927D+Lj41G5cmV0734WJk+ZjPff/8AV5l3PK26qVq2aMRNSTY2IiEiomVCLli2Mzyk1DRzyvyF49bVX0ahxI8clKIAqLmqe52EEVPDUtnVb4wi5caMmaN6smdFKUMmTCnzNtjB56umnjLPyn376CV99+RXCI8I9jBRvlwQKR8DudAKuJq8u7acCZmBU+0ffn4cPHUZoiGgPnyyZsowu1MlylatjPmZiS546wiwyIgJHjx51TTipk3bR12QiARIgARIgARIggXJPgEKoQnyFgRIRT9PrM2YakzzXKe4dallXZ8Zt27ZFpQgx3ZFt7Xj37NnT+IxSU71TTU9NngI/cYauWhvNmzXFhx9+aLSysmSGVMvXKH2hYaFGC8pfIn5lZmUaba1TEXydap15PgmUBwJVq1SV6HifIiMjHS88/zySU5Id/qJEaHzliBHo0LGDuY3o6Gh8IlEvVTAVHikCqFMQKpcHLqwjCRSXgMSvM+0jJ1uj5DlNwvW9mJ8usGgdZ0u0u2zxaxglgT3yzWdVyHr/Wktrf3le6vPEuh9ZOiJw8iFzql9poH8gVvy1AiEhoskugj4ThfBUCy2B883XLd+zl5iiqh8wY34qLxXrt+8S3pbAtVgECVRYAtqG9MEp/x3JakHWNoyPQW37Glnc5JPGpxP6xtybj9jjoLhGAkUgoO+oxMREVIqMLMJZx7NSCHWcRd5rppfgOBRbozpi885lOtu+fr5oKGY6JjkfamqeFxMbIyGkT10tKbZ6dUfZUlSQOE6u5eY82VUtua7puEoeX400xIerCw1XSCA/AlViNHiAI8UEOn2s6aZ0avwD/NC6TWtzUM3zatSq4cjITxIggXwJeHnbjmtA5ZvrxAOqXKyRXc3gu6B3lx53DTpOLKdCbMn9ZWRkVIhbOdM3kZqeiufELcKECRPEj5/6/zvTNXK7vvyGNapxpvj81MAzyanJMrkofTcmEiCBgglI+9H3hf55q29PSeov110MpW1KU2Xxl5sgrhVs3jr0lWkSmfAwwSDExQkTCZBA0QmoZCNSLEKOxsWZtuSdYxpfod+xFEIVhnnu51Pu7YLKkPwmuk1B+dyPW9fQTrbV0dZ91n73vFwnARIgARIggTJEQAVKOhgoSrKJ4KrIqYK+EyvobRX56y2pEz788COc3a9vSRVXouWsXbMOV1w+HEuXLUOgOKFnIgESKFkCEeER+OXnX9C0edOSLZilkYCHE7jkkkvEfUKwTCBmm4mUouAoYhexKEUz7wkELAGSJVTKvTwhs8iaxNxH/04QQGkeSyCVKz83SYAEzgCB3O24NLbPwG3xkiRQIgSs915hlnLB6CrRaNRQfBpqO9LeSUHtqUQqyUI8gUBaWirSUtMdpnj6eyxsyv3bdTtPA6qWRPITLfqUlBTR0PA27hRMmVK2RkRmIgESODUC2o5SU1IRJb56S8Iq5dRqw7NJoGIRiDt6DMnJKVBrMCO3KML7lZpQZeG3oB3tgr40zaOpoHyOXPwkARIgARIggXJF4IlJT0D9rrlSYd6NrsxcIYH8Cai5jp+4KDBze1Z/Kq/szj6WdqbV/PpkE3+Wpp9GLFYhkmq8B/gHFHhe7ss6fuY5SE9PR1BgILIzskwAHIfZkORWYVdxp4zZZ8yNm9sVjUBe7dn63csyW4I6qI/crMwMh6aGHnM/x8qrXByN8URCee07MQe3SMAzCUjbCA4OcrhQkPeUeWe6t6cCqBT3tVZAsTx8qgS0A2TX3hITCZAACZAACVRkAs4Bgfpm08hwTCRQ8gQK+bvSbPJnOtNaCelYn6DxJN0ye6Y40Nc/ERaphoX67goODRZTukAZ7GYhLS3dMWFYxC6cZveyiS81EWZp2ZkZmWap5Vvrem2djDyhTlpPJhIggTwJGKf/ptHIYWf7fn3G69i3e6+jnepZzv0qUDbrbiWZfW7bXCUBEshFQNtPMRI1oYoBjaeQAAmQAAmQAAmUEAEz+s6nLO3c6HEmEjgFAt7qpKywSX5v+/btw5w5c5AiZgZZ4usiOSkJ4RERuPKKK9CgYQPYRFD03rwP0LJlSzRv2dyU/NOPi7D4t99w5ZUjUKd27f8MZgtzeW8jhPXC1q3bsOT331GnTh306NUDX335FRZJ+RGREVKXZBMEp3Wr1mjZqpVETXZzZH6ytlSYCjAPCVQEAlZzt5bOezompkMRlSJMoIKmTZuiWo1YI+BVUyJN2tZ9vRxD47S0NBw+fBg1ajqD0biXxXeSkygXJKCvOmkcqtZUxHZBTSj+ekiABEiABEiABM4sAe285NWByWvfma0pr17BCagmenZWNj755BNUqVLFmIhmiClPpmgkPf/CC9i1a5chsGLVCuzZt8cIm3bu+BdTnnramNRVj42Vn3Ixf7hqeifJJqHkX3nlFezfv9+0i7/++guJIgjrftZZqN+gvgiptuLZZ5/Fyy9PQ2JCkuMkfpIACZxIIFczVAGUJhXqdpO2pEm1Ga2UKma1RhNKRsdLfl+CYcOHme3UVGceLS9Xmda5XJKARxMoRrugJpRH/2J48yRAAiRAAiRQRgkUo1NTRu+E1SpHBNT8xsfXx/i50Mg/MbExpvYJxxIw/tbxWCZR7GrXqY0sMb1TrwmbN23BmDG3oEP7Drjn7nvg6+ummVTc+3ZqXagwK0d82mjkobZt26JX797o1u0s+AX4YcP6jRg58ibZ7oZ27dqLY1hnl17bjbvWRnHrwPNIoIIRUHNWb19vXHHlFXh0wqOiReiPESOuxOeffY6RN9+MjRs3YOXKldizew8eeeQR/LbkN1w94mpMnToV3uIEzj/Qn0KoCvab4O2cOQLUhDpz7HllEiABEiABEiABdwI6gLb+3PdznQROEwEdpIaHh2Pnzp2ukNOHDh5GUmKi8f/kLwNXFVSFhISIVtS/mD79FWO298TkJxAYGOCo5SkLgVxSKNjt2UbYpU7LMzMzRUDmC41IVL16rJj91cGRI0dEc8sZSU9PO+VrnybQvAwJlDYB0xaON4iExARzxb/XrjVCZl8RNsfHx+PNWbMwW/5uu+02XH755ahVuxYuHXopqlSugjlz5yBYQtBTAFXaXxbL9zQC1ITytG+c90sCJEACJEACJEACJJAvgcTEJDRr2gwvvvgiQkNDTXSthPgE0XLyQ69evYwD/R3bd+CDDz40mk8d2rdHvGhKqaBIfIuXuCBIh9Fp6WmweYvT8uwshIkAzCaaT6qNpfUKCHIKv1SAq+n4uNuxzU8SqKgEivCbV+GypqTkZGkjXmLKmoj4hHi88OLzRuPw1vG3YtLjk+Br8xGTWJsJNqD5/X1FA0qT1a6sazr28pMESKAYBKgJVQxoZ/QUfQA6/4zPAeuB6KyUe0Q9e17hU6xzVYc817ln9L54cRIobwScvjtMtbVD4v5X3u6F9SUBEiABEnARyEhPNyZ5usPP3w+1atVC9+7dMWXyZAQEBCAjLUPM3/xw3bXXYuaMGfj7778xQcx3MjNFI+kU+laWLyn1S5U7qfNXL/H+qk7WVQB16MAhIxzLnY/bJEACeROwWpW0IkcGaUuaNPqkXUxeU8UZua+PL7LsGoVSWqOzHVrnOU7iJwmQQEkQoCZUSVAsxTLsovLtiJYiF9GnoFOIpJfMycqBl6+Xkd576YNU/qszTW9xaKlJfQioWrmepx0brxxHHnPQ+UTVB6yGIs7zOnzqGlT88CACVhvL65ZV6OQutpf1dX+vQ1xcHLr36O46w7QlaVOmrZ6sPNcZXCEBEiABEigrBLJFkFSjVg2sWb0ac2bNRjUxe0sSzagE0ZhQrSj/AH+jfVS5cmX07NUTXbp2wUvTpmHIkIuNz6aLLr6w+Lfi7HfJG8R0+fQ9YiYXpY+nSy+NnpfteBEdiz9mzACtyF7FvyjPJAHPIGBFybQm6c0YSBuZtDtvUWHUdqf9vByZxLeLLzZv0Tx0pNwdQOduLkiABIpNwGpdxS6gPJ5oHjLlpOJpGqlBU67BbHaGOMR0HDGdEn2QxsUdM2raqqptHqLyADWzcvItq6DJ8XR1SPxVhVtn8vS4zgDog1nLtK4TdzTOld95GS5IoOITcD4cDh085LhXaWQqaNJk+dz4d+e/ZlvbzxUSrnvx4sVmOzE+EWmpaeIrxOG/48jhIy5BlObVFB8Xb5bqHJOJBEiABPIjUJ76KfndQ5nbr32hwlRKnvuHDx1GTEyMaBo5NJsCRfsptkZ1BAUFQZ/fYWFh8rxPNeZw+tzv0rkz7rv3PowdMwYH9h80PqPMpbSjZv0V5trOPJlZmeZaGiZehUwpYj4UIL6o/vj9DyxbvgyPPfoYmjRpIn6hqqN//wHHS9YbLNRNHj+FayTgMQScbaNydGXjE0qjX+okva+/I5hAaloqtM2liyZkzVo1sW/vPqxdLf6jXMIojyHFGyWBUifgeZpQ8gCSAAcuFctSJ1zcC5gHpc56qXMByAxcgnGIqQ9OTUeOHhVb5SCE+oaIECnLREXxFkHTnl27UUuituhZKpjyE5VtdaB56PBhI2hS9XF/+VNBVXa23QinQsPE30F6JjQEqaqh7pWQw6HSwUpPS4c64GQigYpEwEsfAJpUMOuW1DdAhoTgtnnb4OPUJty4cRPOPruvREzZjNDgYBwTIVJERAQ0SlKA+P749NNPERkRaUrRcUaAOKU9sO+AGbjExlQz+3VWXSMZJUkYbZ3JtgRSfuJbhIkESIAE8iKg2s36j6nkCBimqjVeQFJt8qDAILRo2RJVY6qa3N7iHwZqoSNbRhtJlg0aNEDlqMrmua8HrrvuWmzatAmvvfYqxo0bh4hIRzj4Ai5nDptvW6pmJgxlj/a9OnbsIEKmGmaCsKXUZdor08QXVJhobHija5eueOutt9C3dx+EiXYWEwmQQMEEjOaTPAPq129g+nKJMrbq1aOXOVHbnnTRMFQckkdGRuKss86S9aGYM2cO7rv/PgQGBCIoJMjxECj4UsxBAh5BwLy7VEirL0cdXumykMnzhFAGjJqwFVITwYJaSKAmWxG+gPyLdXRAfbTjI+UlyQD50ccmYvD5g5GYlIjnX3jePCAfn/i4+CvwxR9L/sAjjz6C4KBgZMmg9+FHHpaQve3w1edfYcXKFZg79y20btMGyUnJePTRR7FmzRpMe/llDOjfH09OftIIrLZt346XX56GqKgofPHlF3jpxZfQVwbgKsSyOl3519d5pETuvcCrMAMJFJuAav05OiLOIvQ3K51/dUC7Y8cOEdz6YcuWLXjppZfw/vvv4cDBg7j55pG48cYbZfsD6biEY9WqVbjg/Avw5Vdf4oLBgzHqppEmVPa111yL777/DuvWrUO/s/thxFUjjJBq6eIlGD1mNHr36o1mzZpjxozXsPyv5Y6HdcFjomLfK08kgTNKoKi/bb4/jn9dKixRfk4m+sxiKj4BB7/C/SB1nsJf/EDpO8DPzzERZwkEHSXIp3wdY8ePRWpKmqNSskvDvT/55JMy6XfICIsKXVstVL9v/cJ1IUmjc90k75zYatWN/6euXbviqmuuwm6ZaIyOjpZsXtLXE22p0GDHCfwkARLIk4A13rNLo7Xa8XvvvYcaotmYnp6Bt99+25yn5nd169XBxIkToRP+OmE4ffp0pGekGzNc7RsykQAJ5CIg7y59fZlxlfUCy5Ulv02PE0LpA0htfLPEZMakwvTrCimvckF2diJc2wWtaB2c51gPSJ2x09kuVcPOkQdjumhoLFq0yJT0wP0PoFJUJYy4cgTuuvMu4zxz2PBh4hxzJlq1boVffv4Fo24ehT//+hM+ogk1e85s81Dt0aMnbr11PG67/TZMeuxxvPPOPNx0003YvGkzmjRrIoPwF9CnTx9RK++Ctm3aQh/S0dFV0aRxI4kUIaqqheFQRCloQWh4nARKlIC0M53tcrV/KdyeZceWrVvw4EMPYse2HQgJDcNHH32AtRLCt0ePHubyc+a8JVpS6bj//vsRHhaO22+/XUwg+uGZqc+gS5cuSExOMuG8f/75Z1xzzTVGlXvUqFG45JJLjHbVlVdegQ8/+gg1ZFb7rrvvwoYNG2XwkipRlGzG6W2J3iMLI4EzTMByrlyod4Z7Xfn+cNGwmY5dHp2JwvRZXKVwxUXAPPtdWwWu2CR0u2pDmOTWR3Nt64rsD3SLSqf9Nf0LDRfNJD0n93eVe9sUJu8k7e/Je0m/c/dUv2EDx6ac17BxQ1NejZo1HOVKVh+p43+u4V4A10nAkwjk0750/KTJrsoHzndMLTG10xQo2uvq/02T8b8rZTRytjVtXxqUIMQrxBzPs007jvCTBDyWgE7sq1zFKKvk0wbzg+NxQigFoS98i5O1zA+QyX+yg6V4zGU2JJXUgXOAf4CEBu5jorSo2LF23TpYsmSJmNf5o0OHDqjfoL5RHe/UuROSU1Pw848/STaH2na/fv3lWBW0EW2og6LZ0bFjR2SIr4NgMTFSrY8dO3fgkPhA8JdrbBdtEPVHsFdsobdv24oWzZshNSnVFaq0FG+ZRZNAqRMw7V86I9463e1MGra3VYtWePe9dzHovEHSznqjSdPG2Lh+ozHL8BdzOh0k6L+BAweif79+xmmltExTggYEUL8gvXr3RstWLXFQohbFHzuGbdu3ISI8wph1qOmG+mJTbamFCxcajUVzsj6EThx7OGvFBQmUPwLu7ar81b7s1NjyQWL1Uaxl2alhOatJUQGeLL/16tA87vnc14uAx3Ti3d5H5tTcZVnb1lIy6buMiQRI4OQE7HaH0oFO6OeZcu92bpv2pU0s9/E8C+FOEvBQAtJGtN+n/qV1EqYo7cV6lXoOOX2gyJ+lnmkMgFXNPZ+/M6UCr9W0vklVEdV6qMO89u3aGkl+cHCQMb3btHmTyalCqdhqsWa9Vq3aJtToRjmmatutWrUy5+tBtWlWXzRBIcHwl6X6vqlUqZKRYm7atBG7/v1XHF/+DnXM3LhRI2j0F5VuBoYEOq7DTxIo5wS0Y+FoX44b0QiSasY6depU44Ry9C2jMWrUzdgk/qBUGKvhuE2Sx0SQtDv90/DY6shSBw+a1H+HRluJqVrVaC7q8yU5JRnRlaPxz9atqFmzlrQxG0KCQ1Atthp8pe2ZenAQYfjxowIRYIf91L9MZWieDfp8cQA1fRFdtf7cH2KnfsUKX4KDYgndpvUdlFBxWowWaSYeC1u25KMQqgS/ABZFArkImPal7ZGJBEggXwJmel77K8VoKx6oCeXQZnCZC+SL9QwfcOtgqhRfnYSrrycdEKu0MUWi5qnTcR08V6teTZwmh7jMerZs3oz4+AQ0athItJ4OGBXUENF4UgfJ2VKWOiLPFhOkhKQEMQfyQb26dbF02TJT7gWDLxBV1Ebm5jVCnmpK7dyxE7XF2TkTCVQEAqI06roNS3IfIo5d+4gWU78B/Uw78RFp/vfffY/27dvjaNxRpInfjwAxu1Chra+vI4qKzqrFx8eb9qXOzFWbSgXFOli0i7lvjRo1sXv3bjRv3hxPP/UUEiVvbM3qWLbsTxPqW5/ZRhymD+7jVXLVjSskQAKeS0AfCXwslOT3X4wecklevjBled60cGGoMA8JkAAJkEBZJXAKnRW+8srql2rVS/pNagakwqfAoECj2aTqbpli4+zlZTNR81qLplNiYgJuu+12/Lb4N8yfPx+1a9VCW9GaChbh1AERRAVKpBf1cZAhTvjUfE/Dj2rUF12uWLESFw25CN26dRO/UC9hzeo1GHnTzRg2bBh2STh6lwCKPWLrW+GyghDQtpSemo6NGzagd98+JhTvMREWNW3SFCEhIYipVk18pHXF2/Pexsq/VuLIkaOuaHgaMju6SrTRgsoQjal9+/Y5tArFl1tVOW+nmLVWEif/VSUEsI4mv1uwAO+/976Yv242moc2EWj5SDRKjjQryI+Jt0ECJEACJEACJEACJEACJFAgAQqhCkR0ZjOoIz1x+WUi1qmfmgQJJ6opTLQuOolfp7YSAU/NfB548EF0l3CiTz/9jNF0mvv2XDM4rle3jjhX7immQg6fNeo3qmGjhhJS2F/CzR8zvqSatWiGA/sP4IknnkC7tm2hjs9Vk+Ouu+5G/UYNjBZISlJKsVTtTGX5QQJlmICa0oWHheGqq67CKxIJ5e6778G999yLwRL1rm6dOrjnnnvw2fzPsEOESj16dBfBksNZbXBoCLp3727CcIfK+oABA4y2okZUOXToIAaedx7CpNzwiAjMe3sejhw+jOTkFMl3Dpo0aWKiLtlEYEUhVBn+cbBqJEACJEACJEACJEACJEACJUrAA83xSpRfqRemvmWMLxnRynhMw4ZWqWyuWTmqMsaOG2ucHqvPpjat24gD8RY459xzxVzIx2hOZYjZXlXxUTOgf38RY3nBR5yOX3zhRcbvgDpIVlO+e2WArdEhVNDl7eONKySK1/8u+Z/JExDgCE2sXu/VFKnIkY5KnQ4vQAKnSEAjPoocSM3krr76aowYMcIIktS8zvKDNvj8C9BLBLlhYsbaTxySa+SjnGwJ9SvtbsrkKUboq5EsJz0+ybWu7e65Z59DhAigjomD8m++/VacnfdCx84d8dSUpzF06KUOf1KcBjjFL5CnkwAJkAAJkAAJkAAJkAAJlCcCFEKV8W/LSwbDmjQ6XpSY9thl8KvOkNWnlQqiNOmAWJP6qwkVYZVJsstPfddIXvXr5NiXIyZ9QWZVnZ2rmZ+eYyX1caNOy/XPJKf5ndHW0ME6EwkiD6wtAABAAElEQVRUNALO37jelobiNSmXD351XB5Z2aH9FOonobclqQBKkyUU1vXwyHBdOJIcjqgUYdZ12axZU/Q7+2xUl1DAGklPBVQq/GIiARIgARIgARIgARIgARIgAU8icFwC4Ul3XY7u1RojW1H6dNuukfwkWcfMRj4fel5e+fLal2cRxieVQxCW53HuJAESOCkBe6Yd/Qf0xz/btomj8l1iitdUhMHOiHsnPZMHSYAESIAESIAESIAEzhgBa8CkQy/nulEIkIl8JhIggeIToBCq+OxOz5km7KE8+RxyJ3PNojz28surmlWFSnJdhgEuFClmIoE8CagmlaZoMaXVP005olnoVVhNKG2qbu3fFMAPEiABEiABEiABEiCB00PAbdikQzMmEiCBUyNQ2GHQqV2FZ5MACZAACbgIFFoA5TqDKyRAAiRAAiSQBwFrooID4zzgcBcJlDwBDd5kJgetCUKrDVqXYlu0SHBJAvkSoBAqXzQ8QAIkQAIkQAIkQAIkQAKnmUARB7HGTYM1ID7NVeXlSKBCEpA26PR+Ym5vy6YteHzi42Zd/ermm7Ttqh9dXRaxHedbJg+QQAUk4HFCKOt54GU9GayHRD5Lkz+fY64HTO7j5fyHYh6t1o3nvreCtk/yXC7nWFh9EiABEiCBQhOQl0VB74vcx/n+KDRdZiwigfLy27LahN6ermvSpdZflhr1eMGCH6CD4PS0dAl0kaU5JKprJrIzs5Am+zRfdpYdmzZtQlpqmuN8LcP5p+eqv1ANRmPt06WWZ7a1QLf8Ba5rfiYSKE8E3H7fGRkZrt/72rXrEHckztUOMjKkTTifHXaJVr5h40Zzl2a/rOkhy2evBoyy8mZnO9qlZjZtVK6XKW2UiQRI4DgBjxNC6cvU+DhyGvSqMOqk/zSfPqw8LDmYeNhN83ZJoCwScHaAymLVWCcSyI+AB74280PB/WWAgBkgutfDjB5lR35L97yned2KeJye6iYUkt56pgig/vlnC269dTy8JUKrf6A/bM4Ix34BfrD5+UgeGVBLSoiPx4wZM7Dsz2Vm2559PMSxCp8yRWBlory6vV+0PJPYeB0c+FkxCcjvOyUpxXVvrsjIsmfqM09jxaoVrueCf4C0CWd7qF69OmbNetOc5+cn+6VNqmsFy2+u+tqNT4g3x22+x10uW+u+fhKxnIkESMBFwPOEUK5br7gr2tmyVEXNjJclmq+4t8w7I4HiEWBnu3jceBYJkAAJkECJE1ABVFp6GuLj4nHTyJHo0L4jBp47EEMuHoLdu3bj3Xfexb79+zD0kqGYM2sONmzYiGox1dCjew80a9oMDz74oNF++ujjj/D23LfxyCOP4KUXXsKcOXMwftx4xB+Lh02CZbzyysu45uprzAB73tx56NypM3r17IXuZ3XHbCmX3cYS/2pZYBkhsHf3Hrz00ktoKpGKLxx8oREiLV+6HC889wK++eYb3HfffXjt1ddw1113mWMXXnAhrrziSixduhQNGzYyd3HuwHPxxsw3MPmJyahdu7ZppwcPHEJ4RDgWLliIPr37oG2btnjx+RcRU7UqFny3oIzcPatBAmWHAIVQZee7KJGamEk9URm152QbVWu7huFiIgESKJiA24xwwZlPksOaWT9JFh4iARIgARIggdwEVKvCz8cXq1auxFtz5+Drr7/C3Llz0aJFC+w/cADXXX897Jl2fPjRhxhx1Qj89ddy0Yy6FT+Iid7UqVOxfsMGbNu6DTfeeCO6duuKiRMnYuz4sTh06BB8bD7w9w8wl4w7GgdfX18xwcvA3+vWoVvXbvjxh4V4/tnnceTwYaSnixYWEwlUQAKxNapj8pQpmDRpEl59ZTp+WrgIP/y4EONvG4+Dhw/illvGYOSokcgW7cHgwGD06dsXL7/8CoKCg6ECLE1Hjx7F7DmzpV02F/PYBdiyeRM+kjapGlbjbh2H8wedj++++x47du7AoYOHRWPRVgFJ8pZI4NQIUAh1avzK1NkOdfMcUdO2wcepom2TdSYSIIECCKjgqKS0orSckiqrgGrzMAmQAAmQQAUiIL1yNasLj4wU7aQueOKJJ0QgtQrnDTwP7du1Q0pKMtT0TlN6egb69umDli1a4vffl2Dnjp3iB2oj/vzzT+OnxubtjZCQUJPXW+yGzGvO6YpCJyhV4OUvZVWtUgUrVq7A3HlvIyExAVddfZUIq8TcyJpQ0SUTCVQgAp06dcA78+Zh1ZrVCAkNxdXym7dSeHiYWVVfUTExMRg9ehQCAwKM37WAIIcQVzNcNmwYzr/gAtSvVw/tO3TAb4t/Q0JCAmrVrI0hQ4agStVo3HDDDYiUtmxZp1jX4JIESMBYtBJDeSBg9QXc62qcSrrtUKl9ljqmTEkTO2UveIvKtfoNsOyVNatVju6z1nWp+XXJRAIeRyD3Dz/3djGBpKakGpOKYp7O00iABEiABDyUQJu2rcU/zTNo3Kgxnn3uOYwbPw7r169HgAiHjvuWycGjj07ERRdfJIPfRNSsVROBgYF5EtM+nknOcF+WM2XdN/KmkXjyiSeNttTYcWNF6+NlM5h2nMBPEqhYBNRZ/zvz3sWg88/Hp5/OxzARJn3z9TfmJn1svi7Bre7Q7qD6jDL+nuKPiRsoRzvS9lOrZk3jdFwjU/r5+YkFih0HDh5AbGw1hIpgS0+Ojq6CMBFq2e3ZjsLMVfhBAiSgBKgJVU5+Bzp55e0UHGmV9cHoPlZWLSgf0XrSB+M/W/8R9c9DJlKKXfwLOPsc5k61HGdXxCx125TkXLqXaU7gBwlUdALy29d28+PCH7F/7/7jDaQo9+3WcFQ4fPjQYWz7ZxvW/v13UUphXhIgARIgAQ8moO+P7AyJrCXvlFatW2HULaPw/vvvYfOWLcYnzeEjR8TpeKIx+wkMCsQBMdH75OOPMfiiwageWx2ZEi3PXcB0vANoXnSufqN7Hj8RbHXr3g03j7zZ+MJRX1Lbtm334G+Bt16RCSQnJyMqOgrXXHMNZsx8DZ27dMasObOQkZ4JX7EiUa2n3EkFvympqTpj7zqUIZqINjFx1ZSUlCTrNrRo3hKrVq3Cnj1itidNbr30AXfs2GHyuAZfji1+koDHEzjuvt/jUZRtACpIskvITy95AHqJhlOmPCxVbmQT3wG6suDbBejYoSMiIiPw1VdfoX///ggPC4ePyBlzRDrvLerduVOG+ALQyA9eOVqSCLlEdVujr1jRVnLn5zYJVFQCK/5aYZy/poj2kjqGNVGD3G72yKEjptPi2iWu1jIyM8wMme5LS0sTIbG0TZHqamclJDgEjXs3weeffeY6hSskQAIkQAIkcDIC+g45JpHt3pr7Fn7+6WdceumlxpwnqlIlVBGzucpRUeh2Vje8Mv0V41Q5qnIUponm0iGZ+Pj5l1+MPyk9dna/fmjUqLH4rZljtKPat2uLX375WYRMr6JFyxZY9OMiNGnSBEkJSbhlzC3iXLkOOohJkUbfay7+p6pUrly8CZmT3RyPkUAZILBH/Dqpv7Trr7seNUWbKapSFMLCwowAatTo0Zj3zjyEhoWKSaqf0XSyqhwg/tRSUpPNpprqpaRIhD2RSWmfL1j8RSWKNqK3aBw2bNgQr7/xOnr06IHly/8Swa+4SVFzWOk3Oib+rRK5JAHPJnBcpOvZHMr83euDK1mk8Lv37MamjZsdYXhlZ0pSMjZv2oyZr8/Ejz8tMs7yRt48ErXr1MHRuKMSZSXd+BfIFjM9TWtWrxFHlOki0BKplvzft3uvUcHWYzozZhen5kwk4GkEdAYrOCQYyclJ4lvjd+zcvvM4AmknOmu2XWaGN23cZLQMteMhhq7GQaxmjI9PEDXsg8gWlWsVSGk7Cg4OMp2P4wVxjQRIgARIgATyJ6ATjvq+GXXzKHE8fhX+WPqHODj+zkTz6ty5M+o3bIBHH5mADJkw3LZ9O8aPH2+ciq9ZuxYXXnihcWJ+iUTOi4uLw6WXXYbatWoZx+M9e/XCzVLmho0bzPtplPi56dCxA0LCQnDHHXca3zfz538KNSOf/OSTUOfNTCRQEQm0atMKr0tkOzVhXbhwIVq2ailmrY8iXQRLGhmvQYOGIozdilatWmHI//7nQhBbvTqGXTbMbA++YDDq1a/nOtalcxcMPG+gMdt7+eXpRgCl2lCXiRBZo1dmZGbKuIvjKxcwrpCAEPivegyxlCkCKnzKFoGRhtRd/OuvuHLEleYh+Psfv+O2224zDiRnz54NDcebkBBvIjVMfnKycbK3SYRTGpnhTulgaKfGhPy96SYTLaV1q9YYfvlwGXQn499//8VN4hPgbglHqtJ8tW9mIgFPIqD2/nHH4jD00kvE50Ygli5bimnTppkIJ3ps5owZmPLUU6gjwt1u3brh8ssvRy3p3GsAgNHXjsZvS5bIzHE0zht0HsaNHWe0CXVGm0JdT/oV8V5JgARI4NQIqLWPmuOplvr/LhmCQfJO0QlCNb2zUpduXdCseXPxNRNqtNfVbC81KRXePt5iUpSBjp07yv4s0dDwMe+s7Oxs8Q/qje5nnSUD5XON31B1sKx5NbVq2VKEUFUxWkz/rKQDZj2HiQQqIoE2rVujZ68eRuiqFiYakVIn7SMjwnH7HbeZSXpz3zIGU+14TVFRlTB33lzj6mTyU5NNIABzQD4enfio0RxMS00XDfj5iKwUiREjRuBvEQ536tRJLFU6mHGcTv4zkQAJOAhQCFXGfwkpySkICgmChtN99rlnjb3+0MuG4vtvv8fFF11sBFJjx441wiR1LtmoYSPjHC9eJPzDhg9D27ZtjZ2/Oslb9ucyBIitc7OmzcQh3yAMHXop7r77LuzetRv1GzTAJSLxV/VsmuOV8R8Fq1fiBFTu6uPlgztuvxNnn90X69atx7nnnmvCYn82/zPce/+9ZiCgnZFfF/+KC86/ABs3bjTt5mqZrd4gDmN10HDl5VdKJ/88Y4anHZscznyV+HfFAkmABEigIhPQ6Hia1HwnINDpn8YavMqgWAeyKoDSpYmELMvAEIeQSt9Dul9926h/qUhx0WCS7AvVc7RMjfAlS3WmbJKUWaVqFbNPshlXD0YApRtMJFDRCMjvOiwizLQPlyN/2RcUHCjmd9Iw5L8m8/OXzqFxzyD76tara85RGzztC9auU9uR19kmddIxQNpfYxlHjbr5ZnTt2hVrRQilJrXREilPg0a52rPjEvwkAY8mQCFUGf/6VQClfprCw8Mleslk/Ln8Tzw64VEcFNMfHx+bMb/TjoRGe1CBlV1mvPTJKUoYxuxOfUP98ccfuGz4ZZg8eQqGDxtuHoI6gNbBts6EVY6qjHvuuQfvvPMO7rv/fokMEVLGqbB6JFDSBHIQHBqMJk2bymyVD1RdO1xmxI4dOyaaiNloKvs1aZhdte3XtqdtMCcnG1UlhK/p+MvxbjLT/NPPPxlBsAYjytZRBBMJkAAJkAAJFIaAjnx1UKsL59KxYT4dH9Z+WapZuJXflUOPW8dcO50rlnKTtdTdml+T7LNWzfYJG2ZP+fkwEoTyU13W9DQT0HGS/trdfyeyrhHFreRYc8sj3Tk9x9vmPFe7d8ezm76hntuuXTvMfXuuCIArISsrE9WqxRrtKSP8db+edSEuScBDCbi/hjwUQdm+bZW2q9O7vyXCwl133yn2yz+gZ4+eUN8ACcmJSBf1UWNn7HwQqp8ATcZfjQyAm4rW08qVK40j82ViYtRL/AKor4DklGSjpu0f6G9m0BrUr28k9jQfKtu/B9audAio6Vy8mLPWrFHDXODY0WOoV6+eEdImJCZAzVc1qVmsvzinVN8BqjEYJOarviKQslKliEjx1SEmDtLR0L6G6eRYB7kkARIgARIggdwEzMBU3BfLJIdrUGv25c6Yx7bbIDiPo9xFAiSQm4C2rXzaV559tlx588zjdo0AGVe1FBPXmrVqGO0p3faWKHr2TE5KumHiKgnovAdTWSagaqCqrZQpTu1U8+LOO+9En7P7GG2lSBnwrlu/DpXE9jhLHI/7BfjhwKGD8rCzGfO8sNAwcVQ5GGqKpyZ7MVVj0KRZE0SER2DUyFHG2WVKUoqR0H/00UcYLE4t/X2d6tllGQrrRgIlTEDN8fzkt79p0yajXq2aTevFJE8jpmikE3UMqylbOhHH4uNkhtpLZrgkWqU8QndrKF5nWrturfGrlpaeZiISafjsPJPVCSrMMs8CuJMESIAESKCiENAIWqJa6zDvscaqFDAV/+tVduRXfH48M28COmq2flvuvy9rn54lzVj7iEbQ5ezj6aa3TGIykQAJHCdAc7zjLMrumjzEaoiGRtUqVfHww4+IL6dLsG3bNonc0Bo3XH8Dli5disSkJLz44osYP268cYYcFBRkfEnZjtiwddtWzJo9y/iRUtO+6Oho9OnTB5OemIQjR46I0Mobe/ftM+F5fcQUiYkEPI9Ajgh6s/CUOB9vIeGpVbBUXSKhqA+AShISOzb2eUx5cor44QjDN998i8cfn2ScVL4+cyauve461JIwv3HH4vHuu+9i+vRXxclrNaNxqGUwkQAJkAAJkAAJkAAJeDABFUgxkQAJuAhQLOtCUXZXbKLGWUUEUC+//DJ69eyJJBE4qW+nGTNmYPjw4WISFITHH3vMhAHV2TTVfmrUqJG5IR0Mj755tES+uxs95Fw17VOtqr59++K99943fqQCxLxo0Y8/ihPzNvD19z3RD0HZxcKakUCJEVB/as899xwuv+JyY5anZqvfi/ZTUFAwatWuiUWLfjTmeRql6JFHHsbFF19kBFI9e/aAahGqaV6VKtH4ceGP4tD8HDGrsOPaa69F3bp1S6yOLIgESIAESKDiEbAbLShRglJNKCYSIAESIAES8AACVHsp61+y9ElsEnZX1T+btWhm/oyKp2xrembqM9AQ8lGVo/CYCKLUwLJVq1YOdVE57idCpQ6dOqBDxw7mmJ6jgqao6Cjzd2+Tex0qo5Y4Uq5XkL2zlsFEAhWJQEcJodtFIpmoynTf3n1NNBRtV6atyY1Gi4Bp6NChxv+aiRrkbC9qjtehQ3u0F0eUKgDWY3bx46YOKCdIAAFtf0wkQAIkQAIkQAIkQAIkQAIkQAIOAhRClfVfglPYdEI13faZgbJ10BIkuR03h3Q79z7rnJMds/JwSQIVmYAIXn3dzFC9fJyNxZqUtpay21sFwpqc+0z7k/26tIS33k5fAH6idchEAiRAAiTgAQT0tWG9KzzgdnmLJEACJEACJHAqBCyxxamUwXNJgARIwCMJuGtLGQA6CHHKsDwSCG+aBEiABM4UAX3+loQgSMqwZ5l47I7nee5n+smuYQmjcp9zpph46nVL6rfgqfw8/L5Vs13/MZEACZQeAQqhSo8tSyYBEiABEiABEiABEjgNBDKzMqF/OhGQY5cBZDEFQer7LyfHClF3vOK6Pz0tXY45y5by1cemNVbNloip6anpx08oL2v/vdUzVvO0lLR8Q9lrNGfztWh9C5IPFPO7P2M3zgufHgL6u9Hfho5+3f5SU1KRnZ3l/CtDDeL0UOFVSOCMEKAQ6oxg50VJgARIgARIgARIgARKioAGXrFn23Hk8BETIv3z+Z8XrWgdnMqfl80LNj8fJCUkQQen0DGp7heza/9AfyN4OnjgEFKTUk2wFzOYlSw2MevW47qdhwyraHU51dxa58L+laGRgPpTzB3KXqM62zPtJuJzsgTmUSGgXYWMBd2ffp9MJOBOwNnG09MykJmeaZ4Vuh4YEmjar7Zhm6+3w8WC+gVlIgESKDUCZejVU2r3yIJJgARIgARIgARIgAQqAgEZG7prI7nfkgqBNm3ahKuvuQb33ncvFv+6WORHxRtMHos/hl27dmHz5s3YuuUfbNu6DVs2bYFfgB+8ZYC6cfMmc+nsjCwcOngICccSsPWfrUYLy0t716p1Yf25V/Ik6yUSIU+EM1qO9aesLOMiu0jHrG3r+CERqE2cMBFHDh1x1EyFO1a9ZWm0yvSI274T1t2PWee678t9nh7TlGv/mNFjMP/T+Y5jbp9a3xtuugEH9h0w0aD1kH6jVv3dlzShcgPH1bwJyO8uMyPD/H40qFN6WhrWrlmL7Vu3Y8e2Hfh3x79GwGxOtkbJxXuE5H197iUBEjAE6JicPwQSIAESIAESIAESIIGyTcBtIKiCifSUdBOJVCUSKiiZN3cePp3/KTZs3IC6derhxhtvQvce3UXWodKOQiQrm15H1t944w0sWLAANWrUMCfrNe12u0Q+nQBvkTKNHHkT5r09Dw0aNkBISAjGjRuP6tVjMX7seERWjjzxglq2W/1PPOi2JfeRYwMyRDtDo62qdpd7Uo0g1RTKFMGXr2hruZKUf+DAAaxduxadO3WGj6+vifaqAjg/Pz+j2ZEt52oVTPANWdF1LUeFbV98+QVuGjnSVa5Vfo5Ee1XNMINQFtmZWVKWDTnZ2UZbzLr+GhnEL178K0bfMtoI48IiwqDmiRlirhgYFGiyqXaYEc5ZJ+VatmrdCuFh4UaLzMqnAr709HT89NNPWLpsGQZfeIFc2/FFaf2ZSKCoBBISEvDCCy8iLCwU48ePx/K/luOhhx5C7959jDne+nXrpc34ym95DPqe3cc8P4wgW39wjp9eUS/J/CRAAnkQcHuD5XGUu0iABEigohOwOhXWzHVFv1/eHwmQQLkjYKJulrtal0CFLUmD8zmtPpn8fEUTSQQ0dhGEaFr4w4+4+uqrjAlexw4d8cLzL6Jz584ICw8tXgX0WnLdlJQU+Pv5Y8qUp0w5vjabaOIEI6JSBDas34i9e/ciNCzMCHjuvPMuHNi/H5Mef9wc1xNU+FVULSwTgVWu7SPXUpNAHfRuWL8B9erXg3+Av2sMbPmsOnjgIKpUrWLqu3LFSnz55ZeoX78+6tara+qsH4liVhgaFiL13YOatWu69mthW7duRUZGOpKTk+EvXFWwdfjgYSNU2759Gxo1buTI7/we4uKOoXKVyjhyNB4R4eHGIk7PWbNmNebPn2+EUGHhYeYcNW1KiY83Jk/VYmKMuZM54OR7vCKOtcGDB6NK5SouQZWa4R0+fBgREREmQ3BwUO5TuE0CRSYQGBiIBPldGn9u8rvOzspGRnoG7rzzDkRWisSfS5fj8y8+w4irrsT8jz9Fxy6dHKafeiX2E4vMmyeQQH4ELEXD/I5zvycR0I6BJu1sODscZpsfJEACJEACJEACp51AvkIM63192mtUShe0+h25l7kup4IY1cxRf0xqDnfzyFFQ4UWvXr3w5puz8MwzT6P/gH5GAGVpzOQqotCbqu3k7++P2rVrmb/YGtURGhpi/ERVq1ZNzNrsIsT5Bw8/9DDmzJmN5557FlViRIjiJTehZmmnkLxFCPXkpCdRr25dvPTSSyIUCsV7895DUnIiVq1cZbavGnE1hg8bjhuuvwGbN23GO+++i/c/eB9z576NFctXYEC/Afjt19+MACruaBxuvOlGY56o5ndzZs9BddHwGnPLLVghwisV9mhSx+q33nYrevbqieeffx5B/oFYuGChOXbH7Xdi4HkD8cjDE/DAAw+gVp3aWPD996bMiRMnGqHcBDmm/ccP3v8AA88ZiFuk/NZtWuPN2bMc/Urlot9xHr/fJo2aYNKTk8y19F79/P1wx+134CkRAh5RYVS4QxhlMvCDBE6RgDZTTWrOqf7ekhKTzHbHTh3w2OOP4ew+Z+N++Z0zkQAJlA4BakKVDtfyWar2m5yq3tpBUNVz05kqn3fDWpNAgQTUPMAxo+wF7xxnj6TAs5wZrOzamdb1PDrVhS2K+UiABEggNwEdJPn6+ZndXt7e8qzSVeeDplw/b5yiNX1uFvbZKfnUkXDcsWOidbMG74nAZc3faxAVGYUvv/hCBCrVUbduXfiKGZpq/gQFBJxgLmYgFuMjMTHRCHh0kGoTwZCvaAsFiCBMtSfUcflLL76Ezz//HN999x3qi1meSfLdFPfrUXO/LDFj2/Xvv7j/wfuxb88+REdXwc2jbjbCnGOiifT222+jTds2ePqpp4y21ieffmI0ljp0aC/bSbjx+utRrUasqUqYaGqpCV1CfIIx11OzwSRx7j1lyhTMeG0GBp1/HmbOmGny6j3u3bcXPXv2wsSJj0E1j6IqReGtuW+he/fu6N+/H7744nOcdVY3NGjQUPL1NHV55713MGDAAGzauAkTJk7AujXrMG78OHz95ddo16GdaKotxK233ooePXqgSZMmDkZ5fPoG+CIyIhIH9x/E/Q/dj58WLkKjRo2wavVqJCQlipAgUbTfVLuMiQROncBxAX+O0a6MiIw0bSXTmJx6oWXLlvjp559O/UIsgQRIIE8CFELlicVzdxpVcL19ectTAOW5vwNPuXMjgNKZWXcVa/cerq7raMJauoFRsxA11dBzUxKTJXJPsNvRQqxa1ynuaKUQl2AWEiCB8ktABU+BEi1M03H/P9aDo/ze139qXphbkufkgh8W4OOPP8Yvv/yCfmf3w2MiKOnQvgPUubC7ZEJNz0okSb2W/fknzhs0yBQnMhrx+VQDr0x/xQiKEpOTECxCnfMGnYd578xD5y5dRHvH6cOpmJN4OjDWf5u3bDHXnDlzptHGShQhTLiYv6n53bBLh2Hqs1Mx9LJLcc3V14hQqLvJq2aKyUkpqFotxjhKV40xFWhlicBMNbpUQKcmhvpOCxetovbt2pnzVDgUHBSMLDFvrCH3V69ePSwT/0vbtm3F9+ITK6pSJdMfTBMHzlWrVjU+p/7P3nkARlVlffxkJpNeIfQmvUkTVBALooKguCrFhuXbFRDsWz57x/a57tp1195WV+x1rVhw7QV7Q0DpJb0nM/nO/7x5k0lMIAkJmWT+FzLvzSv33ft789679//OPSdNy7Jq1UrxB/zWcc/qmCVfVnxlllQ5uTmSvTXbrLLeWPqGbN68RS2ttur2q2TIUBWhaj9zrRR4lHqkqLhIsnNyZODAgbKLDimEmFbhrxTk79e3Rh6t045auAUPx0mUE3D7OHjhXl5RbsNSce+AFSIE2ZLSEinVdh4TCZBAyxCgCNUyXNtcrnDqWZBfIHAmibdQvlh9IwXHmuwgt7lzyQI3nIBfw3njR+4JaO8ito7bIVbrqpBz1rCsMSwE0ZBgyp2Rmd6wa8W9njRPa4hjykQCJEAC4QRwX9A/DJE64vAjwte0m3mzQtA6hnxduWNj6qghhJQcFSZW/rzSmJSUlago55P16oMJLxIS4hOs0wgfL64Fd5KKKit++skslOrIskGL0Endffdx8sLzL9j2NmxH5+ATChG04JB8sQ7bwXEPOugguf6vf7WhbCgPzp/9uff8Bh0xuJHua3z068yZMzUSn8f8Te2//2Tp3LmzDBw80CyxnnryKbniyitseODS19+QFB0qCFGorlRRWSGlJaX24gQC0m+SHVPM6gvDGc9UJ+sQ+Tp16qTC35NaIFRIU7A+rgWxs/C3n4kJSbL/pP1NtNqwcYPM0nqMGj3a2dB1BBLM0s0TlmYBfSYXqL8eDL1LTHAcmkNcYyKBZicQ/E3HwAu+tuOct5EilWoJVag+0lavXi3dVNBlIgESaBkCdfS6WuZAzHUnEsC91G0vqLgERb/OFHwbhSFJeWqq/f1332mjapC9gduyebO9/UOECCYSaPcE9JoJVOpb1thg69i9frRhAueo6IzExsQ611LwukHUnmeefcbMuI86+ihrw1RpAxqRiywFBawQu2Dj3Rrc4fP1XJ6h/ThDAiQQdQTgPLdPnz76Jr60XdbdFVlcawSIHPXdCiHCYJgaLBOQEEEtUX0VBVRwKSosMqfaEDCQl3UodRtEwFqpljoJyrHBqVYB0C/1emMlHS8ZkHDfDm4Tqy8tNm3aJFvUymfEqBFyzTXXysJFp8iwYcPMR1Wo3eXe6y2Dhn1AmEN0O6Shmh/6yLC4QvQ7lGXVytX60jBfZs6aKWN2GyP9B/SXbzQiIEQmDCWCk3EUNNYTK9nZ2SbM5eowxkK1MsLwzgT1tYTK5OXnSVdYTWl7DxHoUKcPPvxA9tt3kvq3+rv8+uuv8tlnn6kYlGC/w3INa496wUIPL1G8apXkPs8Qgc+vFksBs1byKPd4GyK4S+9dJPHHRDs3PnVUvq1UXFRsgtuQoUNl+fIv5Dttk8Lp+k/qPB3WXCHBcluZcB0JbIcAfke4nzg/Xv0d6+/Zr9/9/grbs7ikRP7733flPy//R+66867t5MbVJEACTSWw7SdCU3Plfi1GAGP7EXEECeKRG8bWnUeHGQ0Jt2GHN3Rw7miWHBCjwhpZCJ9bqTfeeF2P+ZKSYn37lCp56nMAYXZ/POhHC1PaYpVhxiTQ6gQ0fpH2NCr1AopPcK4r+JxA4wTXDvx+XHzJxXLllVfZdtZNCmpMiFyEIQZ77L67XVfarrEOEMQpJLw19+nQDHzHtkXqh8OrFoZonKPhXkP0sj34QQIkEPUE9N6Ae9K4ceNk5cqV7RcH2iLoB2pCFDn8ry9hWBn8VS5V/yzPqvD/wfsfmDiBCHgzDp0hI0ePdPbXPCv0flumwl2S+jNCBL1GJZQhrI2UopHwYHkUXjZY6iBfbJaSnCJJSY7IdcSRh9vwtPPOO09Gq8VPr969nOOjCNuoW+3yQViDyDN27G4y88iZapF0hvmi2rxlsz1fLtXn0e233yEF+jxJTEzQNlqc7K3D8QYPGiz9+/WXZcuWafj5G2XWrNkybdo0cy7+rnaou3frrkJOhZY5SQWuOJkwYYJcq8IZLJ0gQm3VZxn8X02cOFHuuvsuOfroo21YntfjtSFyr7zysg2xg5VXilqZweIqVp9nSUlJUqzi4KRJk+RpPTewGttn331kth4fDtXxzNyydYsJh9dec40NdUoIDjEN1T2MOcBCKPudOpuHr63HHntMxbJ8yc3LUZEg+IMJ7cgZEmg8gRj9TcOSHZZ2JcWl+ttM0/5PiQUYgPiP+++PakV59plny9SpBzsHcH+jjbiWG18y7kEC0UWAIlQbO994E/bRx5+oY8wE2W3MGOnUpZM6sPxVb6ClqubH6LjmCruZohEEk9Ll6tARJtpDhw21miKizC+//qKmpoWSEJdgjQxRy3G8YRwydFhI4GpjWFhcEmgSAXQl0KxFox9DPTbo8A50YDppmOjhI4fLa6++Jg888IAcNuMw6da9mzW6MzVc9DfffCPjdJjGkUccYW9+IQ5//fU31hla/uUXslX9YQwZPNjCYUOAKi8tl0/1jXJWVpZdc19++aXspv443KEjTSo8dyIBEmiXBEzsbpc1q79S2+rbof8HC9PJk/dXcW6s/KQdRIgdTz/9tIkUC09ZKEfovbhLty7mO8sXtwM+obQgeAGB4X7wBTVi5IgahQ6dG21vLb5isUbhy7D7e64OITv7j2erMJQkv65ZY/6bMGyv0UmPj5cfCBV/6623ydq1a1VYekdgbTt+wnjL7tJL1fn311/L8i+WW1tw3rx50qVrV/NH9YeT/2D7Q0DD8wnPrRx9sQhRB36hOuozCFH/zj/vfFmtzs+XLHlMzlXhbOrBU21dz9495fbbblcrkJdlig4xRDnQvsxVP0+77TbW2pM4F/iXkZYhBxx4gAlhe+29lw1HhIVal65d5E9/+pNa2OfJZ59/Jp31eXrIYYeopZb6UdQylJepRRXUJn1zg3ej7ovVyxdfLnvssYc5fj/3nHNl3Yb18uqrr8ju43ZXR+j9Zfiuu1r9IVqGzkOjAXOHaCZQUlwisWrdCIEWijN87o3U6I1nn3W2CrsFkqnOyUeOHKlO+ZMd/2XhsHCTaqSoHL4750mABGoSoAhVk0dEf/vnP+7UN4DvayMnUb7//nvp2bOn3HrLLWZ6feqiUwXj7vFG7Pnnn5M/nDxPumpDAE4ty8rLrMHWo0cPefiRh+XRR/+tkU4mypLHH7eH+x133G7j8C9dfIlccsklEc2AhSOB5iQQ0MYsTLMhFJ115lkafjvVovFcctkl8u6y/8q7774reAP90MMPyXHHHStXXX21WRV+/PHHGj3ocrn8istl+rTp8ve//d3CX8MvCBzHYhgIohIh+lCxWhg++uijdi0ijDiGluC6hOBlb9mbs0LMiwRIoO0TcN+6t/2aNKgGEBRgSVpfgngBC1IMBUtLTZMB/QfIhRddqJHdDpV77rlbTj/tdHlWI+SddNKJ1qbp27+vWU5B4YAj68YmCFBIY3YbLWM0Cl14cq3McR8/6fcnhVZ1Tuik1ulVGsVugZSqdYVZ+6DT2sgEQQZFLtYXhp3UGXcXHY6229gxsmXTFvPbmZyYrGJTvL1Y3HPCniaAoUywgPertRiskEL+BjWfmb1mOiXQshx/4vEWYRAWunGlcTJ23G72h+17q+UWBCJYkg0bPkxGjRlVZ8n7KVuz7NK8h+863F7WIPLe+vXrnWMH94L41bdfXxmtDN3ki/VKiQ4V9KulCZKeHk1adhXdYP2EiHqw5tdF5pMUTt7na1s2KTVZJu4zERurgAVrf6/N84MEGkvA/MfpBbb33vuERpLk5ebJvAXzQllt3rRZOuq1V5BXYJaOGJLLRAIk0PwEeGU1P9NmzdF1iLxuzVo1wb5Nrrn6GtlXO7Lr9E3bZH0D9YSG5kVkk6052XLVVVfL7w4/TP5xx25mgv26WnEsmDdf/kfD9b733ntyrHai4SvgLH3QH3rYDDNjP+eccyRHrTYwPho3Z5h2M5FAtBBwOxufffq5vfn95quvpP+gATZUoWPHDjJjxgy59LJL5Z93/tOG1aGxMmb0GLnvvnule/ceNuwhUyMHVWIIhb5d7t2rtyy+crH5CTnooCnmyyItLVUefOBBCyse0Mb2QxpF6d86xIBvcqPlV8Z6kgAJ/IYAdAh3tBzmHV3iN5thQYIOnbGk22BoHvwiwQXBmFGj5dbbbpWTVag4/bTT5MILL7SXCNOnT7ehbLDIaXQyYSRsL/c7yof54PdOHTvVLDPKhpU6DQ03w7bYrxEpoEJWlUapM9FN84OPJ2Dq2LGjZqX/tK2GbDGUCO1DPMNwXBxGdTF9oQgrIT2sHRcfuk6fTw7sgA4Jh1hVKT6vDhXXqfl30m0gQGGfWPWthQRBy3H3ULMS7nMLghtEwaqKKnt5g5cubn4Q6BA5FkPOHaVJt1Wh7MMPP1I/is9KoQ77c6ygYszPVVe14ho4cICdRysHGGhZ4AcLlcEQSBwXecCvFOqNfyG/W1ZifpDA9gng/oHkujLBfOeuOuQWSX9z+N1lZGhQJv2CiJH2G9eFrvhs2/GDBEigWQhQhGoWjC2YSfD14FoVoWDafLtaLeENIKyakJ555mk1T99dRo8aZY0vLEPjBA5Nu/fqIevXrbfoDmjIIA1Sx+P33HuvNtxus+3gP6BULaUC2ujRe6/egPHJRALRRaBv311k//0nyfxTFpj/jSuuuEIGDxksn3z0iYHA22E4XcVbWvgh6d6zhxQXFOk1o40T3SJOnchiOmz4cNseDWaEwoaV1epVq81ZLS4wiFXwxRFPsdc48YMESCCKCTS2uYGbbHAfNI3gy69KxRJYLC1dulTeeecdefqZZ8yp9i0332JD2C659JIdB+yW053qsa0zG1YeewC4R8J2WNfE5DpXx+4YOudxTIY0S81UBR510x7iAB54DrnJPawzDX6qDxxHNNLoc/oM8oS+Y0B6cA/Nwt3Xjhs8ppNv+JrgErdMmKIM2na0fIMFQYlckciELt1swsQJ9owsVyfobirVeVj3p6enqcDks3JinTkhD1bLEQDCyqBiW6jcbkacksCOEtCfWIz+5qq1cYiftLrbUazcnwTqI0ARqj4yEbIcav1mNcPeuGmj+SmA08tBAwbJmnVrJKtDRx2v30E+/uRjdS7ZWf3YZFmprfOrjQykzup0EhFcDjnkUNm8cbMsWrRIDpoyxcbuwxEfhg3B8aSJUGjQ4aGvxzRfNZYDP0igfRIItm/NP0VGZoZFQnn7rbfND9S0g6fJTTffJCNGOP5AvOqIVjUoe1uMqEvoA2D4AK4XNJAR/nrj5k06BC/VYOGtcGGhbqdNGLzFxxt5+GHL6pQl2eoAFkMnmEiABEiABIIEwjSGOpm4N+ywlbCKgb+icrXwTk9PV+vwybK3WoZfpC/qMOT5ah0+PUx9XULI2aGEsoUfP3jfr7Gs9gHCt6+9bnvfVdhxcbhCTvUuui7Yvqte1oC5kGgU7FSHHaMBezd4E0MFK6mwPSCAIUG4Q9uyU+cwKzJsqH9F+lIHkpgnaIllO+ADrGvkFp5zaCvOkECzEYix3+COXMDNVhRmRALtmsAOPpnbNZuIqRzC4w5SJ8eYwt9MZlampKakyg8//GDCVJcuXXQoXbyZZcN3AvwFuCbV8C/Qp3cfdZS8xTrLldqTPvzw31knGH5t4JcGkVEq1RIK/mlgoYFQvRnqbBPLmEggGgh8rBZPcHQLp6hwjhqnwtGG9RvUmqlEeuiwuy80XDSiTGJ4gPmj0Dsn/GpgvrNefym6PE4jBWGKlJuXK106d5VVq1eZSfdLL76oYvJma1B/tvxzjVLkWCZGA1vWkQRIgARaigAcC6dnpJuQAcECfoQgcpx77rny1Vdfy+yjZlvwiJY6fkvkGy6zhM/jWPju/jXm2G4+taeNyWNHtsWLTgyrg1hoQw5dBS/Y109OSQ4JUHi5g+iy+EOCpZf7nS9Id+QscF8SIAESiBwCfB0fOeei7pLoMxihhhFG95hjjpW33n5L3lCz8y1btqiF00Z58YUXJD+/QM2gYbLtVZ9OPrXWiLOwucgQDiMR6QVjmxHOd99991MfN5fJgZMPMIflk3X6t7//TU5Tx57FRcXaUd6kYpTjRyE1aNVRd8G4lATaNgG3MQ5xqXfv3nLttdfIRx99ZG/NB/TrL3tN3Et21Wg8U6dOlcVXXSlHHH64Xkvl6qvDCcmN2ufl5qqFVKVGDspVPwIZFhkJyzEPi6nu3bvLwEGD5IQTT5S7775bRmtES0RPQnTLYNsbmzORAAmQAAk0hUDtGym+683do9arnWFxwxQRBGL0fJhFkwpL9uzV8+QGBnFGF1afSPfZjIJDdEIKeqaw+W1/hO+97S25lgRIgARIoPUIUIRqPfYNPjIEJlhYIORtWkaaPPnEk2apNGGvvdRqqUJDwQ+SykOmS2qaY4UxVsPoduvazfJP03H2h/3uMOnVs6ckp6bIlYsXy4cffah+orrJ2DG7yZbsbPlKw8UPHzZMstTxZb8BA/QtYmfBsD+8uYITSyYSaO8EEM768ssuV4vBrRYN72R15t9BrwcMtbv5plvkwQcfkLFjx0qWDnkdOTIYNUiH5P31r9ebjwtYI55/wQUm9IIVnMWeo2/id911uIlaf/rTn2Xd2jW6PtFE49dee80crLZ3rqwfCZAACbQGgbJS9TWUVP3CoDXKwGNWEwgfUlctN1Wvx1x9yyFAhe9fcy9+IwESIAESaIsEqDC0hbOmD2CfDvXxpupYfn1KHznzSKfUeGLrOoy333P8ns4TXL8PGTbE/twnuq3DHrr9Lv12sT/LQL/3Tk2W3n162ToIXNgGwtUJJ51gm7h5OF/4SQLtk0BSSpKFvA7VDtcWkl5PuAYWqMNyRPoZNGhwtcNUXTf3+Lm2GbY5TCNOYoqoTUjz5p9svqPWaCRLRKacctAUDUF9ppx//gUyYfz4kLWiszU/SYAESIAEmoWA3ofj3Yh6jc1Q97X7fvh+WMbULASA0pyO18oNIlPDrZ1q7Rz+Fc9sN/G8uSQ4JQESIIGII0CfUBF3SuopkD1Yw5+uwe30IWuRQ8Iftpiv77u7zl3vfkd27jJ3Pvw7ljGRQHsm4F4Ldf3udRmGd/ym8ezuAy7B/XCV2pUaFKN69u4pzz/3vKxdt9YsozA8dtq0aU3vJLXnc8C6kQAJkEBzEAi/NzdHflGehz3e9MHWIKzB7ZoNGR6o6K005K/ZDsqMopKA/tbwc3MSu8guCU5JoCUI0BKqJai2UJ7VN8YWOgCzJQESqEkgKCzVXKjf6lseviEu2OBFCyvD2++4XbZopEsMcYVz1gblEZ4f50mABEggWgjovRNW3vaSLVrqHMn1xLnwaafcr27CEe0uGG0PRcbj0LVisvOFc6fbuc8/uHUKPgqbXkMchIkEWpqA/lBD9xwPf3QtjZv5RzcByrzt7fzzntnezijr0x4IBK9LDHXN0EhOHjTgscz9aw91ZB1IgARIYFsEoEToH4KgONMSnS+x+ZLg1NQKbKepstJv25pzatwrg8ttZR0fFeUVFowltGo724e2qzWDKG5uqlC/m6EyIb/gX4EGhCkvL7fviChcXFhk8xi2bamJx3aPG6nTGH124c8EQm+MRbqzqur5wXL3HHl0Hf7hGddOUUTqKWK5Gkqg+jKvuYf2jB0hSn/nNdfwGwmQQDMSoCVUM8JkViRAAiQQIuC2XtwWuDZ4Yj2xoYZ5aDvOkAAJkEA0ENB7YkCtaOLj4qQgv9CCqfjLKy3Yyto1a2XlqlWSplF5MzM7SB+NWHrggQdKCgKu4F6K+2j4PdWdD+MWq1amsDoNVARk89Ytcv/998n8efPDtmjYLIZeIw9/wC++eN9vdoIAk5qeastLikscB+jqgwrWPx5YC6Fs6OC69/7f5NDwBW41myGr3xwUeTc0X0+s8866qLBQyisq7WUKRD/EvKsSr+VTWlxqnff4xHiBY3ifL67B+f+mcFxAAi1NQH/SEJyzs3Mkq1PH6vsMjqsXBoRUu45buhzMnwSilABFqCg98aw2CZDATiDg9iCC0xg0aphIgARIIEoJwAo0oNIFovku+fcSueueu+XHH34Qr9crAwcO0uihebJl8xYpKMyXPn36yplnnCGHzThMEpM10l3Y7dOGeEHvUeHHLHN0QUlJqaz4+Sd5+qmn5Zlnn5FNmzbJxIkTdbewHbfHXe/VyBti0vvL3pd3//uuJCYkOtarGHOmK2fOmiVFas31+uuvyexZsy3qKQ7x3vvvCcS0gw46SDI6ZDid2u0db7vrtTAqaFXBAmm7225/AzyKcA4gpPn9lRLrdboBOsjOdq73KHrwspIyWbt2nVx66aXy4AMPWP0qApUSp+cO6aOPPpL//Oc/coVGYY71+hxrEsBkIoEIIgCx9PPlyy2a8YjhI6SwoEBeeeVlyc3NtQjIaWnpMmbMGOnStbNeLFrwcEGZP+cIOpMsSlsnQBGqrZ9Blp8ESCCyCYQ1Wupt4Ed2DVg6EiABEmgeAipmYKjL9dddL9dce41M3n+ynHvuebLfvvuq6NRHCouKpKAgXz7++GN5/PHH5dRTT5UfVKS66JKLnM4gOoVIJm5UDwvbuiVbrrrqKnnkkX9Jt67dZK+Je8kBkw+QiXtPVHkl7Cbs7F3/J8oXXPviiy/KAw8+ILvttpstgXDjjfXKhAl7qfDlkauvvlrLvZ/5+CtQC6Gzzj5L5syeo8MIK+vPvwFr8LIiPy9ffv/738vjTzwupWWlkpCYUF2wYB6Fak0GS7HysnKJi4/7bc5abVuXECelKtAhD9TNhDs9RqA8IDFxTm3zc/MlXYeKwzKk9nMK9LAVLJy6dusmpyw8RbxxsZK7eat0hAVJMEH0+/7HH6QM5VXhzo7lruSUBCKEAK7hp556Uq0u02XUyFHy7XffyeIrr5RDDzlUPv30U4F14+LFV8iFF1woB08/2PnxO5eJCa8RUg0WgwTaPAGKUG3+FLICJEACJEACJEACJNA2CLy77F258uqrrNN3mVrV9O3fN1TwhKQEGxrTt19fmXLQFDnttNPktddflxNPPFF69e4lMVUqnqjfpaqqgFRW+C3K6G233iannnaqDB402CyTbH7I4FCejZ4Jdjjhi2rYsGHy9NNPh5ykl6r/pwQVY9b8ukYtifwCP38QjQ488ADp1auXzJ07V7I6Z+1QZzU3J0+ee/ZZWbp0qUAcwhDDVStXSWpKqlldJSYlmkVSrFoglZaWWvVQlvUbNsjAAQPUIut9GTZ0iPyiZUxNTbFtxo4bK599+pmJURMmTrDyoX6ffPyJ5OTkqgDYW1KSki1wRkCXu31uZG5Ox4NKFObNF5Yuz9AAG1u35MjqVSutXBC5MDzPr768quBXS7kwkUCkEfDF6hBb/T1XVKhPNxW1vSoop6WmysUXXeQM/9UCP/nEk3bPuf/++x0hCtZQSBDBcS0wkQAJ7DABilA7jJAZkAAJkAAJkAAJkAAJ1EnA1SKCnbc7/vEP2XX4cLnllptNxME+sM4JqA8mjworGF4HK5/0zHRZcMoC6ww+/K+HzWIK6giGyn37zffy/HPPyxNPPCHf/fCdnH7aGXL00UeZBZRbhvJStRBSK6AdS3pA/NcyIVlQCZ1u3bLV+qKfffaZLDn/cV3ulbvvvkcytMw70knFUeJ8PgmoyJadk60WG0/JuN3HmTXWqlWrdRijil5all69e8o1V18rv/vd79SaY6RMPXiqWTFddPHFMmvWTBmhy4YMHiwvvfSS7LP3PrLnnnvKhx99KMvefVf+cccdMuXAg+TVV1+VefPnyQnHnyBvqOCVpOLW2++8bRHwHPMP1DiYtGDwk/XrL7/KolMXyeuvvaHH88vxJ54gCfHxcuABB8radeus3DjN8CFlDuXd/TklgQglgN8rgiAUFRdJSor6oFOhadq0aXKU3k8uvDBoDRWhZWexSKAtE6AI1ZbPXl1ld9pJ1Wuo2Fez4BwJNCcBbajAqa4/EHA6Ou6bsuY8BvMiARIggbZMILxNovOwvPlC/bHMOWqOWfa4VYM1kTfonwjLzCG5TvfYYw+ZMmWK3HfffXLUUUeb/5b31dLniScfV2ug9Sqw7C233nar9FZH5hkZGeJXp9nFJSWSkpyiWtCON4Dy8vJk2dvLVFzR3FR0KdGhZvuqqNO9Rw/ZsH693HDjDbL0jaUqyrxuAhSO7/Vp07qJh8ZQxaSUJBkzeoyhgQUYOsUYIrfy55+lW/euthwfWR07ike3hzXWAQccIPP+cLIkqJBUpEMazzz9DNlv0n4yduw4ufSSi9WP1Uwb3nfdddfJpZdeJtOmT7PhebffdrtM2n+SzJw5U6YdMl3eUHFp8oGTHcsvPaYxDNYF1mewvIqPizcR7K/X/VV26d1HblYxsUD96iBfp+K6A847n4k4TUxtgEBcnE+yOnR0LlsddutR6yhYNuL6ZyIBEmgZAhShWoZry+RqNtFhWeMh38SGTlgunCUBEmjAdYTGeA1fGboP/GJ49A1+vY1tvUYtlDWvXf7GSIAESEB++mmF5Oblqri0p0XK825nyFacRtKbNGmS3HXXXXLeuefKytWr5OcVK+TPf/6LLFgwXzI7ZGoktnIdlldt8ZTqcyLXxXvjd5j4xx9/JPtP3t/ygUDUv19/eVL9yVTqkMCkpCTZd5/9pGf3nnL66afJ518s3yEByjmIfuLZEhtsnqsAheRVSyufWkiFJwzBC+hLkK1bt8pRc46SpNRkW12pDscHDhoonTp3kkGDBqk4lykT1Y8VhvV16tRJ1qz51baD75t3li2T2++4Xf04lemwvGxZpXzDkz3z0NbU5NEywUILPnWQvvnmG7W4GqFD/lLNn1T/fv3Ul9dWXRPcwbbiBwlEPgFY7VXihaIWFZaG8RrtcsuWLXZdRH7pWUISaJsEgo+3tln4qCg1nuXBDnKdj/U6FqLTC7NpS3WsDy2vb52zJz9JIDoIQEPSa8YS7oj13RV1kxrDC/T6qSircBop9e1T3zVW3/LoIM5akgAJRCkBu/XpByycVKFvEIVZR84UCCuPPf6YrFbfSDk5OXLe+edKh44dzMk5/B5BIKrr78033qz58qBBR6zeCH6pKior7K9cfch8+/23MnTYUHVqnCJdunSxIYD/1OGFS5SUlQAAQABJREFUsIyaqhZbcAC+Q6n2c8bNTDvGxWrh5LYH3cV4ORJ8ermLaky9Xo8KRBnqZ6tTaDk4bVGn4heqD5yVK1dqZLBXZMmSJdJRLUEgaiFhG3sW4oTh+aaLY3QK4UuVKGwiPbTOiBLowQok3QcWY7DOalBy88bu2/prUGbciAQaR6DGS8XgrvhJog+Vp37Zfln9i+zSd5fgGk5IgASamwAtoZqbaEvlhzuj/mH4D6wvwhM6xnYzxUNc2wZwmPnQQw/JeRec52yGfZHQbnDnbQE/SIAEHAJOQx5Ob3GN4JqC81W8Ddus4cLRybHoRLpxcWGxDZdAFKGbbrpJkpKT5GQdBuGL95kohSmSG7EInSefmnqHkttjcK9F93toA86QAAmQQPskkJiYKHAMvHnzJrXQGVhvJQNqYeoJWkkhYlViXIL03qWP/Prrr2aNc/hhh6uF0mRzKFyiQ8R8OgQOAklFeYU5yY5Vq51cHUozafKk7cg0dRQh2FZClDsIUPZSD+0rTR4VdTDkDtHrMDQtWZ15I3rdn//8Zzn3nHPkysVXyuWXX27Oyp09gp+NuM/DEgOPh6T4JNmKCHRZHaW3Dg368aefZPiuu+oQoVzL1H1O4YuJRpgJHgcdabQXs7dma8TBAns+YXWsckLueSrkbVRH5n/64x/tmffSiy9Jdna2DjHcUOM5ZgXR/VyH7LF67sor9OVLSZnsrUMhMZzvl19/seN++uknAu6xtSy2cFw32WPPffZhYUO4hG/vZsQpCTSYQK0fkF7LaJfZNaO/Pwi1sATM1WsCUSbz8wvk2WeekU8++1SWPLak5lEa8nutuQe/kQAJ1EOgpppRz0Zc3IoE3BsepnofdQUoN8QuSoYGCzrEHrxK0m2Ki4sttPGf//JnbSSVSVJikpqIO+vycvPMhLxGp7gVq8dDk0BrE8CbX0TyidHGs9vgtiF0el0Vadjt/znpJHnuuedCxXSvHXRGdt99d/ND4gpPmJbpNQfxyg2ZXaEdAXefGkIw2kXu9R3KnTMkQAIk0D4JoJ3SR4WkUvXZ9Kpa32DImA1lrtVHRO3hAByWprinfvTJJ9JZrY4uuvAiFVQK5VmNHPeLilHLlr0j5513nozZzfGftEPUUAa19sFwMyTc3zuqz6VePTUin4phJgsFywmfT5kdOkhZeZlaAhVq2TrLwIED5fzzLzCn3ccff7wgul/ovo8MG3i/t5eK+jKkW9du8od5f5C//e1vcrg6H7/yqivlXw8/LO9/8L5Mnz7dyhWnDsERiS49JU226JC8Lt26yAoVqpDycnOtvYghg+mp6iw9mAr1mVZaWqK+pbrLkTOP1KGFT8mDDz2o0f0Okvnz58vnyz83UamfDjt0DZywKyICAk2sDsVLU+foGFKJMvbs1VPOUP9TMepDJ1Gj48E3FOpgqXad9XuIY7BN62zITxLYeQT8OlIkWX3GpWekm+Ui+kibN22WGb+bYf2ljPQMc1B++SWXyajRI+13H7z02WbbeaeJR2ptAqEffcsVhCJUy7FtlpwLCwrNQWeuhtB99ZVXLQLKU089rdFiTrD833/vfdmgb7MyMzNl6NBhFq0kdGB9yKeqyfgvq381HwrffPO1jBo1WibuM9Ei0WA7CFhMJBC1BPQaQaMY7eEPP/xQcvAmWK+nfv37yb777SsPPfiQvPP22/LiSy9K505dtIPil05ZWfL6G2/Ivvvua1ZQaPwjPffMczJjxgz5z0v/sahGQ4cOlfETxqvVVKLkaBjrV197VXprGOzMzA4a2ekb+d3hh2P0gtM5wRSFYCIBEiCB9kQA97VgMwNif58+fayt8tXXX1stTXRxN3DrHbwvVqjFkV8j5t2sFqdDhg6R4+YeZ3lNnzbdhpDdfvvtZo2z8JSFcthhh8m+k/a1HGANDnHEBC59/9agFCwnhpbhJQTS8SccL2s0GpwJJ+GZ6GoIMA8+8KD0HzjAhu7AiXGPbj1k5KiR9gzp0rWrpLsWsE524TnUO4+h4ZVqhZuZlSnX//V6Wf75chk0eJCM3m032WeffeX777/Tdtwouefue2w4XI+ePeXJp5+UvrvsYs8QiHVLX18qg4YMtmMgKh6EOjxfYN37F/WlNVIj58GvE3xBfbH8S/MRBaZwwgxrq/4D+tu+4IAIeH6dxqkYiJcyPfV4CFvfpWsXcyR/2WWXyaaNm+xFaGJSgllBwbLEycCZ8JMEIoUALNnj1c/ckUceYQJugv5mJ+y1l9z/wP1qSRmQDupjbtddR0hAxd1EbbsxkQAJtBwBilAtx7ZZcnZH+8Oi6ZzzzpFn1ER09S+r1RdBZ40Ms9bG8SOsKBpOFWoivWzZu9XRHLQht+rnVfaW65133pGpUw+WY487Vv74xz/JokULxRvjhEK29l8jGknNUjFmQgIRQMA6QCrEalwmc3I77eBpMm7cODn8iMPlkX89Gnqji+Eghx56qF43Z9ibb3SMOuib8EsvudRCZ3fv1k0uuPACQdSmfH0TvGXzZnnqyae0YfOAmnbnyY033CjPv/C8Rnc6SoeTrNHl95kQ7B7fUKDjxeswAn4VLAIJkECzEnDva3qPS0xINP9ET6kFzh677yEnnnSidf68sSr+YDv9wDAZCCDxaulz/d+ut3vonNlzTIDCMLge3XuYldDs2bM1Mtst+neT3HPPPeqf6Wj5/f/8XsbtOc4pfkMFqFqVRbsLTwUITd26d7Oy2NAd3KORtJwo70FTDlLxpUqj06mlka7z6LJevXrbn891m+DW3dlzu58QcLyxjtURRCHUBQ7EkV+6RsHbe5+9LY8DpxxowwJhlTX5gMm2DJbusO6YNHmSDQfPyc5Vi60Miy6IYYr2vFGrrkmT9jdr3YK8AhXNRtgffFmlZ6arSNhbfvj+B2WeL3G+OHOIHqNlStJhlBgKuc9++0hGmmNZ1UEdnqPOmek6hbV9MMGfTnpctfWVu5xTEmhtAolqGajdJRk9ZrQVBfcZ3FPcawgLN23YpAKr1ywdM/T6cS/71i47j08C7Y0ARagIP6MJ8QlWQryNSlSTUVg8wd/Tp599JieecKLcrW/DDj3sEGtw7D5ud1m6dKn0VGeRboJpNXzaILIMfDHAt817771nbwC03+0M4XM35pQEooyAawm48ucVsvyL5XLTjTdpI38fiyA0QN8GJ2m46wIdbnHRxRfZ0BB0kBAu/NxzzrWhGn/5y19MjOqlb91xfe01caJaSO2jFlU5MmXqVG20/2Idq//qNbdMoxAhhPjdd98tzz73jF6DlTrkw4kyFGXYWV0SIIFoIIDeG0a3YRoUY7w6bCtfxZVKfWl22223mmPsUxYulK5qwYP7Mfw7od2zYf16WfLEE3KHWuvMUCsn3E+RUlPTHAtSnUe0twsuOF+mT5smTz75pLz86svywQcfqCXPADlOX7hN3n+ypKY7kfJs5wZ+xKCXihQs928soZy1Vjc44XZ1Jlgx+WKrh3W7mzVmCsfeMcEMMRwQrhfAA1OvR/NWnvZyUrfxaMQ8LHdTmrJxv8PvVpq29zAEEhEGA/riRAJOvfAd26WkpIS2j4+LdwQ1HWr36COPytp1a7X6bt302Pqsgg8sRNvr3LmzHRICFDrxGK5o5QoKiOkQ5aqL5RaPUxJodQJ2aeOehKQ/W4jLEG7t9xr8zXbS33eVjj01h/v8HTus+EkCLUCAIlQLQG3OLN0wvWicodOKDjBcP/nhGFIjteyx5+7miBPRYmA6vnjxFdpouyNYhBhZvWq1vKbDgDZv2mSqPhT/7uoLAA2HKi/vrs15rphX2yXQq3dvmT9vgZyrwxZ+VkEKwyAwtGOTWjS51ohosMDaEG/vszpn2TWEZUgetSrEW/tuOgQjNS3V/EKh0V+gDi7hHHeQ+j6BHw006uHMNTEhQfzayInRToE14J1s+EkCJEAC7Y+ANjXMukhFE8zhXvg/arEEx9+PPPIvGxYGwWjOnDkWAOIfd/xDvvr6K/l55c82fGzRwkWhl2sBdSjs8apzbdx7ka/+jRk7RoeYjZK//O9f5IEHH7CXbrA6xbAzWIE3Nlnejdgp+BhwHwfVezZ7E0v9FyJ4RgNTDBqLYQl+tsCsvoR6o214+pmnm1PzCj0/7uaFhQXSqXMn9TWVZ21J9wUp8sI5+E3G7o5YxUQCbYiAc4UFrzP+jtvQmWNR2xoBilARfsas0YAy4g2bmkbjDRQinlRYFJhyc4iJN1oYn+/RN4x4M2Zm47oLmh94q3bAAQfIxRdfLMlqSZWUmiwb1m2QyoBG2YMpFBMJRCkBt22B6wlOxP/xzzvkm6++kRUrVsjRxxxtjm+nTlXRN5jwxjtRLaM2bdpoS1wrKnyBg1q83cdbfCRETEJjHkEC0lJT9S/NBKlOXTrJunXrnTfatiU/SIAESCA6CKBbBwfWW9X33m5jx8qZZ5yh/lgmCIY7//uxf5uT7IrKchk7ZqzsNWEvdcT9L9lz/J4q/lc6DRrDpMK9NW4gfqjPIhX7YSGE4CtpOlxtwfwFctppp8nfrv+b3KJD9d54/Q0Vh2qKMQ2i7T4gsHGwPxpSZNzv4RmpdYXb9rLF4fuHb7cD82jfNSaFP6PcfWGtVVfxLV8tM4bg5epwuuTkZEnQlyVuwvMPKS42zokUG25N0gJ1dY/LKQm0BoEa13JrFIDHJIEoIEARKtJPMp77+oAv0fChBTpGf/CQIRbxZLCaRM+bN0/mnzxfrrvuOrXe+FluuOEGNUl/Ss3c1Zmnvi1E2GAMJ/r8s8/lu+++ly4qYGHIkU/D505T83WE0rXEBkSk/wpYvhYg4DbE4e8C4tMnGl4afp/gUBxv6juqz6cE9V8Ch7P/ffc9GabL0YEKDz9dXFRkjXWITNq2l8GDB5sTckRFwvCFcrVW7K1WVm++9aYc/cMxZhW1YsVPkpOb0wI1YpYkQAIkEEEE0LaA/qPTGFjw4Karf8nJSSYeYVjY7DmzZdbMWRpZ7nwVPzSim95jy9UCp1u3rua3CLUJ+VfSeYv0i4WWncpLtYQZNyLdmaefIbCgguNhlaqwB5MSwCnYVoJwZcPpdKPwpqE7dDxBI+DZkL86zMWwPYRBN23vWO52nJIACZAACUQfAYpQEX7O8bBHoyBTQ4Ym6/j+H3/4QXbXIXjwPzN37ly588475eR5J0tWVic5Q98qYtjPyp9XWkcZ2x9z9DHa2AvIiy+8YGbp3Xt0t/3idPw/GwgRfvJZvJ1CAKG4e6rQ9Pcb/i4PPvigRRDCMA4Mmxs4cICc/PuT5YQTTtA37PPVukn9BGgnyU2VGkEF1xfChsepuJun4lLffv3M6mlrjhM1b/DQwXLZpZfJvffeIxMmTJCsjlnWyDe/I9VZuVlySgIkQALth0C1JhGqk6tTuNYGGJKMkOmpajX6m4aJu394g6XGsvAVoUPYy7rqb5xrFAH3BIXt5FXzMx1BbsKUEa9jm7rPRFgmnCUBEiABEmiXBFxfhY2pHEWoxtBqhW3Nj4K2ytLUuebjSx6XocOGyOaNmwXDehCmF1G3NurwoE7asUWUlPiEeBk1ZpR2eO+10sJx5ykLThE4KD/n3HOtfedE5NLVbkOuFerFQ5JAJBFI0eFzt916m2zZukVi1d+IT9/QZ2ikIDgYv/jSi2X6IdOlb9++6gB3ugwfMdyKXqYRK99++x0Vqgbq29+A3HLrLdJBHclC1EKUoQfue0CmHTJNgwZUqFPdKRZJCcNFvvj8Czn++OMdp5e/6XFFEhWWhQRIgASamUCo3aF+LtVpNpxwwwGwDffSeQxjRnIFqjpvka7aoZvWYZATUkqKSnQ4dFya5ZeSkmzT0IebR2hBE2aaIw89bIa+ZMRLiZS0lCYUYufs4vourNdJe2OL0UzsGntYbh99BDI1IAwSAsNYqu/lH3+TDh9+kkAjCMRqEAxLzqO7EXuKUIRqFK7W2FjvivofAhMEKAhHEKAwhdk5/vrs0sc5/26UFF03YuSIUEMMllRjdhsT+u5s3Bp14TFJIAIJBN/uwv9aV3Us7r7qRUjrlJRUdfxfKWPHjtMhCAGLhAfLJ1yU8J0xdOgQjSikPkl0fvz48WYVBR9TGLowbfo0CxqQn59nw/x23313OeaYY0w4xhAUtHdqdKD0umUiARIggXZJoM6On4pQ6psyABMbS3pXhM8ivRfDn6UrTNmqbd0f61iH+7RZVgVzPvDAg6RS3RREYoKwgxcUIeEtEgvJMpFAGyYAoTejQ1CEasP1YNFJINIIpOu1NXn//bXrpP/w/EbHBh2cBiSKUA2A1JqbhByToxBuQ6v2NFhANNx+s41b+Hr2cVdzSgLRSgCdHST4e3JmnIlXLaLM0ZNdV07HCNdXjTfB+h0+ScwPRnBdjApQuAHjZoww2VmdsuTl/7ws9953rzzx+BMy9eCpssceewjCW4euV+eQ/CQBEiCB9knAuc3W2TitcU/F/VYTPu2+qjM11tva7X84go6T18MPPSzwP8XU+gTcZ6X9HOoY0tf6JWQJSIAESIAEtkcA93L0c+B/erIGQIOrEtMhtrdj2HqKUGEwtjnrtGW2uckOrXQbaLUzsZaYLmzq8evLt/Zx+J0EopSAc4k5b+RrdHawArqUXXsNuABrbRJu5ZSekS4LFy40X1EddcieDW3AtVlrnyg9Baw2CZBAFBPYVjMFw/Wacp8M3ct1/2OPPdahy/tt6//K3JOtU7w5ZyIBEiABEmi7BFzhCaNA7FndiNs6RaiGnHfXUrwh2zZ1G3R2t3XitrWuqcfkfiRAAiYIOVZPQRjBjopNwpWkHWGlmcFfG/5CCQcIv66Dxw2t5wwJkAAJRAEBG3bX3PUMv5+Gzzf3cZhf4wi450KnFjGxcXtzaxIgARIggUgiEOzHeONUUgrv0zSgjBShGgCJm5AACUQBATSO3Qbyzqruzj7ezqoXj0MCJEACLUGgMffpRjaIW6K4zHMbBPj82wYcriIBEiCBNkDAfc6600YUmSJUI2BxUxIggXZKwL15YsqGcTs9yawWCZBAuyDg3q8bWpnGbt/QfLkdCZAACZAACZBAkwhEnQiFiFZlZWXmQAvEMB9JCSGLk1ISJTMzU4qLSxpt2hZJdWFZSKDJBFQIys/Ll+TEJDETT80IDvC2btna5CzdHbds3aqRiNIlOztb/JV+JzKTHg9O9ZDCHdq6+3BKAiSwfQLJycnSpWsXiwpZos+vxOTE7e/ELUiABEiABEiABEiABKKKQNSJUEXFRdKndx+ZNWuW5OblROTJ9sXGSUVlucyceaQOr+QrvIg8SSzUTiGQGJ8kJWXFdqwOmR2kqLAIKlGTj41oDgjdnZySJP369w/60HOuMo3r4OQb4zF/5E0+CHckgSglEJCAJMQlSGpaqiTqyxQ+vqL0h8BqkwAJkAAJkAAJkMA2CESdCJWclCxPPPmEVFZUSKyGT3clHsf6wf22DWItuMqiuWg/2O/3C8pZUVFuYePd5Rwn1ILwmXXEEKiqCkiVWgSWlpdLakqK3HvffXLNNVfL8s+XS2VlpV63sWq9VOVKRo0uN/JITEw0MQrzSLjyXee4zr3AFvODBEigEQRwDeHajI8POuCHrtu6j9VGlJ6bkgAJkAAJkAAJkAAJ7AwCUSdCJSQkSK+evZwQ6SCMBnIkNZIhQlUGxOvz2PCjagFqZ/wceAwSiCACQcOkDjo01a9iUc/ePZvnWg3mi+F9du0Hv+Naw60g+DWCQLAoJNBGCOiI1oqyCvHF+9pIgVlMEiABEiABEiABEiCBnU0g6kQo9DDN0iFceIqwXqc3VlvyWj5aZOzsy4HHi0QCfh0+F0q4VvEV7pvCr+HQBg2YCe5n11eta7/W1wZkxk1IgARCBPTa8sWpANXUazOUEWdIgARIgARIgARIgATaKwHHE297rR3rRQIkQAIkQAIkQAIkQAIkQAIkQAIkQAIkEBEEKEJFxGlgIUiABEiABEiABEiABEiABEiABEiABEigfROgCNW+zy9rRwIkQAIkQAIkQAIkQAIkQAIkQAIkQAIRQYAiVEScBhaCBEiABEiABEiABEiABEiABEiABEiABNo3gehzTN6+zydrRwIkQAIkQAIkQAIRTyAGESYQDYIRISL+XLGAJEACJEACJNCcBGgJ1Zw0mRcJkMDOI8DOy85jzSORAAmQQHMTMA1Kb+QUoZqbLPMjARIgARIggYgmQEuoiD49LBwJRBGBejsiVRLjqdbLq6r0eyBsY6xiSPgo+qGwqiRAAiRAAiRAAiRAAiRAAm2VQHXPrq3WgOUmARJo2wSgJ4VpSrUr4/V4qxcFRAIBvwRUiMJfSHvaxv7VO3OOBEiABEiABEiABEiABEiABEigNQlQhGpN+jw2CZBAvVZMZaVlRicuPl48QUuogD8gHq9XYlR08uhHjN7BKsorpSoQkqNIlARIgARIgARIgARIgARIgARIIEIJUISK0BPDYpFAVBAIWkEV5BVIXm5+jSrHJ8Tb9359+4ZEKI/Po8ITxCeoUCJ+FaB8cbFSXl5OB7c16PELCZAACZAACZAACZAACZAACUQeAYpQkXdOWCISiA4CYUPoSkpL5OOPPlILJxWYav3ts98+sjU725ZjaF74+oGDBxkrV7ASHa63raF90QGWtSQBEiABEiABEiABEiABEiCByCRAx+SReV5YKhJo/wQwgi4oRCUlJknPXr3kjtvvsOF5WFVSUiypqWnywvPPy/PPPS8333qLFBUVSVJSUohNfFxcaN4cREFW58i8aiacIwESIAESIAESIAESIAESIIEIIkARKoJOBotCAtFKIDk5WTp37iQLTlngIAgTqDplZcnSN5bKKQsXCPxEhayedMuC/IJqZGGWVdULOUcCJEACJEACJEACJEACJEACJBApBChCRcqZYDlIIBoJBMWmGG+MpKWkaug7hQBrpjBBKTcvV9LS04yOR4fjBSqwkW7i9QjEK39FpVk/OQ7LdUdaQxkffpAACZAACZAACZAACZAACZBApBGgCBVpZ4TlIYFoIxAcPuf1xUpVVZXqT2EKlLLIy8u3P2Dxajg8c0qOL7qtR4UowZ99xzJnlp8kQAIkQAIkQAIkQAIkQAIkQAKRR4AiVOSdE5aIBKKWAJyO104eOCr3Bpe6kfFqb4Tv7q4Uouqiw2UkQAIkEBEEcJu32zWMWt17e0SUjIUgARIgARIgARLYGQSCJgQ741A8BgmQAAnsGIEaGpUrOu1YltybBEiABEhgJxKAtavH46Hh6k5kzkORAAmQAAmQQCQRoAgVSWeDZSEBEqibgGvd5E7r3sp5vQ5xigJVfYS4nARIgARal4Den31xPh0+raZQaIVu777euqXl0UmABEiABEiABJqZAEWoZgbK7EiABEiABEiABEiABOomgGHXHvXvx0QCJEACJEACJBCdBNgKiM7zzlqTQOQSwFtx989KWf2a3ObwQUunyD1/LBkJkAAJNIBAQINLMJEACZAACZAACUQfAYpQ0XfOWWMSIAESIAESIAESaD0CfJHQeux5ZBIgARIgARJoZQIUoVr5BPDwJEACJEACJEACJEACJEACJEACJEACJBANBChCRcNZZh1JgARIgARIgARIgARIgARIgARIgARIoJUJUIRq5RPAw5MACZAACZAACZAACZAACZAACZAACZBANBCgCBUNZ5l1JAESIAESIAESIAESIAESIAESIAESIIFWJkARqpVPAA9PAiRAAiRAAiRAAiRAAiRAAiRAAiRAAtFAgCJUNJxl1pEESIAESIAESIAESIAESIAESIAESIAEWpkARahWPgE8PAmQAAmQAAmQAAmQAAmQAAmQAAmQAAlEAwGKUNFwlllHEiABEiABEiABEiABEiABEiABEiABEmhlAhShWvkE8PAkQAIkQAIkQAIkQAIkQAIkQAIkQAIkEA0EKEJFw1lmHUmABEiABEiABEiABEiABEiABEiABEiglQlQhGrlE8DDkwAJkAAJkAAJkAAJkAAJkAAJkAAJkEA0EKAIFQ1nmXUkARIgARIgARIgARIgARIgARIgARIggVYmQBGqlU8AD08CJEACJEACJEACJEACJEACJEACJEAC0UCAIlQ0nGXWkQRIgARIgARIgARIgARIgARIgARIgARamQBFqFY+ATw8CZAACZAACZAACZAACZAACZAACZAACUQDAYpQ0XCWWUcSIAESIAESIAESIAESIAESIAESIAESaGUCFKFa+QTw8CRAAiRAAiRAAiRAAiRAAiRAAiRAAiQQDQQoQkXDWWYdSYAESIAESIAESIAESIAESIAESIAESKCVCVCEauUTwMOTAAmQAAmQAAmQAAmQAAmQAAmQAAmQQDQQoAgVDWeZdSQBEiABEiABEiABEiABEiABEiABEiCBViZAEaqVTwAPTwIkQAIkQAIkQAIkQAIkQAIkQAIkQALRQIAiVDScZdaRBEiABEiABEiABEiABEiABEiABEiABFqZAEWoVj4BPDwJkAAJkAAJkAAJkAAJkAAJkAAJkAAJRAMBilDRcJZZRxIgARIgARIgARIgARIgARIgARIgARJoZQIUoVr5BPDwJEACJEACJEACJEACJEACJEACJEACJBANBChCRcNZZh1JgARIgARIgARIgARIgARIgARIgARIoJUJUIRq5RPAw5MACZAACZAACZAACZAACZAACZAACZBANBCgCBUNZ5l1JAESIAESIAESIAESIAESIAESIAESIIFWJkARqpVPAA9PAiRAAiRAAiRAAiRAAiRAAiRAAiRAAtFAgCJUNJxl1pEESIAESIAESIAESIAESIAESIAESIAEWpkARahWPgE8PAmQAAmQAAmQAAmQAAmQAAmQAAmQAAlEAwGKUNFwlllHEiABEiABEiABEiABEiABEiABEiABEmhlAhShWvkE8PAkQAIkQAIkQAIkQAIkQAIkQAIkQAIkEA0EKEJFw1lmHUmABEiABEiABEiABEiABEiABEiABEiglQlQhGrlE8DDkwAJkAAJkAAJkAAJkAAJkAAJkAAJkEA0EKAIFQ1nmXUkARIgARIgARIgARIgARIgARIgARIggVYmENvKx+fhSYAESIAESIAESIAESKBlCMQEs61qmeyZKwlEBQH3OoqKyrKSJEACDSaAZyvuD418xlKEajBhbkgCJEACJEACJEACJNBmCGjD+OKLLpb09HSpqKiUqkCgzRSdBSWBSCIQE6MXk/73xHgkxoMeZ4zOxzS23xlJVWJZSIAEdpBAfFyc7LvfvjJq9KhG50QRqtHIuAMJkAAJkAAJkAAJkEBbIHDF4itk+rRDJDk5Sfx+f1soMstIAhFHwEQoLRWmEKKQHDHKZvlBAiQQZQRiVIh+97/vSmlZmQwbNlx8sUFZCRp1AxJFqAZA4iYkQAIkQAIkQAIkQAJtj0Cs1ycLFiyQg6dOtQ5026sBS0wCrUsAo2y8riWUx1stPjWws9m6pefRSYAEWooAXvCYQF2ldwlo040YkkcRqqXOCvMlARIgARIgARIgARJoVQKBQJUE1AIq1ucTj5e95lY9GTw4CZAACZBAuyFQVYUh7o1QnsJqThEqDAZnSYAESIAESIAESIAE2g+BQFWl+bJxGsoqQjWtvdx+gLAmJLCzCLiaL6+5nUWcxyGBnUfAvb6beERnUG8Td+ZuJEACJEACJEACJEACJEACJEACUUgAHVEVmWBxWIU/V3Cqo4OK9RSBo/A3wiqTQB0EKELVAYWLSIAESIAESIAESIAESIAESIAEtk8AkfIQPQ8TTH+TguJUFVQqV6j6zUZcQAIkEC0EKEJFy5lmPUmABEiABEiABEiABEiABEiguQhAUILopD1KOCguL6+Q4sLimrm769UnWwz8stXufbqilJtXzb2rv9UlbrlrsW5b693tOCUBEogIAvQJFRGngYUgARIgARIgARIgARIgARIggTZIQP0T5+fnS3FJiRQXF0tCTpwE1OrJ44mRgsJCSU5KtuAAXbt1cSyhXOGpvqqGC0rwfRz2HcZUMRCysBxT5OUKWNhue3nrJkwkQAKtS6C2Ft26peHRSYAESIAESIAESIAESIAESIAE2g4BFX9W/LxCZs2aKf0H9JMevXvKgAEDpEevnjJk6BCZN2+eZGSky6YNmxxBCT3Q4J/f7wQPCA3V07wC/oBU+atk65atznauuKRTCFAbNZ/SslLxVwQDD2C9mzAf/t1dzikJkEDEEKAIFTGnggUhARIgARIgARIgARIgARIggTZGQEWfMbuNkRdffFEClQH56YcfZfz48eqoHM7Kq+T+++83S6mExASzVCovLZd1a9bJih9+Umspr/z6y69qMVUgmzZuEn95pRQWFNrQvYL8Avn0k89027VSWlJq4tPPP62QDpmZEhcXJ15frApVOfLqK6/KD9//KCWFJdXgKERVs+AcCUQYAQ7Hi7ATwuKQAAmQAAmQAAmQAAmQAAmQQFsiAKukuLh4E4+ys3OkrKxM8nLzdZlPOnftLJdfernsuuuuMuOwGSZMvfHGG7J+wwb549lnyeWXXy6pKamyNTtbZqs11ZtvviVr1q6RrKwsWaGiU2pqqvRUqyqfL06WLVsmZ591lsyaM0u++eobufCiCyVOl/sDfqmsrJQnljwhHl/QzgJCFIfntaWfEcsaJQRoCRUlJ5rVJAESIAESIAESIAESIAESIIGWIACrpISEeMtaXZCbTyhoQAG/XwIVASkoKJDvf/hefCpKxZivqALJzcnR7US++/47WbturZx/3nmyz777yabNm2TFihVy1VVXyY033iivvPyKDB8+XE49dZHM16F9119/veTl5KkPqmLp07uP3HnXXXLF5VfIV19+Je+8+3bN6tEiqiYPfiOBCCBAESoCTgKLQAIkQAIkQAIkQAIkQAIkQAJtngAsj8J6mJ4Yr/ir1It4mBgEkcpdgE2rVInqrWLS4KGDdXieR/yVfhk4YKCkpadJuvqSKq+okAH9+kvnzp1lv0mTZO36tZKtVlPjdh8ne++zt7z++muyQa2qEH2vtKSszSNkBUigvRMIu0W096qyfiRAAiRAAiRAAiRAAiRAAiRAAs1KAMJT2LA3aE5I6hFKh94FwjUpW46oea4m5Q8EJKB/nTt1snUlat2E/fbff3/7Xl5eLmX6N2zX4QKfUtgvMyNTYmJi5N577pXZs2fL++9/IN9++63k5+bZPvwgARKIbAIUoSL7/LB0JEACJEACJEACJEACJEACJNB2CARVKPVJbskbFytJiUnyzjvv2PcYlaUeefQRSUxKkpISOBOPkQ4dO9g6n9cnxUXF0r9/f+e7+nsKVFWaM3IsKCoukrS0NPMr9fzzz8vQoUPlmmuvlpmzZmkeHeWDDz+0/fhBAiQQuQQoQkXuuWHJSIAESIAESIAESIAESIAESKBNESjT4XOIdlep0/h4x0/U3nvvLS/95yV1PD5bDjv8d7Jy5UoToAL+gPj9lbJWI+AhZWZlSnZOtqz4eYU6lFJrqqCgFaPD9Co0cl5ubq5ZTvk0Ot6IESNs/oLzL5TDZsyQmUfOlEsuvViuWnyVVJRVONZZYRZabQoiC0sC7ZgAo+O145PLqpEACZAACZAACZAACZAACZDAziQwYEB/OeuMM81iCVZQEIT22Xcf+ebrb2XJksdk+sHTzan4+g3r1e9TqpxxxhkyoP+AUBHnzp0rI0eMNN9SiJB3/nkXyIb166VLl26y6/Bd5YTjT5DuXbvJH/5wstpQxUhRUZFcffXVMmToEBk8ZIh069rVLKXgawp+onR0HxMJkEAEEaAIFUEng0UhARIgARIgARIgARIgARIggbZMoGu3rnLSSSdJXEKcVQM+oHy+BOnbdxe5+JKLNWKe+onyOpZNiKp35JFH6tC8RNu2yl8lc+bMkYzMDPuOaHrnnXuupKSlmJiUlpEmxx53rHh8HunVu6ecf8H5FnHPhCbVm448/HBJSk6u4RzdMuIHCZBAxBDgcLyIORUsCAmQAAmQAAmQAAmQAAmQAAm0fQKuAIWaeLxeC4aXkJBgQhIi4EE08qkAhWliogpQQWslWC5lZKgA5Vov6TQl1RGgjIp+T01NddbrvM/nq7FtUkotAcrNp+0jZQ1IoN0QoCVUuzmVrAgJkAAJkAAJkAAJkAAJkAAJRAABV/xR6yREsmtQcvdxN6793V2+vWlT99tevlxPAiTQLAQoQjULRmZCAiRAAiRAAiRAAiRAAiRAAiQQsmICivYiCDVQR+PZJwES2D4BilDbZ8QtSIAESIAESIAESIAE2iqB9tIJbgp/dpybQo37tAcC0Xzdt4fzxzq0awIUodr16WXlSIAESIAESIAESCC6CcSoU2SL8q5uacwqI1qEGdRTQ9wzkUBUEoiW6zwqTy4r3dYJUIRq62eQ5ScBEiABEiABEiABEqiXgFedIFt/NNosI6KtvvX+AriCBJqBAK+nZoDILNoEgZ0g4FKEahO/BBaSBEiABEiABEiABEigKQQ8Xm3uIhhXQHuR6iB5J7Svm1LM5t0n2GGuajcOeZoXD3OLAgJVYdd6VFz0UXBOWcWdQyBccG2ha4ci1M45lTwKCZAACZAACZAACZBAKxDw6HA8JIhQMSpGQYiKllQF3S1aKst6kkA4gRj0pJvp149sOLQ1nC7n2zOBZrpstoWIItS26HAdCZAACZAACZAACZBAmyYQGxsrHq+qT/AJFS0p2IkIDkSMllqzniTQcgQgYDORAAmECMTYC52mKVYUoUIYOUMCJEACJEACJEACJNDeCBx33HES54uT0tISgWUQhqiFjzZozfoG/H7Jy88Tn9cnqWlp4g9U7lhxYPlkQw61YxDsGzgdhR3LlnuTQFskgN/+1uytkpnZQeLj4tQasunmTLh3MJFAtBGo/2dfJbAynjRp/9CzpjFsKEI1hha3JQESIAESIAESIAES2HkEIKTU3wpuUDnOPfc8mXLgQTqaJqCuodScQRvOQX2mQfu35EarVq2SRYsWyeuvvSabNm+WxMTEHT4cogGiV+COOoyJgQlY0zvfO1wgZkACrUTAX+mXww4/TG69+VYZNHhwk0uBKypgITYj5c7R5KpwRxJoFgIefcCcPO9kSUxIEF+cr9HPaYpQzXIamAkJkAAJkAAJkAAJkECzEnD7e+4UmTdBkBo6dIgMHzncKVp9+weXY2J+o1zNRo8dcK0n3GUohnZIY3RDbB8I+FXXgugTHK+jk4ZaH2GYYGJSovTo1VP6DxrglBGfyNgKo1O3/u53rGciARLYLoEN6zbIlk1bZcJeEyQlJVW8er15IcqqUAsrjqoGmDfZJvAn59ULEdcgkntNOt9+81nl1w0hdmMXnbd9f7NV9QIeg6zs19CGfld4xnXu3EnyC/Krf8iNmKMI1QhY3JQESIAESIAESIAESGAnE1Dxp6KyUnzq22l7nb+6SxZs2Wu/0Dp7tTqe6FdCREKyT1dsgqakKyvKK9QKQjuSug06rph6vV7Hz5Ru4i+rFK++CfaXV6q9kQ5RCMSIv9YxkHddCc7SIXIVFZVIQmJC9SYoCAqm04A/IIUFhZKWkVa9nnMkQALbJdChYwcpKSu2aywhMd62z8/Nl7T0NCdaZjAHXIe43OpK0JZhXRiAsNTAZAKX5qj6tCUTpbaxL49BVtv4eYRWRdLvyqPXRXlZhfNMDZWw4TMUoRrOiluSAAmQAAmQAAmQAAnsLALa5wtUBqSgqFDuuvNOOfXUU2sKNY0thwo6pjVp6PbwFP4tgM6o9hwrKiqtUxob65X4YOfV9tEyQZRSKSpk4eBFD1KX+1VM8nqdpjWMJhqUdDt0f6F3WYIApl/ycvNUGFOrDRW7/FoeCFAlxaVmyeHz+UwIcxSz4H6YhPeRG3r8sN05SwLtjQDEJTeVlZZLfAJ8w5WaKJXRIaP6mtEbg17R7qa1po6VjleFqMYk5Fh9YTdsTx6jYZywFVm1Miv32dXI68ItdeiZ5y7glARIgARIgARIgARIgAQigUCJOhPPzcmRv17/V1m3bm2LF8mj6tHGDRtl8ZWLZcqUg2TvvfeWKy67Ql584UXJyc41yyRfvE8eefQR+errr0yI8sbFil/FMvjH+ODDD8Tr0+Y1WthonG/vDzUK6/v61epp3a9r5d//fky+/PJLifXFyqeffip7TZgo48fvKb///e/l9ddfl6LCImMR3skOz6fGvG3ZgA+Ug39k0J5+A2E/+4D6h0I6+OCD5Zdff1WFO2xljQtG5SO9bh3farpNA60aw3PjPAlEBQG9V5jY2oTKUoRqAjTuQgIkQAIkQAIkQAIk0PIEkpKTzBqoUofjuVZGLX3UwuJief655+Tss86WU05ZKLA8euWVV+Soo+ZIqVojob/68Ucfm1hVWFhoxZk3/2TJ6pglw4cNs/WwYsIQv9/8qciFIRXu8pDvqGCLHAJWaXmZPPDA/fLrmjVq8eSRt956S/r37ycn/+FkOXjqwfLYY4/J0GFD5emnnnYEkyAQ+LexYUWw5kLHGZ3sxvw1ztCjpU8D8yeBZiUQp0NmC/IL5brrrpNevXpJXl6eicowWHJFJ2cqJgTj2rTvMGvktdGs54KZtQ8CcNYPa92mJA7Hawo17kMCJEACJEACJEACJNB0Ag3t1KmW4vhr0pmdlFC0BI1SN2ToUBk2fKgUFxTJpi2bZeHChfL6G6/LIYceYnYTHbM6WlSgSy66RFauXCl33323pGemO8IPMqmrjm41gqJTSITaRt38fr/stddesnDRQttqytQpMlgjfd1+xx2y25jdpPcuvbexN1eRAAmAACwWU+NS5DWNRDl69GgpLSuT115/TUaOGClL31wq3bv1kP4D+pmYfOXVVxu0/y77rwwYOEA6derkWEa51y+RkgAJGIGQxWAjedASqpHAuDkJkAAJkAAJkAAJkMAOENCOXGzQd1KDc9F94By8xZMeAkdJTU3Tv1SzLEpKSZaOHTraCnvrqxukpKTI559/LmeecaZ88ukncs8992ontrtTPLSu6xKgsLY+ccrZs+5PPZ4HXmA15eflS+cunWXRKYskIS5eVv78s2OdpevMagPWG+bfpr4CWDb8IIGoJfB/1/1Vvv32W/n8i+Vy9tlny8uvvmw+oh56+EG57dbbZGt2tpSWlEiXLl3VArG/ZGVlUYCK2l8LK74tArC4xXA8NYhq9LONllDbIst1JEACJEACJEACJEACzUbAoyHSi4qKqkOWb0crsdDmKqqUl5Wbw/B6xZ3mKqGWJwDH5OXl8sTjj8ugQYPkhx9/kF9++UUKiwslq0OWNbZ/VZ8y1+uwHo8ORVhwygLp1q2bWk9p9C0oWNupU3hRG+pPw90OwlhJYYlgaFFcfLxs3LxZCnRIYEKSRtbDcXF8JhIggXoJeDEkVu9DGGa7ceMmmXvcXElKSpIDJh8ge+y5h/zlf/9XxowZbVZSXbp1qc6H11c1C86RAAjY864RD7wwahShwmBwlgRIgARIgARIgARIoOUIVFb4pbyi3Kx3NmzY4FgYbONwsDhav2G9RqhLkK1btkpamg53a2Dq2FGtlxqZykrKpFvXbpJfUCAvvPCCvPSfFyU21icpySly6823ysjRI9VReq6UqKXEvPnzZao6OT5Uh+cNHTJUZs+e7QzHa+Qxt7u5tvERIQ8JYlRiSqJaapRKqrJJUCEKEfwsUYByOPCTBLZBINar0SXxT/2twek4riOIycnqf66stEz31GiVaqlpftWQD64r99qCQaI7j3VMJEACTSJAEapJ2LgTCZAACZAACZAACZBAYwn07NFDXnj+eXnwwQfNoen2+nPxcU5I9c3qk+nYucdpWG4VXFSUMV9K29nZE6vOwRsZIz0+IV5yNBqfT6PSPa/ljId1U1gKVAQkIzND+u6yi8w88kjZffwesmTJErn++utlz/ETZAR8QrVk0roXFRQKBLw1a9dIz549JTMz0zmi8nCHLKrxmHW0W7IozJsE2iIBvTQseTVAQF23EBOowirmDjnCfafOHcK25SwJkEDDCFCEahgnbkUCJEACJEACJEACJLCDBC44/3yL/uZT66JAILD9Pp1aKqxdu1amHzJd7r33PunRPeh3qQHlgDiT2TEo0DRge2yCMsHvU0lxiaxdt1b6aVQ6CE+hKFluPqryVOq2sEiaMWOGfPjhRxpN70x56OGHpEOHDjpULs7dcptTjWP3m/VV/oCVo7KiQq2cYqVchwb6fHHy7Tff2vfNOgRvkTpJ33P8ePNZY51jzQU5uR3s32TKBSRAAkaguKxYKiorJD4hQSp1CuEWghSuHojPWN69R3dZv36D5GTnSHp6hg4f1tW/vVRJlARIoIkEKEI1ERx3IwESIAESIAESIAESaAQB7cR1085dY5K/UoUq7STGqUVUdxWg+vbt2/DdHV/eDd9et4SvGDhN/2XNL1JaWmodT4+vOiNYVyFlZ2/VIXnFZpnli/fJgvnz5KDHl8gxRx8jTz31lFlqIR/zabWtzmsd68q1Y/zd999p5L042aIWYBDT5s0/WRLjE+3YcSpInXb6aXLW2WdpB7na8oqGGoaHHySwTQJ9evcxcWnT5k0qO0F48tn2n336mQrQsbJ16xYZPWq0ReXcY4895K677pT9Jk3aZp5cSQIk0DgCFKEax4tbkwAJkAAJkAAJkAAJtFMC5WUVkpmVKW+9+ZYMGz6s7lqqcPTPO/8ZWucvr5R+A/rLip9X2FA5j5pN+NRxeKMSogsFU88ePVXkyg6ZNp100knyv+f8r7taNm/cLJ26dAp9FzcyUfUSzpEACdRBoLS4VFatXqW+n8rV4ilOjjt2rkXALFNrw0MOO8TWpaWn2Z6/rlmjkSj1OtPra+uWHOmo9wVaQ9UBlYtIoAkEql/tNGFn7kICJEACJEACJEACJEACLUUAkerKdVhaQqJjBdRSx3HzjVOrJqRRo0fZkDx3eWjqjNoxx+pVfseMqdLvOA3Pz82X5NQUcxwe2h4zwX3qnYZvrB3e1PRUZ0nQtAlO0f06JBAJjtNdAapcO9IBHbqHIX1qLMb+sUONnyRQL4FAQC8UvZQgQOXp9Rqv1zusFXGpIUGAwnVl82mOGIWVHTpk8AIzKvwggeYhQEuo5uHIXEiABEiABEiABEiABJqZAIa6deiQKZs2bpS44LCZZj5EvdklJtUjfGk/NkGj9UH1CagQhaGCmKamqXiky0I92npzrl4R6v66r4XdKTZBXpoQPt6SfsexzPJJt7Pjqvrk5hGK5uVszU8SIIFaBJKSq6/p9AwVmYLXWCgAAa4xFaiQEjRIgbveAiHUyotfSYAEmk4g/FHX9Fy4JwmQAAmQAAmQAAmQAAk0MwFY+uTk5EpWVpaUwEdTJCTXbEKnHnVQjn7sTolGpwcKdYaDnWccn4kESKAZCeDaCl5fzZgrsyKBdkugKY8hWkK1258DK0YCJEACJEACJEACbZsAHIX379tPlixZIr179YqcyoRpPx61Raoryl2LFpad5BbFy8zbOYHw6yd8vp1Xm9UjgUghQBEqUs4Ey0ECJEACJEACJEACJFCTgHYQEZFuwoQJzvJI6zBCjNIy2ZA4V5hCGd35mrXhNxIgARIgARJoVwTgk9CsoRrxfKYI1a5+AqwMCZAACZAACZAACZDATiVAwWmn4ubBSIAESIAE2jYBilBt+/yx9CRAAiRAAiRAAiRAAq1JgCJUa9LnsUmABEiABCKBAJ6FDbSGomPySDhhLAMJkAAJkAAJkAAJkAAJkAAJkAAJkAAJtHMCFKHa+Qlm9UiABEiABEiABEig3RPQN7D2ApZWSTt+qsGw9l9TcnXzCN83uKwKTkSQ6trGWcNPEmhZAvjthafa38PXcZ4ESKBZCVCEalaczIwESIAESIAESIAESGCnEgh1HlXY0PmdHqmuJSobPqQB9XP/WuJY4XmGWIYvbPzxqwLBCoTXIzzL2svrO274PpwngeYiEPZ7CwmimrerjTbXYZgPCZBA3QQoQtXNhUtJgARIgARIgARIgATaCgHtVFZUVFppYzwxsn7D+qaVPFwcCZ/X3EqLS0N5VpQ7xwpUBCTgrxK/HrsqEFq94zNhnWRXgCotLZWysrIdz7upOdTisa1sYrzBCmAS/hfcqaJS+enyjes3SmlJqVQpQyYSaEkCBfkFod9iwB+8WPU3iOs3lKhChVBwhgRakgBFqJaky7xJgARIgARIgARIgASajwAEDW29BlTxcS2eAoGACRk+n0/Wr1sv1117nRx6yKGy/PPljT+u5g9BpLy0XJAvphBJiguLpai4yL4j00DAb8s8sWhKV2l5qqQgP19XNP6Q9e6Bumr/uEzL8Oknn4rX45X4xPh6N6+9AmWqK4GbrUH+tRNW6J910lEX/AWX1d603u/IN8jhnbffCc2Httf8UJcvl38pKSkpkpCYICHRKrQRZ0igeQmkpqZahn4Vjv1+v83n5xWoeF2u126B5GbnOr9D97po7O++eYvL3EigXROgCNWuTy8rRwIkQAIkQAIkQALtg4ANmwl2EKvUkgFiEYQWj9cjMTExct+998qee+4p1/7ftTJw0EDZZZddGlZx5KkdThtCpuIJBJEbbrxBevXuJV27dZXu3btLz949ZcxuY+T7H76Xb7/5TiZPniyrV6+2fXD8m268SY448khHvGnYURu0FcQ2FG7OnDnaWa6QLZu3hPazPnJQaIKsBAa2DEPh8F872iY3oX76F5rXdSYyucvsCM6HMdD15eXlJvaZ4FepnXZYLiEF83K+1PGJ9bo/9kM6+uij5fnnn5OK8gpngX6iyF6fR2bPmS3FJSVSUlhS0xoltCVnSKAZCehvE9aM//jnHfLIvx6xjH/66Uc55thjpG/fvnLQlIPk2quvlZ9XrKz+neP3zEQCJNDsBGKbPUdmSAIkQAIkQAIkQAIkQALNTADihdsnrFRLpPgEpxl73z33yT/v/Ke89/57MvfYuXLGGWfKgP79JT0jvWElCIomMaHcRfJy86R3z95y7bXXqtCkIowePNbrlc6du0heXq5kZ2dLilpWBFTo+ebr7+X2O+6QRYsWNux4jdjK4/FITnaObNm6RQoKCyQ9TesESzC15jArLB16COEIQxDzc/MlLSNNFR6HUnlZpSTGxVpdEhISlFe85OaotYeKVcYGPLG/inkQ3iBMQVArKiiSShWd/nb936RcrUQuvexSLbHHjumv8pugBOsllK3O5J4kXfnSSy9Jnz67iC/OJ8Wab4W/0o4NMQ2CHtgmpiQ62eA8MJFACxLA7/uX1b9IYqLzm9u8abN89eVXctttt0laepps2LBBpk+fLlOnTpH/u/b/HMtD/i5b8Iww62glQBEqWs88600CbYlAWIO2LRWbZSUBEiABEmg+AhBG4rw+y3Djho3yzjvvyH333WdixqT9Jsnll18uY8eOlcwOmY0/qNvRDHveQKjZd799nbzClkOEKioqUiFqq/z0449y6qmn6t8iWbRwkSMMNf7ooSFr8C3l0aFq7yxbJo899m/p33+A/vUz4Sc1OUVVoxj5/rvv5cILL9RZjxx5xBFyyCGHmDqH4UavvvyqPPjQQzrMLVlmHDpDxk+YoDwyZPlny+U5tUjapJ3u7t26ydy5c6Vzl87ywP0PSFJyknTq1EmWLFkiXbt2k/POOVe2qsj21FNPyYABA2TZ28tkxIgRsmbtGnnj9Tdk7dq1AlHr+OPnSn9dbwn8whi5CNCRX7hwoUzce6L897335OlnntE8+8v4PceHdnO35ZQEWpyA/U5Vblbx1ZJeTx2zsmTmzFlmnVeQXyiDBg6SM8860wToiy+9uMWLxAOQQFsnUMetf7tVqucVxnb34wYkQAIk0LIEwu5onqBdv1/foAQyGIEAADncSURBVNpwArez0LIlYO4kQAIkQAKtTUCfBW70qrh4n5SXlduQmZmzZsppp59m/oQWL14s/3fd/8moUaNDAlQoOtsOlD8uLs4RVsKeR8guKSlJh6uVyccffSxzTzhezjn3HDn7j2eLL1YFslrbNvbwXl+svPraq/LnP/9Jhg8bLiNHjpBly96VtLQ0KSgqlKVvvCFTp0yVyftPlkMPPUSWLl0q8+fPl9S0VDnv/PPkkUcflQMmT1arrVg5ZeEpJpK99sprcsutt8iuw3eV4449Vr799lu55957JC4+Tn5a8ZNcddVV5vdq7nFz5YsvvpDnXnhOErTuffr0tmFKY8eNlW+/+04tvU5V4aqLTD9kug0NfOyxJcrBGWZX32P54Ucelo0bN8p3334nZ599towZPVqGazke/fejQTT17dlYctyeBJpGwKvWUbl5OXYNJKm4utfee8nEiRPl2WefbVqG3IsEoo1AE557tISKth8J60sCbY4AfFw4jdRyjQoEk/4GpSbcEBuULzciARIgARLYaQTgL8gdrnXHbXfI9ddfLz/9/JMsmLdAbr75Zhk1YlRovVsoOBOPS1ABaQfTW2++KT179LJc8BzqmNlBFl+52Kx4Nm7aJCfPP9nWjRs3zqZ+HSLovjRp6qExNK6osEg++vgj+fCjDy2bOF+c3HjDDeqgvEzuVcuvPfbcQxaeulAK1WoDw4rmHDVHHvn3I/L+++8LhKQT/+dEtXQ6TubNX6BWT13lhRdfkLTUNDn8yMNl/Zp1MmToEHnzrTdlzS9rzPn6EWpNNeN3M+xYTz39lKz8eaXlmaB599dhjfC/tXrVKnPGftTRc8znExw6P7bkMcnJyZEuXTurJZc+p9WqxB7XtZ6/sDrJzsmWVZrHH+b9QSrKKtTPVje58aYbm4qJ+5FAsxJIjE8wQRtRLz36W+7Vs5ds3rK5WY/BzEigvRKwofK47zfinQJFqPb6a2C9SKCdEEhPTzez6fffe18KCwstogn8VrhvxttJNVkNEiABEiCBOgjExsbqELJN8vcb/i6ff/65eNXCZ5YOnTniyCOksKBQ3nr7LW33Vlm0NfNRpA3h5KRks76ZevDBdeTYwEWaT59d+soppyywHRwH4SLjxo4z4SVLh/A8/NDDkpubK+PHT5C3335bHZePbmDm9W8GH0xwCr7/fvuHNsIwu4rKCrNcStVocogCiJSSliJ9+/SVtJRUdVi+1Sw5XEssWFSNGDnc/D0tX/6F3P/A/fKA/iWqFVcXtWY69phjzdk6IgDWNN/Ci5+wpBySUpP/v73zgI+qyv74SSY9gSRAAAFD7wqIUiwICyKWtYC6iw1xxRXruq6o6yoIqB+KruhfUbB3XcUVUEFcQXQFFVwFCyWoCIpACKS3Kfmfc967w2OSTDIpJBN+V2fee7e9+77zHpn7m3POpWL+EWjNp2t0cl5QWEjDTjmFevbsya6DXEH0J4lD5Wwo+5wlSf5ei/ukug3ycTRbtDXjMWtytrFy8A4C9UfAvicDT2BuQ/1uyQf7srL49q2kcmBjHIMACIRMACJUyMjQAARAoN4JyN99+wusiFBjzx9Ljz/+BEVFuaiIV9KRoKpIIAACIAACTZ+AiCQ7d+6krVu2qpjh9pRyPKZCWvTmIiooLNA8M3FUGvafh+KiYhp12qgaA3JxXKaj2rVlEWqy9hHJ8ZfkPCK2fM3xlRLiE6hrly7UIrUlTbziCpo06SpatGgRdercqcbnlIZRfF4XB0D/aftP2o9YDWXxhFiEttjYWI3dtOu337RMgpPvz2Y3IraQas7ueEackkJZcl4sjxLYmkmEqzPGnEHz2JpK4mrl5ORoTCfthN/KdAU+2TE55bdZHBj9hEEnsJD1IqWmpGhgdvlsZExFBQet1bRlQD9yPcJr0+ZNagUlrowSaF2SlwO7BzuvVsIbCNQRgahImfryc1yJwCSB8r/59hv6kF1ir7/h+jo6K7oBgSOEgJm/VeNyIUJVAxKqgAAINByB0aeNpt+N/B1/Mbf+uTKueQ03IpwZBEAABEDgcBEQC6CfeTWrVatW0uPzH6ctGVtoAMcV+iO7oPXo1oP2ZO5R4UcCCssPFV4Pixqc5LeKxGYcyDuUZAtY0kQCb4t1kaymZZJMXEUUiuNV5nJzc3m1uXhKbZnKq/HdxJZKHpo5YyY9/fTTunqdaVPlNuBHFS8LQkk8brGweunFlymexyErd0lyu91sgTSMxl04jkWlMdS7d28ue4yGjxjOlmCRdBULYQ8//DCLY13VlWjKlCm0dMlS6tWrF7v3raf1/JKYTnN4xb+hJw6l6znGUxGLdSK4SfKxG5K41/Xq1VOPRRxat24djRs3jt362nFg8l9p0/ffa5yohQsX6nbS1ZMoMsZmJOKTMHRwlI6i2Z1QrLk2frNRxcPk1BSaNWuWFKk7oNY3bSUzQMSSLCQQqDUBvq8ioyPZhTWBJN6buO26WRCV+/6DDz7Q1R4L+YdOeaZatUqjm268qdanRAcgAAIVE4AIVTEX5IIACDQkAfMFlLfxifbSzQ05HpwbBEAABECgYQiwoNEv5VjqmJ5O559/Pk2ZchvN5RXXnnrqSbp4/MU0a7YlZiQlJlIhW0aJi1qNk/23R4QZCdrdoX37cl2Je2CLFi2oXft2tJcDbrfmVeW69+zOgs51NO6CcfQUi1DDhg2jnr16lGsbNMPWceS8Z5x5Bv3znw/R5RMuo6OPTqfbbp1C23/eTsnNk7lsDGXvz6bjBx3P7ndFNGfOXF25zssT6YlXTtR9cVUUEe2F556nfgP66atPnz50Ga9mt2PHDpKVBCdOvFLd4nxsiSQByCWJa90xx/Rl8c2yUrrxphvpzDPP1L7mPTyP0vkzuHXKrbT2s7V0OgdHn3DFBJIV+0Q4I/HqqyC1ad2a8vLy6CzuZ9P3m6h3n96Uztckq5Hl5uaoRVSH9A6W8CT8AwSsCrpEFgjUjIB9b33xxRfUnp9fiRuXwnHePvv8Mxp7wVjtMzkpmaZNn6YLDYjgjAQCIFA/BCJ49RAz3aufM6BXEAABEAABEAABEAABEKgpASNMiNDBYk3OgRy1kBW3skKOT3QJr/g2buw4OnnYyVRUyK5hCQd/vBD37WXvLVfxxn/6yr75Sj73bwKbu3nlt3KLYXAdWaFPV86zhaPiohIOahzr7z6Una1bMnSVu88//9y/sp+0z8nOoeSUZH9XJWy1EVtBsHXRf9hTkIoL2aKJLcF0vHIdzMyUFXDsrEiOpRWfEOfvT3YkTlObtm3IK8GYua2Pg6K72FJEkrRxWpLJeGT1v4SkBC03b9JWzhXB4MRVUd3l+djLroKmL1P3kK09Rs2TfSQQqAcCEsw/ju97udfFXTW1Rar/LLk5udQ8ubn/efcX8E7mnkxKa5Nmiavm3x9nBeyDwJFOgJ+Ls844i0aOGkV/+9vf9O+QIqnmv+ewhDrSbyBcPwiAAAiAAAiAAAg0VgLyhdZ8qVVxw0PJqcn00aqP2DroZ3r11Vfok48/4XhMb9GZHIhcYjj1P65/za7GFpXMynrlBCjplccg1kqyNSmaYx5pcozTlNVoy8JSlOnTFt5EgOIfjnWhDu1T8jm5OYi5jFcsn0RA0yRj47F42JVRhCOnmGTX0E1qijUhj+RzyQp2LodroLbhPjQOFpeJpZkEO9ck18mvgoICtYpauXIlyQp+RoASOLJ/3rnnssVJe2qV1kp5qZDG7Eyf0ofuy3ntMVsnwDsI1D2BBA7KL0kEUrH6ExdRSbIQgHnm9d8avhdVgJL7HAkEQKBeCECEqhes6BQEQAAEQAAEQAAEQKDWBALECRe7w0lqntJc3fSOPfZ+2sExo5YtW0biMvbEwifozr/fSVdcMZF6sJvc4UiuGMfXaRlvbROLSX7hyAhL3KcIRf4UIJj5BShTgatWKKKZct6qmMZbXdlO8h3dy6Ecq7DEu4a75subjjGRjj3mWBWSWrRoyVtRxliA4vf9+/dTB3a7a9nqoOVJrIh3UkNEJ3uCb/o3x1oBbyBQDwTEEsrrZqs/OwaaiqBs/ZfIAmsZb/1Jbk8+jHSIsv4y7IAACNQJAcdfzTrpD52AAAiAAAiAAAiAAAiAwGEhIMJMx84dafJ1kzV+0bLly+mOO26nf//737T47cX1MwZRWSpKleVXVLcx5IUyXmdd2Zc5O7/aHNWGRh81usKrEU1KJvcqckl9Zx/OFlKGBAL1TEAEzwgjQAU5FwLVBIGDIhCoIwKO31fqqEd0AwIgAAIgAAIgAAIgAAJ1RUDEC6eAYQsgasnALmoSy0hcbESMmnD55fTZ2s80aLmsBIdUTwTk83DMIkRsUtFJhCf+TDTxbL6EXZ00OT8/K+fge+Dne7AEeyBQZwT8VndV9BjsVq2iKYpBAASqSQCWUNUEhWogAAIgAAIgAAIgAAKNjQCHxJZZYxS/sfaRkJhAvXr3orun3n2ocNXYhh0wHsuJLSAzjA79Ln06ZmsaL3k1DdgeRpeOoTZiAiyNHhwd7zqODuZjDwRAoFYEaiLcQoSqFXI0BgEQAAEQAAEQAAEQaCgC1Qvb0vinnhGRDrOihoKJ84JAEyMgVpKSVOTlRyzSV5PpchODgssBgToiYD1dbI3MZrCRTtPYavQPEaoakFAFBEAABEAABEAABEAgTAkEalCNaB6qQ+G3RjSkMP2QMWwQKE/A5/NqpsftLl9YVQ4eyqoIofwIJxDNC4VIoP+ICPtHlMC/tUH4QIQKAgdFIAACIAACIAACIAAC4U2grC4jDcuX7DqcnLpc/Psxf4F3uVzhDbk2ow9h4lKb06DtkUdALDQklXo81sXX4bNrdVjH7zI+828Mnos6hovu6ppAVHQURenfLnPTVv8MsP2tPivUBAEQAAEQAAEQAAEQCDMCdTaXq6qjqsor4KYCGbfTuXGw9sHKKui3RlnWfD1404rGUVGe9GL6q6w8+JlQCgK1JmCC5FcoRNdUkKppu6quRvqVZ4a3ZtxVNUE5CDQ4Ab5fPW5b5A1hMLCECgEWqoIACIAACIAACIAACIQbgRBVkKqqBysPVlYJNmkSwRZRmpztAye7WpFr2RNVq4H9HlhXsp19HVK54gPT/SGl1e3DWc8ei5etT1wx9lTDWX7ICXAAAvVHwFhC+R8Ps2PuR3MsQzB5wYZj6pttddoE66+iMulTXuYcFdVBHgiEOQFYQoX5B4jhgwAIgAAIgAAIgAAINCECMvkMnIDycWlpaeUXaSauIlCZ/cprly/hNm4TNydIH/4xSJ1gifuLOJJdDIOxQVmjIuB1+0gDmMtzI8k8P7INfA5Nmakn2zpMarHF5/R4Q7csqcNhoCsQqHcCEKHqHTFOAAIgAAIgAAIgAAIgAAKhExC3nOLCYlrx/gqeD9szYtkETI59Hh952SWilIWkkuISEiukkBLPCKKiXLTrl120ZcuWcv2bvjylVoDn95a9R6UlvB9olSXj4ry9e/fS5k2bqLQ4iHBmOsUWBA4HAb4vC/LyqbiomHw+H2XuzaQD+7PJFR2pj5M8MyICVeq6xwJUaUkpZWdnk4+Fq0pd5ioSr6p5fb/u+pUytmQcFMKkXcCzXs2uUA0EGjUBiFCN+uPB4EAABEAABEAABEAABI4IAs7JpkxkORUXF6uF0viLx1NJSQkV5RepwFRmLz1v1eI5Kwdg5mkxT669Ws/jtVYFM+U6kXX27y+wd/h8kewS+Myzz1JGxtaDpdLG0S4+MVEnyI888ght+OorXZr7YGV7j2cXmzdtpoVPLqSYuBid8GuJ6Segz3LtkQEC9UGA77vEZkl0+223U6uWrah1m9Z08kkn0b0z7qX169aRl4UpsYgy4pI+gragJNZSsgJ9CVsjHjhwgCJFuHJxh+aelvGa+1pm1/bz688z5bJ1JtPG7mfNp2toym1TdMUxXfHe2b+zHfZBIMwJQIQK8w8QwwcBEAABEAABEAABEGgiBByTzp07drIA5VEhqiC/gAoKCyk+KZ5FplLas2cP7fh5BxUVFemFF7FY9dhj82natGnUvHlzio2LpYL8fCosKFSrpKzMLBWwDpk0V4Dsqqv+RIMGD9aJuJzzwP4DlLUvS8eQz1YkshK3nHMmT9wHHj+Ql+aOIG+pR8+xb98+q0eerx933HF0819u1mNpJ+fdsmkL7dixQyfobrGiclxrBUNBFgjULQH7fktq1oxmz5lNP2//mV599VVdmXL8JRfT22+/zaKqVwWmrKwsys3NJdmKdaDklxSV0Jo1IhLdRgf28XPBz5RYRkna9cuvtGvnr2plVSLWf3Iufv226zfa/tN2fWakvckX11cRlcXqafeu3Wq9KP2IJaNYPGZl7eO2u/VZ8Xn5geIkllpivYUEAk2BAAKTN4VPEdcAAiAAAiAAAiAAAiAQ3gRs6wkRed579z168cUXqWvXrtShQweenJZSMotLkq67/nqenJaxVUaJikzPv/AC5eTk0IoVK8jjcdN7771Hg4cMpldfeVUn2bK/e/dumj59OnXu1JliYmPKc+IJc15uHi1ZvIRatGxBF/3hIrr5r3+l/v36ad+rPvqIRgwfTtdMvobi4uLovvvupfvuv0/7+8+H/6GH5z1M8fHxNGbMGLr44otp4zcbafmy5TTz3pkqnj362KO0cuUqnvBH0pDBQ+j6G26gNmyJggQCh50APztxsXHU/qh2lJ6eTu3at9Pn7Pbbb6d+/ftR1y5daenSpfTsc89S9+7dKTNzH029+27q3qM7vfzyyyoqLV66hEaNGkXiPifirwi/+/Zl0qATTqDrrpPnk2jx24vpqaefphhexj4mJpauueYaGjp0KP3w4w/04IMP0rBThqnra8a2DJo8eTKNPn00W2J5yRUVSWvWrqH3l79Pjz/+uFoo5ubk0gMPPMD9D6Jzzj3nsCPDCUGgrgnAEqquiaI/EAABEAABEAABEAABEAiFgBg7sBAkL5l83nHHHTRz5kySifE+toqIjYmjbBaaXnvlNfruu2/pH3fdRTNmzGTLpAha98UX1LFTOhWxpdSokaNoyNAT6csvv6QZM6fT7Nmz6bZbp6iQtWzZMq5f+Vd/mZhv3rxZrTckds769et5MryWrrzySrqRRaMffviBtmzeQs2aN6MPV65kwctDy5Yvpz//+c80ddpU+svNf6Fb/noLvfPuu7R//376lK1GxCJLzvsVu+7JWObOfYB279lNjz36qHW9oTBCXRCoIwJy77ol+Dc/byIgjR03lnLycmh/1n76mu/Ve++9lxYuXKjP36BBg1RUFQulgQOPo2bs0nfGGWfQ0Ud34PI7aPRpp9E9fP9P4efsJRapRGQSiym536+9djILsffS+eefTw899BDFJcSp9dTnX3yuV3LnP/7B4u4IPZfEcpOxZB/IoV49e9ErLCJv3rJZ623L2EaPz59Pp7IQrEkEa/n3AgkEwpRA5X+JwvSCMGwQAAEQAAEQAAEQAAEQCCsC9jdyiUeTtT+L9h/YT8ccewy1btuaJlw+gVfGK6GWbKE0/pLxtG79Op6oZlNqSgp17tyZJl09SQMlFxYVUkpqKk9kk2jMGWMok93jCgoLKJIDjh/T9xgWpWZSLgtZlaVIFrQ08UZi58hke/To06hdh3Z07nnnUl5BHm3fvt3fvJgnzV+wANahfQcaPmK4WnK4fW4aN26cWkVFSswcTiKI9Tu2H4+hL1uaHEtdunQhsf5AAoGGIhAVFUXRLsshKMoVrYJqfm6+Cq0nDB5EmySoPrvaxUTHUD+2BvwTu6kmJiWyRVOMWlG1PaqNuqAmJsZTckoyP7P71TJRXOw2btzIZZmUxM/PqcNOVcuqwUOG0JatW9VtL5JXjeyY3pEuvPBCap7cjLp05uchI0P7zi/IV0uoXn16UV5+Lr355ptqVSWi1nEDB/K5moe+6EBDQcZ5QSAIAbjjBYGDIhAAARAAARAAARAAARA4LATYukEsNOLj4tkNrr9aOcl5ZWLL4ZLJw7GXPvpoNbuyXUcDBwykjh070rZt2zR+kwRKjo2N5dpiIkG05tO1dNONN/IkN5lOPXWYxr/J4VW9Wqa11HJ9s6r6jyUws3N1MI335LECnPt4K5YgYnklSTSzUh6XTOaHnXqq5knsGmnTnC2lOE66GQql8BhSWRyLjefxcb4IbVIPCQQajADffyIGSRLxVe5JCeYv7ncZWzNo4pUTNVbU2WedTV9v+JpdYZN1gQB5BuR/udclBtrOnb/QC8+/oJaGErB8QP8B1LdPX+2jgOOx+fhBkGe3jBcMkPNERlrnlGfNI5ZYnHg5Aet54OdR++c8Nz/r8myfeeaZNPzU4bRgwQJasmSJ1nexe5+mgOfXysQ7CIQHAYhQ4fE5YZQgAAIgAAIgAAIgAAI1IhAegofX4yNXhItapbVSCyO5VC8HJpcg5DI5lUnrcxynRlb2euXVV2jvnr100003+VeokyDmYrkRHRPNFh3b1C3oV54ku3ly/fjj8/31/AgFi0xkDR57UsshczTfxRNmmUBLkqm0jCGCx6eJI5QnJCRQN45ZJcHQH5r3Ty6L5En5DhW8VG2yalJqi1S19BABStQrsSbx8FiRQKAhCIjQGsduorq6HQ8gv6CAZnC8tCEckH8AB9R/l91JxfX0m43fsPVhK3Z9vVODlItrqZefJXkOZCVJEYvdpW664+93UN9j+lJOdq6uLNk8ubnGj0pKSqBmSSzI8jkSEhJVuBLx1dJfy9iiyaxgGaniL3erz6I8fz4WqY7imFU9uvegtxcvZqvIYzl+1dGKCyKuYsBbmBOACBXmHyCGDwIgAAIgAAIgAAIgUDmBMjXLcZRbuoojo3HsSkDi4qJiti6KJnGtu2/mfdSmbRuNoyTiUjGvgJeWlqYClMSL2cYuPG8sekOtND795FO6YsIEDajcpm1bdRnKzsmm+2fNonZHtaUnnlhASYlJNOv+WXTHnXdY4pNw4ImvLD/vY0sNSS523RM3PMk/wJZTiTJ55nKZ+IprX2lJsbYt4vFJ3siRI+lPk/5EM+6ZoRP4884/lz5atYoFrzKeeMfzynoH+PztaPGSxbT8/eUcnHwlfbz6Y7pswmV6PryBwOEmkJSURG++8aZaK8l9LvHKFi1aRM8+8yzFsbVeSxZN3Rzgf8UHK/R5fOXlV1SMleD73bp00xhtSxYvpU6dOlJa61Yc8H8Gu9ZdoMLxJ5/8l+M7LaC2bdqyS2oCTZw4kS7gMll5rzUH4t/NgrKXxWRZKc/NVo+SZIEBSTkcfFyE5ARu5+GFCMQl9oILLlBXQBmbsYCCFaHiwluYE7A90MP8KjB8EAABEAABEAABEAABEAhnAiwKibXFyFG/o282fEPz5j1Ezz//PN3BwcmH/264Xtm8efOoe9duNHXq3ToZFquOSVdNYpHpCQ0gLrFsZs6cQSeedBJNnzadg4S/wwLQElq1aqUGOn+BV9IT6yqxurLchMp4chtJ0bHR2n8SW27IKnnZ+7PZYilarUTE1U/SwIHHczBmyxpjEFuNeFnci2Z3PBnD5i1b6OpJk+jfb71NA487Xq0+ZFWxlq1S6ZLLLqGXX3qZbr75ZvovT9KfffZZHbOaiGjPeAOBw0NA7msJ8C9xm5559hl65plnKDcvl4P9f0fnjx2rgxg0aDBdecWV/LzcS4veeou+/N//OJD+fJo//3E6+9yzqXOnznT5pZdSMruZvs8rUkrcNKm7bt06uvPOv1P/Af2pDceMev2119UdVgL3d+a4TyJ89R/Qj9q1a0e9e/dWw6c9v+2hjkena5/N+dmTVS/79e/vh9GyZUsN/D/0xKH+POyAQFMgEMG/YjTS34OaAl5cAwiAAAiAAAiAAAiAQIMQYCsHsRp4Z+k7dPbvzz44hEb0zfcHjvty1tm/p6+//krdeySGjLj67N61m9q2a+sfs5djxLhiolTckXIRisTVRyw2xP1OBR2+XrVaYr83YzUhsWWiuZ1J0k7d7Oyv/+L2I7PhSHalk/1mHChZ+hDhqczLLnh2cHFzfncJn48Fq72797IVSGudNEsdcUWSoMnSVsUpPqe4C4rllsSREmsrEbskSb/yEfgDoWsu3kCg7glInKYWHNB/+4/bqWPnjv7nRO5Bue/lMTAB9OWm9LJ1knl2CvMKeDU7sUpyU0ysZYkoz0lMXAwV5hdSArvbSfBy+TdGn0HH8J3PjmTncdDzZrxgQFF+kd77sfzMyoIB4tonLqqSH58Urz2Ii588i1u2bKUXWTQW97477/i7Pv9agceJBAINToBv3XFjx9GIESPo2snXWj9khHBvHvyr1OBXggGAAAiAAAiAAAiAAAiAwJFLQCalPp4gixueM/mDKLMAJSkxMVEnrzqT5mMfu8bpZJqLIyMOfr2P4omuP/EEQVz6ZkyfwRNhPrD+52IOjcyBlvv170dXTryS8vPzqRW7GUmQ9CjuywQjl5hOUdGWxZS4FmmyA5VLfCjpj0+ubWQ/JSXVmmRLtj1uaSOiVYTURQKBw02AJ86SjLhqH1r3ruhBduBwqZPQjJ8xvk8lhploRXHxcRrqTARZEZ00NpMUmHuZt/ocsihl+pd+JIkAJUmEJrFEFKHLbE2+VuC3aHbHFVfa6dPvobRWaWrhKAK0JnMuUxlbEAhTAgf/SoXpBWDYIAACIAACIAACIAACINAUCJh4LzyPtZI96fRPauVYJ8uWGGVEJmNVpGKP1DHtpCN7XzpMSU6hG3nVvMAkLnWpLVqw5UecugRKuYtd7dRSg/cj7JXEzLBkDNqv3beOQ8blHzhPps0qXtJehit1TTveRQKBRkPAvrH9gqtzYAH3rAjCcjv7OEi5iFbSRi2rOE9vf7svZxfOfZfLmn7L8+V/JpwVeF8C98+YMUMDngeGtAuoikMQCEsCEKHC8mPDoEEABEAABEAABEAABJoUATMRNhflEI9MVuBWRStnPee+s7L0zZZMYsHRo1cPZ0m5fZ2IW156PEdml7wyXg3MIS7pxDmglRHPVGSyy/x5zjE59wP6wCEINFoC9vNjOZLWcpSWflx5J1wuloiJHEBdkgq4soNnRyggNRECEKGayAeJywABEAABEAABEAABEGiiBJwTULNvtuaSA49NvnPLdcTqSSa01oTatnXiSbZadLBbn7EG8YtI0t4WyJxdlduvzvnLNUIGCIBARQTi2SrRn8yzZZ5Dc+yvgB0QCC8CVWmx4XU1GC0IgAAIgAAIgAAIgAAIgEA1CNgzWt2Y2a3ZVqM5qoAACIAACIBADQjAEqoG0NAEBEAABEAABEAABEAABMKZgFNuMvtmG87XhbGDQJMjgAezyX2kR/oFQYQ60u8AXD8IgAAIgAAIgAAIgAAICAEz2TVbUAEBEAABEACBOiYAd7w6BoruQAAEQAAEQAAEQAAEGoCACCcSK6UuBRTpy7zMJZljszX5jXkbEENGDznY+CHZhxw05ovB2ECg4QjIY3LwUeEI/vbxwTzNwhsIgEAQArCECgIHRSAAAiAAAiAAAiAAAvVEQEQckxrLDM6MyYzHmmNaozRlklfRz7im3LQ119bQ28Bx6fisAOQRPlNoDbJMApO7HHlmt7FdU0MzxfmbNoFK7ncJ428WivRFuix92mQ0bSK4OhCoUwIV/Qmt0xOgMxAAARAAARAAARAAARDwExBhw4gbJrOiPFMmE8JKJoVaxdHW7XFrltftMa2rvw0YkwgyJukQeFU5n8+nQ/G6LXXKXcrn4Xa64pypXB9bc432Vsbhc4wv6Cnty/B6POTzyvjLKNLFU4CDl+fctbri88g5yhVIG71eKXd0EHQAKASBxkWgzCEum2fZP0K5rc2tbbZSKM+eIwUcOkqwCwIgUBUBiFBVEUI5CIAACIAACIAACIDA4SfgnAzK2c2xc2Jo8u3ReVgU+iFjG02fOYPycvPs3NA27hI35WTnkFOEEmOHiEixgmAXNhZyXFHWV+jomCjKzcnVstDOEkJtx2y3ML+Q3KVu8nq85PWGJrS5eKxenn2LAFVcVOyfVIsoJSKaXK8KS8y3qLCY+/f66/hHa48lgi/f47YEP38ZdkCgERPw2cKxDLHMoUK5ovlmNqKU3N/meXP+O2P2TTlv5d8CeWl9R74iMPX1wPEm+eZlss1xKFvTFlsQCFMCcMcL0w8OwwYBEAABEAABEACBI4GA38pI53sy2wtIdtb2H7fTl//7ku679z76asNXNH78+ICKlRxKezH64Umghy2pSktLqaS0hAr25PutfcQqaM+ePTRo0CAqKimmggP5lJycTNksVrVuk8aiTgllZGylY/sdW8lJapEtk1MZI2/XfrZWJ74jR43UDn1esWriQqljks3DnyfFXE/c7D5atYq6dOlMbdq0JV+Uzy+eyVy6sKCAEpsl0c6fd9LWjAwaNdI6h+lWxvDRylXUrHlzOv6E4ykmLubQ8/orYgcEGh+BSBGbOO3a+atu2x3dnn7h/b38XPtYlGrO93WPnj1UjJV/cyJFaa1NMs9tbfpAWxBoogRq+XQ1USq4LBAAARAAARAAARAAgcZHQAQW+fYqW36JcJSfm0/vLnmXbp1yK02+5hoqZpFoxfIV1Kdvn+qNXyaL3KfMOaNjolmISaS5c+ZS+6M7UO/eva1Xr950+pgxtOKDFbR/fxYNGTKE9u7NVAFKrKb+ctNNdMtfb6ne+SqrJddkxCT7+uTYL8Jx8Z49mbTyw5Vs5ZWvvYiL3SFJ2pnk2DdxnhYseIIeePBBSmqeRDk5OXzRplIEue2+cvNy6dtvv6W9mXvV6kqtROxqL7/8Cj311NNUytZiSCAQbgQy+fl57vnnacnSpTr0L79cTxdfcgmdcsopdPIpJ9M5vz+XnnryKX7O9lqPYrCZspQFK5czyPPsfEkeEgiAAMESCjcBCIAACIAACIAACIBAoycg7nDOtOuXX+mdd9+jFSuW06bNWyg+No5ef/1fNOzUYSomOetWuS8TRUf3MTExNHrUaFq8ZLE2FbebaFcUWx256OsNX6u1VBlbR2UfyFbBauPGjbRg4YIqT1NlBZ7UZrK4lZWVRb1696LPPv+cXe88LKj1pRS2vOrDeX379mYRqIS2bPqVOnbqRNHSKY99w9cbqXXrNDqq3VEqzG3YsEGFpn79+1MHtvqQ5OUxGwuP+IR4zpEL53d2MUxJTSFx92uW1IxOHz2aBbbWKkJlZmbSzp07Kb1jR4qPj6ei4mKKidWzalu8gUC4EGiRmkoFhQX6HMiY4+PiKSkpiX777TdKTEyiTZu+p/vvv59efOlFmjNnDg09cWjll2Y9OpWXowQEQKBSAhChKkWDAhAAARAAARAAARAAgcZGQCyP/vngP2nRW4vYHS6bUnliOeOe6TTqtFEqpOh4A0SlmlyDiwUnS6ixW9t9pqWlabykAnZfe+ihh+jJp55iAegr6tKtq9F0anI6qy2LSV999RXdddddNHr06bTp++9p4zff0I033EBXT5pE77zzDu3bt4/GXTCO3njjDbrrH3dRUUEMeXwemjZ1Kl1++eV00skn0dSp09ityHK3e/iRh+nheQ9T+/btLasqW2zzz6H52FhKyepf0v/YcWPp5x0/01tv/Zsn47Pp6KOPpvbt2tPqjz+moUOHWNcncXTsvmp2wWgFAoeXgI9NJ0VQjrQtAOUZiGHrR3GtlVhpPXv2onnz5tEVE66gxx57LLgIdXiHjrOBQJMiUJURYZO6WFwMCIAACIAACIAACIBAeBAwIolqPzJp5J3XXnmNevboQY8+9iilpKTQojcX0TfffkMXXHSBHmfu3cdWQqVqqVTbq5SV9nIO5OgrNyfPck3jTgsLCikvL59uv/12du15jvawFUU7FmjkvLURZXweHxXmFeiw161fR507d6K33n6L3l++jO67/z7KLyyk3NxcWspC1HHHDaSsfVm0detWSm2VSis5VpOUnX766bRkyRKKYgHt8SeeoEceeYSGnzqc5s+fT9HR0dSiRQvt/5A3AcwvWTkvPimesnOyacfOHVrlgxUr6KKL/kCvvfYa3XDjjSxi8ep6Up+TTOiRQCDcCUgAfon3JikuLpZatUpj17xTaO3ateF+aRg/CDRaArCEarQfDQYGAiAAAiAAAiAAAk2IAOtIJcUllJ+fr4KIuMKYldlEBHHGPpKrFve7qEgXBwkvpQ/+84FaJqz+aDWdc945dOXEK9kiZygVFRXRjp93UGxMLEVFRelLXOnEna1lbMtawVu79jPq2aunv4/09HSa99A86tatGxWyS4/EnurWvZvGWJo6baolQNVCl5HAyQnRieTia5Y06epJKg61bt2GMvdl8gQ5js9bSJ07deLg4EnsPpSobkRSd9u2DOreozs1S26m8ZxEIFq9ejXFsPAkjGSscQlxajkmLnUVJZmMizWIM+3Zu4dGjBhBcfFx1K1rVxbGOnOwdmspMQ2ILpVrcc3Oc2EfBBqCgLinxvG/RZr43yhZ8VJcX8UiEAkEQKB+CECEqh+u6BUEQAAEQAAEQAAEQCCAwNy5c+mnH3+iwqJCcrvZcohTma+MrWp0r5wQJcKSx+2hjRs30K5dv1Gpp5S2btmqljkSIFsMpNS1hgWrSI0uLhY9XhZdSuh1tt6pTRp4/HH05IIntQsRyDwcm6lvn770M1sJiWvatGn3UFxsLI2/5GJqntycbrz+BnJF81drHpPVyN5WdyMMpK1pz7tevnavj8WhiCi1QhJhbh8HRpc0dtw4mjN7tgZMz8jIoHPPOVfzRST6Yds2+uWXneTiOFatW7emEb8boWVu96EBxcX9rizCOrErwhK/pH1MdAyV8Ip/EicnkvuQ5OLPwhIKoTopELw1HQLWP0B6PQf2Z+sqm8cNOK7pXB+uBAQaGQGIUI3sA8FwQAAEQAAEQAAEQKCpEli/br3GF7rwoov4Eq34LHqtrGsEWkJJfmRkJGVkbKX1X66nEncJpbGrzNjzx9J555+n7mhSR+O82FsX188vyFeLocRmSVJcoyRjSUhIpC5dumh7EXNcssQ7j1Ncd3xlXmp31FHUslUrWshub+PHj+eg4X3o9DNOr9H5tJEtPkXYS8OL1VgMW3hJ4stiPpbLnNGo+vbpQ6s/WU0ZWzPo66+/pltu4dX5uI64E0X0jqQJEyaoZdP3323SZeilH7ESO6hycWXuN6LM7tER+L2UBcLY+FiNl1NQkMdCIa9CyBZsIhgekgIODynDAQg0MgLyXEtMKHPbioAtx/GJCf6Rbt60iZYufYc+WrXKn4cdEACBuiUAEapueaI3EAABEAABEAABEACBSgiIlU337t3pNA4iHs0BgTXZM8KKRCix/BlzxhgaM+YMmjN3Dr3x5pv0/or3NbbRpZdeyqu0xagVUjFb7cSxaPIbW0vJ6nA1SjwOEX5EfElOSWaxabf27++Ly2WMbdu25RW2CtXaKoFd5AYPGkw33HAjzZo9S10Em6c09zepyY5Yf0mK5fg0EmdKrJWio6L53D5q36E95XDsJ0kdeP/11/5Fg4cOoj9c+Afq1asX5eXmaeDw6dOns6XWNCoqLKL3OKbUXF7pSwK6Szwrr9ej7dXtz2YvGTIZd5e6qVmzZuzeGKeCVsuWLWnKlCkqdH3PQdJXf7yaxo0dp+3xBgLhRiBCRGoWUyUQuSRZ+TEnN4cmX3ONPtvFvPLjmjVraOaMGex2ywsNIIEACNQLAf79AwkEQAAEQAAEQAAEQAAEDgMBNroRyyWNKySiDlvWmJe40fm8XOZ4EVvgqHDVszuvQvckrfnvp+wK144Ddd9Pw0cM58niTFr3+TqKYZFGkhGgyriPmiQRfkSIOfHEE+mSiy/RLtRdkMUz2YoolpqawpPWazWIsYvjx0RyEPCbb76ZOnfqTJ+u+ZQDlVtBjp1udaGMpXXrNJp01SRtIiKbrNJ3zrnnqEiUfnS6rpInheKAKCz+wIHD77r7LhXMZBJ95lln0tNPP0M5OTkctH0jzZw+QwOWi7B22mmn0YABA6gov4hi4mLYJZLd/TggupddDUvZVc9T6uHA7z1pBLOV8T807yH6/rvv6It166jvMcfwCnzT6LzzzlOBSj4bJBAIJwIS7+nkk06mrl26quA8ZPBgGjx4iD4rEthfYqK9/fbbdMNN7Fpru6GG0/VhrCAQLgQi+A9qzf5Kh8sVYpwgAAIgAAIgAAIgAAINT4BFDYlbNHLkKLr22mvV1cvvF8Oj83HsI/UPs0fK1fnQWk5dgpNH8QRRJoZijfTFF1/QYl4FbuWHH9LefXtp/B/H05S/TaGUFqks1khfZTyhtFxt3mHXmrN/f7bdK2+CffPltu4SN0XHRms8JomDJH1ZjXgs3KexTpJYTRKwu7S41LKY4ra6z+KOJmmmF2Ed+t8d55fYTWed/Xt2p/uK4hPiVYBz87X62OpJjiXlZOdqUPJovnYJXl5cVKz14jnQuAhmIiZ53T522ePr5fFp4nMcOJBNqS1SuD679bFIV8JxsmT1O0n7MrM0aLmMT0Q+cXuUOFAieEmweBG/JImYJ8KbuQ5xy7O9BfncHg3iHJSn9oI3EGgYAgcOHKAWLVvQ9h+3U8fOHXUQEutMrB337d1HrVq3qnBgahHJgjTu7QrxIBME9G+CWMWOGDGCrp18rf7NDOV5gTsebiIQAAEQAAEQAAEQAIHDT4CFEl0dz29Rc6iBvggq8p/8H2uEHR6l5A05cQgNGTKENv7xj/T6v16nl156iR544EGaM2c2XXjhRRxQO4EFmNTQr4nHpO5wPCYRoCRJ3BjRoUTcki/ZUSzoSF40/6fHvAKd+fIdJfuSuJ7/pRmON+mnosRtREgSayxnSuag5yIUibuc9Cmr5JlkxCJX1KHshJlYbEn9GHZ7FJEpPopXI2RRacOGDfTuu+/S5i2blaUMNZqvNTEpkTqmd6QLL7qQOnXqpNz9opZ9QiNAyaFYlWiq7HqsUryDQAMSKH9zigAlqTIBSspktU1N5Ztb+XgHARCoFQGIULXCh8YgAAIgAAIgAAIgAAK1IWDmeSKGhJRYd+k3oJ++Jk6cSP/3yP+pm978+fPpsksvo6n3TK24O3PCikp5EGr5EzAYEZ1EMJMkQpG9q1tTZktmbFok2WxBJEpQZamiIpMXcG7pRpaRD9ad/zSBbblAXIzMeEVU6tu3r8aWEssosfJScYsriCWUrJ7XIb2DVV/EwQBty38e7IBAUyaA+74pf7q4trokUMHfnOp0DxGqOpRQBwRAAARAAARAAARAoG4JsLATIV9gzYRPzI1ELxHxI8TUpXNXmsHBhK/+8zU0lwOYP/vcs1bsIuknlP6MEGS20t7eP0RUMuUyft43ZcZ1zRxL82BJAiWXS6ZvZ0EF1ZzFZoyH5DkPHH2KpVdaWpr/upzV/PuO+v487IBA2BFgt1z+zwjIYTd8DBgEGjEBr4fjOKqPduiDhAgVOjO0AAEQAAEQAAEQAAEQqBUBscCRDqzl0mW3jIUWzapKcKngvOKOlpKSwjGhUujJhQtpx84d1L1Hd63psVeDq6BZ7bMCxZrA4yrOIDGdioqLbGukKirXUXGgi12F3driWoVlyASBMCEQwRaE0TF2jLYwGTOGCQLhQkD+tkqMxsgqfwUpf0UQocozQQ4IgAAIgAAIgAAIgEB9E7AFG7WGcpyrQh2nKlFEGtkNJeaLEaCiIqI0eLij++rtyvlCSXLuUNrYY42KclE8x3iKiToYzFyWDLKLQxlB1XXtTjVou9Ol0LS0y3UVQFEI7euRjSUYmorYgkB4EIiRWGccH07jvAU+n3K/B+ZVdFlSz+maWp02ph+cw5CoegtWVTMyNRoDKx6Dl1e0lb8XNUkQoWpCDW1AAARAAARAAARAAATqjgB/oQ0Uo+qic0+Zh3b/tltXx0pMTFQ1xVhgVdg/K0CH03Vnf9Z+Kiosoh9++pEDjsfqZFliNFXXna/CazhcmTJOmQwhgUAjJZCfX0D7D+ynvXv2UlxsHMd7c9VopGKcGYpXb01OgnNUnxpYNTwrF/+QIVZQ8vKyS54rRC0KIlT1P0PUBAEQAAEQAAEQAAEQqCsCAV9arQDZxjhBCkWZqv3JZs2eRQsWLCCPz2M6523Aye3TaG7FRbUfSAU9lJSW0s5fd9KECRN4SD6SGBsqgh3GMVQwrGpnhckwq309qNi0CETbq1VeM/kaXSGyjFeZRAIBEKgDAvwLxNatW2n0aaPVGkrEKP3xpJp/syFC1cFngC5AAARAAARAAARAAARCJ2D9kirxyA9+c7X2Dh6H3qvVwuf10dYtGeTxeBy9B+8tnASg4FdS/6XCqhItr/5PjjOAAAiAAAg0CAHz1zk6JprS0zvqjycVrSobbHAQoYLRQRkIgAAIgAAIgAAIgEC9EVDHM/ONto7PEumK5NhQ3eq4V3QHAiAAAiAAAkcwATaBlR+QSnlhDbE2jI3jmIYhmsWGhwglX074wnKycygpKZFKikvYPLsGS6ccwfcKLh0EQAAEQAAEyhEQP/7oKMrNzaW01rxke4hfIsr1hwwQCJVAPQlQ5YYR6r0dav1yJ2ziGfZ3czUxqw4rU1+wOPeDYTL1zDZY3cB+Q20Tav3A8wUbm+nbbIPVDew31Dah1g88X7Cxmb7NNljdwH5DbRNq/cDzVTE2tXjkOmLJJ6dCAgEQCIGAxgOM8ItPXjd/l+QffUJ5mMJDhGL33Q8//JD+NuVW8rjdVFhYeFiXsg3hI0FVEAABEAABEAgbArJ8taQY/iVr6dIl1LUbrEbC5sNrCgOt7kSzKVxrU7sG58zduR/sOp31nPvVaRNqfekz1Dah1sc5gn1yVpmTqXM/WEtTz2yD1ZUyZz3nfpB2YoGpAlQ16wfpCkUgcMQR8D82dog1FaBCpBAWIpSYe2VmZtI+fi1ZsoSKi4pDvExUBwEQAAEQAAEQCCTg8Xpo3RfraOZ9M6lrdxagqmPRENgJjkGgNgTMt9n6vvfMeaozVhlLKPWr02dTqwNGTe0TPbKuh+9f/Q0GccqPrM8dV1t3BAL/ZstvmoF5Qc4WFiJUhCuC0tLSKD8/nwYeP1AjsAe5JhSBAAjUlIDzH49G8QVc11ngf9OcA6vpxaEdCIBAIAFZjSw9PZ3mzJ3Df1v5S3mjeO4DR4ljEAABEAABEKgHAvibVw9Q0SUIVE0gLEQouQyZhJZKLChO1rRUd2U5lZBUN7sVNiAAAoEEWOcpi5A3q0CfM+cfZ6cOZJ47KXf+ilRZfWe+dG/6qixf6lheQrJHEWWBFTUbbyAAAnVAoLi4mPZm7rV+FTbPZh30iy5AoM4J4P6sc6S16hCfR63woXEDE8D928AfAE7fpAiE+DyFjQh1iPDUpD4xXAwINHIC9j8qao1k76soJPvyEn3IuTUCVSiXZfoIpQ3qggAIgAAIgAAIgAAIgAAIgAAIhBUBh61BWI0bgwUBEDiMBFRv4thsZb4y8vFLtpL0nQUkFah0G9qgJN6bM+6G9sP/Kuk2tK5QGwRAAARAAARAAARAAARAAARAoJETgAjVyD8gDA8EDhsB/tdA4sOYl4pDYqHESeLEaH5khLUEp5Wt+bIrWpIkt7vU3rrJZzI1p+I36VOVLGkv5+D+y7x8YPdXcSvkggAIgAAIgAAIgAAIgAAIgAAIhCMBiFDh+KlhzCBQHwSqEH6MCCXVxBrKiFR5OXkUyYsHFBUWkafUrSOLjommSFWu+FCELGffsi//8ki+/crPy6esfVlUXFhMshCBvJBAAARAAARAAARAAARAAARAAASaFoH/B+dk+GzmTqNoAAAAAElFTkSuQmCC;" vertex="1" parent="1">
          <mxGeometry x="50" y="430" width="1185" height="366" as="geometry" />
        </mxCell>
      </root>
    </mxGraphModel>
  </diagram>
</mxfile>
